%TF.GenerationSoftware,KiCad,Pcbnew,9.0.5-9.0.5~ubuntu24.04.1*%
%TF.CreationDate,2025-12-01T21:58:57+00:00*%
%TF.ProjectId,PC6502-DUALTRANSPUTER,50433635-3032-42d4-9455-414c5452414e,rev?*%
%TF.SameCoordinates,Original*%
%TF.FileFunction,Drillmap*%
%TF.FilePolarity,Positive*%
%FSLAX45Y45*%
G04 Gerber Fmt 4.5, Leading zero omitted, Abs format (unit mm)*
G04 Created by KiCad (PCBNEW 9.0.5-9.0.5~ubuntu24.04.1) date 2025-12-01 21:58:57*
%MOMM*%
%LPD*%
G01*
G04 APERTURE LIST*
%ADD10C,0.050000*%
%ADD11C,0.200000*%
%ADD12C,0.100000*%
%ADD13C,0.320000*%
G04 APERTURE END LIST*
D10*
X10206000Y-4500000D02*
X19206000Y-4500000D01*
X19706000Y-5000000D02*
X19706000Y-14000000D01*
X10206000Y-14500000D02*
G75*
G02*
X9706000Y-14000000I0J500000D01*
G01*
X19706000Y-14000000D02*
G75*
G02*
X19206000Y-14500000I-500000J0D01*
G01*
X9706000Y-5000000D02*
G75*
G02*
X10206000Y-4500000I500000J0D01*
G01*
X9706000Y-5000000D02*
X9706000Y-14000000D01*
X19206000Y-14500000D02*
X10206000Y-14500000D01*
X19206000Y-4500000D02*
G75*
G02*
X19706000Y-5000000I0J-500000D01*
G01*
D11*
D12*
X10712000Y-14022000D02*
X10742000Y-14052000D01*
X10742000Y-14022000D02*
X10712000Y-14052000D01*
X10728000Y-13827000D02*
X10758000Y-13857000D01*
X10758000Y-13827000D02*
X10728000Y-13857000D01*
X10864000Y-14170000D02*
X10894000Y-14200000D01*
X10894000Y-14170000D02*
X10864000Y-14200000D01*
X10869000Y-13708000D02*
X10899000Y-13738000D01*
X10899000Y-13708000D02*
X10869000Y-13738000D01*
X11011000Y-13830000D02*
X11041000Y-13860000D01*
X11041000Y-13830000D02*
X11011000Y-13860000D01*
X11031000Y-14084000D02*
X11061000Y-14114000D01*
X11061000Y-14084000D02*
X11031000Y-14114000D01*
X11214000Y-13652000D02*
X11244000Y-13682000D01*
X11244000Y-13652000D02*
X11214000Y-13682000D01*
X11216000Y-14238000D02*
X11246000Y-14268000D01*
X11246000Y-14238000D02*
X11216000Y-14268000D01*
X11372000Y-13783000D02*
X11402000Y-13813000D01*
X11402000Y-13783000D02*
X11372000Y-13813000D01*
X11405000Y-7705000D02*
X11435000Y-7735000D01*
X11435000Y-7705000D02*
X11405000Y-7735000D01*
X11407000Y-14084000D02*
X11437000Y-14114000D01*
X11437000Y-14084000D02*
X11407000Y-14114000D01*
X12220000Y-8195000D02*
X12250000Y-8225000D01*
X12250000Y-8195000D02*
X12220000Y-8225000D01*
X12235000Y-11740000D02*
X12265000Y-11770000D01*
X12265000Y-11740000D02*
X12235000Y-11770000D01*
X12335000Y-13705000D02*
X12365000Y-13735000D01*
X12365000Y-13705000D02*
X12335000Y-13735000D01*
X12415000Y-7945000D02*
X12445000Y-7975000D01*
X12445000Y-7945000D02*
X12415000Y-7975000D01*
X12420000Y-12005000D02*
X12450000Y-12035000D01*
X12450000Y-12005000D02*
X12420000Y-12035000D01*
X12665000Y-8195000D02*
X12695000Y-8225000D01*
X12695000Y-8195000D02*
X12665000Y-8225000D01*
X12680000Y-11745000D02*
X12710000Y-11775000D01*
X12710000Y-11745000D02*
X12680000Y-11775000D01*
X12685000Y-13885000D02*
X12715000Y-13915000D01*
X12715000Y-13885000D02*
X12685000Y-13915000D01*
X12802000Y-11997000D02*
X12832000Y-12027000D01*
X12832000Y-11997000D02*
X12802000Y-12027000D01*
X12805000Y-7940000D02*
X12835000Y-7970000D01*
X12835000Y-7940000D02*
X12805000Y-7970000D01*
X12885000Y-13825000D02*
X12915000Y-13855000D01*
X12915000Y-13825000D02*
X12885000Y-13855000D01*
X12965000Y-7180000D02*
X12995000Y-7210000D01*
X12995000Y-7180000D02*
X12965000Y-7210000D01*
X13015000Y-13745000D02*
X13045000Y-13775000D01*
X13045000Y-13745000D02*
X13015000Y-13775000D01*
X13030000Y-13525000D02*
X13060000Y-13555000D01*
X13060000Y-13525000D02*
X13030000Y-13555000D01*
X13100000Y-7440000D02*
X13130000Y-7470000D01*
X13130000Y-7440000D02*
X13100000Y-7470000D01*
X13195000Y-13535000D02*
X13225000Y-13565000D01*
X13225000Y-13535000D02*
X13195000Y-13565000D01*
X13280000Y-6555000D02*
X13310000Y-6585000D01*
X13310000Y-6555000D02*
X13280000Y-6585000D01*
X13285000Y-10980000D02*
X13315000Y-11010000D01*
X13315000Y-10980000D02*
X13285000Y-11010000D01*
X13385000Y-13570000D02*
X13415000Y-13600000D01*
X13415000Y-13570000D02*
X13385000Y-13600000D01*
X13450000Y-6445000D02*
X13480000Y-6475000D01*
X13480000Y-6445000D02*
X13450000Y-6475000D01*
X13450000Y-11235000D02*
X13480000Y-11265000D01*
X13480000Y-11235000D02*
X13450000Y-11265000D01*
X13660000Y-14220000D02*
X13690000Y-14250000D01*
X13690000Y-14220000D02*
X13660000Y-14250000D01*
X13815000Y-5825000D02*
X13845000Y-5855000D01*
X13845000Y-5825000D02*
X13815000Y-5855000D01*
X13940000Y-5420000D02*
X13970000Y-5450000D01*
X13970000Y-5420000D02*
X13940000Y-5450000D01*
X14230000Y-14275000D02*
X14260000Y-14305000D01*
X14260000Y-14275000D02*
X14230000Y-14305000D01*
X14235000Y-13420000D02*
X14265000Y-13450000D01*
X14265000Y-13420000D02*
X14235000Y-13450000D01*
X14300000Y-11220000D02*
X14330000Y-11250000D01*
X14330000Y-11220000D02*
X14300000Y-11250000D01*
X14400000Y-13390000D02*
X14430000Y-13420000D01*
X14430000Y-13390000D02*
X14400000Y-13420000D01*
X14405000Y-13585000D02*
X14435000Y-13615000D01*
X14435000Y-13585000D02*
X14405000Y-13615000D01*
X14445000Y-13855000D02*
X14475000Y-13885000D01*
X14475000Y-13855000D02*
X14445000Y-13885000D01*
X14460000Y-14225950D02*
X14490000Y-14255950D01*
X14490000Y-14225950D02*
X14460000Y-14255950D01*
X14470000Y-10980000D02*
X14500000Y-11010000D01*
X14500000Y-10980000D02*
X14470000Y-11010000D01*
X14520000Y-14175000D02*
X14550000Y-14205000D01*
X14550000Y-14175000D02*
X14520000Y-14205000D01*
X14525000Y-13904050D02*
X14555000Y-13934050D01*
X14555000Y-13904050D02*
X14525000Y-13934050D01*
X14540000Y-13720000D02*
X14570000Y-13750000D01*
X14570000Y-13720000D02*
X14540000Y-13750000D01*
X14590000Y-14125950D02*
X14620000Y-14155950D01*
X14620000Y-14125950D02*
X14590000Y-14155950D01*
X14660000Y-13790000D02*
X14690000Y-13820000D01*
X14690000Y-13790000D02*
X14660000Y-13820000D01*
X14835000Y-6125000D02*
X14865000Y-6155000D01*
X14865000Y-6125000D02*
X14835000Y-6155000D01*
X14950000Y-5950000D02*
X14980000Y-5980000D01*
X14980000Y-5950000D02*
X14950000Y-5980000D01*
X15330000Y-6305000D02*
X15360000Y-6335000D01*
X15360000Y-6305000D02*
X15330000Y-6335000D01*
X15335000Y-10225000D02*
X15365000Y-10255000D01*
X15365000Y-10225000D02*
X15335000Y-10255000D01*
X15470000Y-10720000D02*
X15500000Y-10750000D01*
X15500000Y-10720000D02*
X15470000Y-10750000D01*
X15475000Y-6910000D02*
X15505000Y-6940000D01*
X15505000Y-6910000D02*
X15475000Y-6940000D01*
X15495000Y-13725000D02*
X15525000Y-13755000D01*
X15525000Y-13725000D02*
X15495000Y-13755000D01*
X15500000Y-14005000D02*
X15530000Y-14035000D01*
X15530000Y-14005000D02*
X15500000Y-14035000D01*
X15550000Y-12690000D02*
X15580000Y-12720000D01*
X15580000Y-12690000D02*
X15550000Y-12720000D01*
X15590000Y-5695000D02*
X15620000Y-5725000D01*
X15620000Y-5695000D02*
X15590000Y-5725000D01*
X15745000Y-10465000D02*
X15775000Y-10495000D01*
X15775000Y-10465000D02*
X15745000Y-10495000D01*
X15760000Y-5575000D02*
X15790000Y-5605000D01*
X15790000Y-5575000D02*
X15760000Y-5605000D01*
X15760000Y-6700000D02*
X15790000Y-6730000D01*
X15790000Y-6700000D02*
X15760000Y-6730000D01*
X15830000Y-13805000D02*
X15860000Y-13835000D01*
X15860000Y-13805000D02*
X15830000Y-13835000D01*
X16100000Y-13980000D02*
X16130000Y-14010000D01*
X16130000Y-13980000D02*
X16100000Y-14010000D01*
X16260000Y-13980000D02*
X16290000Y-14010000D01*
X16290000Y-13980000D02*
X16260000Y-14010000D01*
X16325000Y-12680000D02*
X16355000Y-12710000D01*
X16355000Y-12680000D02*
X16325000Y-12710000D01*
X16655000Y-6445000D02*
X16685000Y-6475000D01*
X16685000Y-6445000D02*
X16655000Y-6475000D01*
X16800000Y-6575000D02*
X16830000Y-6605000D01*
X16830000Y-6575000D02*
X16800000Y-6605000D01*
X17060000Y-12685000D02*
X17090000Y-12715000D01*
X17090000Y-12685000D02*
X17060000Y-12715000D01*
X17170000Y-7420000D02*
X17200000Y-7450000D01*
X17200000Y-7420000D02*
X17170000Y-7450000D01*
X17300000Y-7180000D02*
X17330000Y-7210000D01*
X17330000Y-7180000D02*
X17300000Y-7210000D01*
X17620000Y-14140000D02*
X17650000Y-14170000D01*
X17650000Y-14140000D02*
X17620000Y-14170000D01*
X17630000Y-6125000D02*
X17660000Y-6155000D01*
X17660000Y-6125000D02*
X17630000Y-6155000D01*
X17630000Y-7430000D02*
X17660000Y-7460000D01*
X17660000Y-7430000D02*
X17630000Y-7460000D01*
X17675000Y-5830000D02*
X17705000Y-5860000D01*
X17705000Y-5830000D02*
X17675000Y-5860000D01*
X17795000Y-5420000D02*
X17825000Y-5450000D01*
X17825000Y-5420000D02*
X17795000Y-5450000D01*
X17800000Y-12680000D02*
X17830000Y-12710000D01*
X17830000Y-12680000D02*
X17800000Y-12710000D01*
X17850000Y-5960000D02*
X17880000Y-5990000D01*
X17880000Y-5960000D02*
X17850000Y-5990000D01*
X17860000Y-7175000D02*
X17890000Y-7205000D01*
X17890000Y-7175000D02*
X17860000Y-7205000D01*
X18120000Y-7700000D02*
X18150000Y-7730000D01*
X18150000Y-7700000D02*
X18120000Y-7730000D01*
X18120000Y-10465000D02*
X18150000Y-10495000D01*
X18150000Y-10465000D02*
X18120000Y-10495000D01*
X18130000Y-6675000D02*
X18160000Y-6705000D01*
X18160000Y-6675000D02*
X18130000Y-6705000D01*
X18185000Y-14220000D02*
X18215000Y-14250000D01*
X18215000Y-14220000D02*
X18185000Y-14250000D01*
X18190000Y-6305000D02*
X18220000Y-6335000D01*
X18220000Y-6305000D02*
X18190000Y-6335000D01*
X18290000Y-6910000D02*
X18320000Y-6940000D01*
X18320000Y-6910000D02*
X18290000Y-6940000D01*
X18315000Y-14275000D02*
X18345000Y-14305000D01*
X18345000Y-14275000D02*
X18315000Y-14305000D01*
X18439000Y-5710000D02*
X18469000Y-5740000D01*
X18469000Y-5710000D02*
X18439000Y-5740000D01*
X18440000Y-6405000D02*
X18470000Y-6435000D01*
X18470000Y-6405000D02*
X18440000Y-6435000D01*
X18450000Y-10215000D02*
X18480000Y-10245000D01*
X18480000Y-10215000D02*
X18450000Y-10245000D01*
X18465000Y-11570000D02*
X18495000Y-11600000D01*
X18495000Y-11570000D02*
X18465000Y-11600000D01*
X18565000Y-7840000D02*
X18595000Y-7870000D01*
X18595000Y-7840000D02*
X18565000Y-7870000D01*
X18590000Y-5580000D02*
X18620000Y-5610000D01*
X18620000Y-5580000D02*
X18590000Y-5610000D01*
X18645000Y-11825000D02*
X18675000Y-11855000D01*
X18675000Y-11825000D02*
X18645000Y-11855000D01*
X18665000Y-11335000D02*
X18695000Y-11365000D01*
X18695000Y-11335000D02*
X18665000Y-11365000D01*
X18700000Y-8040000D02*
X18730000Y-8070000D01*
X18730000Y-8040000D02*
X18700000Y-8070000D01*
X18730000Y-7610000D02*
X18760000Y-7640000D01*
X18760000Y-7610000D02*
X18730000Y-7640000D01*
X18775000Y-11175000D02*
X18805000Y-11205000D01*
X18805000Y-11175000D02*
X18775000Y-11205000D01*
X18840000Y-7495000D02*
X18870000Y-7525000D01*
X18870000Y-7495000D02*
X18840000Y-7525000D01*
X18990000Y-10473000D02*
X19020000Y-10503000D01*
X19020000Y-10473000D02*
X18990000Y-10503000D01*
X19000000Y-10720000D02*
X19030000Y-10750000D01*
X19030000Y-10720000D02*
X19000000Y-10750000D01*
X19070000Y-11570000D02*
X19100000Y-11600000D01*
X19100000Y-11570000D02*
X19070000Y-11600000D01*
X19075000Y-11345000D02*
X19105000Y-11375000D01*
X19105000Y-11345000D02*
X19075000Y-11375000D01*
X19115000Y-7620000D02*
X19145000Y-7650000D01*
X19145000Y-7620000D02*
X19115000Y-7650000D01*
X19125000Y-7750000D02*
X19155000Y-7780000D01*
X19155000Y-7750000D02*
X19125000Y-7780000D01*
X19130000Y-6673000D02*
X19160000Y-6703000D01*
X19160000Y-6673000D02*
X19130000Y-6703000D01*
X19135000Y-6925000D02*
X19165000Y-6955000D01*
X19165000Y-6925000D02*
X19135000Y-6955000D01*
X11026000Y-6434000D02*
G75*
G02*
X10946000Y-6434000I-40000J0D01*
G01*
X10946000Y-6434000D02*
G75*
G02*
X11026000Y-6434000I40000J0D01*
G01*
X11026000Y-6688000D02*
G75*
G02*
X10946000Y-6688000I-40000J0D01*
G01*
X10946000Y-6688000D02*
G75*
G02*
X11026000Y-6688000I40000J0D01*
G01*
X11026000Y-6942000D02*
G75*
G02*
X10946000Y-6942000I-40000J0D01*
G01*
X10946000Y-6942000D02*
G75*
G02*
X11026000Y-6942000I40000J0D01*
G01*
X11026000Y-7196000D02*
G75*
G02*
X10946000Y-7196000I-40000J0D01*
G01*
X10946000Y-7196000D02*
G75*
G02*
X11026000Y-7196000I40000J0D01*
G01*
X11026000Y-7450000D02*
G75*
G02*
X10946000Y-7450000I-40000J0D01*
G01*
X10946000Y-7450000D02*
G75*
G02*
X11026000Y-7450000I40000J0D01*
G01*
X11026000Y-7704000D02*
G75*
G02*
X10946000Y-7704000I-40000J0D01*
G01*
X10946000Y-7704000D02*
G75*
G02*
X11026000Y-7704000I40000J0D01*
G01*
X11026000Y-7958000D02*
G75*
G02*
X10946000Y-7958000I-40000J0D01*
G01*
X10946000Y-7958000D02*
G75*
G02*
X11026000Y-7958000I40000J0D01*
G01*
X11026000Y-8212000D02*
G75*
G02*
X10946000Y-8212000I-40000J0D01*
G01*
X10946000Y-8212000D02*
G75*
G02*
X11026000Y-8212000I40000J0D01*
G01*
X11026000Y-10234000D02*
G75*
G02*
X10946000Y-10234000I-40000J0D01*
G01*
X10946000Y-10234000D02*
G75*
G02*
X11026000Y-10234000I40000J0D01*
G01*
X11026000Y-10488000D02*
G75*
G02*
X10946000Y-10488000I-40000J0D01*
G01*
X10946000Y-10488000D02*
G75*
G02*
X11026000Y-10488000I40000J0D01*
G01*
X11026000Y-10742000D02*
G75*
G02*
X10946000Y-10742000I-40000J0D01*
G01*
X10946000Y-10742000D02*
G75*
G02*
X11026000Y-10742000I40000J0D01*
G01*
X11026000Y-10996000D02*
G75*
G02*
X10946000Y-10996000I-40000J0D01*
G01*
X10946000Y-10996000D02*
G75*
G02*
X11026000Y-10996000I40000J0D01*
G01*
X11026000Y-11250000D02*
G75*
G02*
X10946000Y-11250000I-40000J0D01*
G01*
X10946000Y-11250000D02*
G75*
G02*
X11026000Y-11250000I40000J0D01*
G01*
X11026000Y-11504000D02*
G75*
G02*
X10946000Y-11504000I-40000J0D01*
G01*
X10946000Y-11504000D02*
G75*
G02*
X11026000Y-11504000I40000J0D01*
G01*
X11026000Y-11758000D02*
G75*
G02*
X10946000Y-11758000I-40000J0D01*
G01*
X10946000Y-11758000D02*
G75*
G02*
X11026000Y-11758000I40000J0D01*
G01*
X11026000Y-12012000D02*
G75*
G02*
X10946000Y-12012000I-40000J0D01*
G01*
X10946000Y-12012000D02*
G75*
G02*
X11026000Y-12012000I40000J0D01*
G01*
X19408000Y-6434000D02*
G75*
G02*
X19328000Y-6434000I-40000J0D01*
G01*
X19328000Y-6434000D02*
G75*
G02*
X19408000Y-6434000I40000J0D01*
G01*
X19408000Y-6688000D02*
G75*
G02*
X19328000Y-6688000I-40000J0D01*
G01*
X19328000Y-6688000D02*
G75*
G02*
X19408000Y-6688000I40000J0D01*
G01*
X19408000Y-6942000D02*
G75*
G02*
X19328000Y-6942000I-40000J0D01*
G01*
X19328000Y-6942000D02*
G75*
G02*
X19408000Y-6942000I40000J0D01*
G01*
X19408000Y-7196000D02*
G75*
G02*
X19328000Y-7196000I-40000J0D01*
G01*
X19328000Y-7196000D02*
G75*
G02*
X19408000Y-7196000I40000J0D01*
G01*
X19408000Y-7450000D02*
G75*
G02*
X19328000Y-7450000I-40000J0D01*
G01*
X19328000Y-7450000D02*
G75*
G02*
X19408000Y-7450000I40000J0D01*
G01*
X19408000Y-7704000D02*
G75*
G02*
X19328000Y-7704000I-40000J0D01*
G01*
X19328000Y-7704000D02*
G75*
G02*
X19408000Y-7704000I40000J0D01*
G01*
X19408000Y-7958000D02*
G75*
G02*
X19328000Y-7958000I-40000J0D01*
G01*
X19328000Y-7958000D02*
G75*
G02*
X19408000Y-7958000I40000J0D01*
G01*
X19408000Y-8212000D02*
G75*
G02*
X19328000Y-8212000I-40000J0D01*
G01*
X19328000Y-8212000D02*
G75*
G02*
X19408000Y-8212000I40000J0D01*
G01*
X19408000Y-10234000D02*
G75*
G02*
X19328000Y-10234000I-40000J0D01*
G01*
X19328000Y-10234000D02*
G75*
G02*
X19408000Y-10234000I40000J0D01*
G01*
X19408000Y-10488000D02*
G75*
G02*
X19328000Y-10488000I-40000J0D01*
G01*
X19328000Y-10488000D02*
G75*
G02*
X19408000Y-10488000I40000J0D01*
G01*
X19408000Y-10742000D02*
G75*
G02*
X19328000Y-10742000I-40000J0D01*
G01*
X19328000Y-10742000D02*
G75*
G02*
X19408000Y-10742000I40000J0D01*
G01*
X19408000Y-10996000D02*
G75*
G02*
X19328000Y-10996000I-40000J0D01*
G01*
X19328000Y-10996000D02*
G75*
G02*
X19408000Y-10996000I40000J0D01*
G01*
X19408000Y-11250000D02*
G75*
G02*
X19328000Y-11250000I-40000J0D01*
G01*
X19328000Y-11250000D02*
G75*
G02*
X19408000Y-11250000I40000J0D01*
G01*
X19408000Y-11504000D02*
G75*
G02*
X19328000Y-11504000I-40000J0D01*
G01*
X19328000Y-11504000D02*
G75*
G02*
X19408000Y-11504000I40000J0D01*
G01*
X19408000Y-11758000D02*
G75*
G02*
X19328000Y-11758000I-40000J0D01*
G01*
X19328000Y-11758000D02*
G75*
G02*
X19408000Y-11758000I40000J0D01*
G01*
X19408000Y-12012000D02*
G75*
G02*
X19328000Y-12012000I-40000J0D01*
G01*
X19328000Y-12012000D02*
G75*
G02*
X19408000Y-12012000I40000J0D01*
G01*
X15696000Y-13694441D02*
X15696000Y-13779441D01*
X15653500Y-13736941D02*
X15738500Y-13736941D01*
X15696000Y-13948441D02*
X15696000Y-14033441D01*
X15653500Y-13990941D02*
X15738500Y-13990941D01*
X15950000Y-13694441D02*
X15950000Y-13779441D01*
X15907500Y-13736941D02*
X15992500Y-13736941D01*
X15950000Y-13948441D02*
X15950000Y-14033441D01*
X15907500Y-13990941D02*
X15992500Y-13990941D01*
X16446000Y-13694441D02*
X16446000Y-13779441D01*
X16403500Y-13736941D02*
X16488500Y-13736941D01*
X16446000Y-13948441D02*
X16446000Y-14033441D01*
X16403500Y-13990941D02*
X16488500Y-13990941D01*
X16700000Y-13694441D02*
X16700000Y-13779441D01*
X16657500Y-13736941D02*
X16742500Y-13736941D01*
X16700000Y-13948441D02*
X16700000Y-14033441D01*
X16657500Y-13990941D02*
X16742500Y-13990941D01*
X17196000Y-13694441D02*
X17196000Y-13779441D01*
X17153500Y-13736941D02*
X17238500Y-13736941D01*
X17196000Y-13948441D02*
X17196000Y-14033441D01*
X17153500Y-13990941D02*
X17238500Y-13990941D01*
X17450000Y-13694441D02*
X17450000Y-13779441D01*
X17407500Y-13736941D02*
X17492500Y-13736941D01*
X17450000Y-13948441D02*
X17450000Y-14033441D01*
X17407500Y-13990941D02*
X17492500Y-13990941D01*
X17942984Y-13694441D02*
X17942984Y-13779441D01*
X17900484Y-13736941D02*
X17985484Y-13736941D01*
X17942984Y-13948441D02*
X17942984Y-14033441D01*
X17900484Y-13990941D02*
X17985484Y-13990941D01*
X18196984Y-13694441D02*
X18196984Y-13779441D01*
X18154484Y-13736941D02*
X18239484Y-13736941D01*
X18196984Y-13948441D02*
X18196984Y-14033441D01*
X18154484Y-13990941D02*
X18239484Y-13990941D01*
X10116356Y-5597856D02*
X10116356Y-5527144D01*
X10045644Y-5527144D01*
X10045644Y-5597856D01*
X10116356Y-5597856D01*
X10116356Y-5851856D02*
X10116356Y-5781144D01*
X10045644Y-5781144D01*
X10045644Y-5851856D01*
X10116356Y-5851856D01*
X10116356Y-6105856D02*
X10116356Y-6035144D01*
X10045644Y-6035144D01*
X10045644Y-6105856D01*
X10116356Y-6105856D01*
X10116356Y-6359856D02*
X10116356Y-6289144D01*
X10045644Y-6289144D01*
X10045644Y-6359856D01*
X10116356Y-6359856D01*
X10116356Y-6613856D02*
X10116356Y-6543144D01*
X10045644Y-6543144D01*
X10045644Y-6613856D01*
X10116356Y-6613856D01*
X10116356Y-6867856D02*
X10116356Y-6797144D01*
X10045644Y-6797144D01*
X10045644Y-6867856D01*
X10116356Y-6867856D01*
X10116356Y-7121856D02*
X10116356Y-7051144D01*
X10045644Y-7051144D01*
X10045644Y-7121856D01*
X10116356Y-7121856D01*
X10116356Y-7375856D02*
X10116356Y-7305144D01*
X10045644Y-7305144D01*
X10045644Y-7375856D01*
X10116356Y-7375856D01*
X10116356Y-7629856D02*
X10116356Y-7559144D01*
X10045644Y-7559144D01*
X10045644Y-7629856D01*
X10116356Y-7629856D01*
X10116356Y-7883856D02*
X10116356Y-7813144D01*
X10045644Y-7813144D01*
X10045644Y-7883856D01*
X10116356Y-7883856D01*
X10116356Y-8137856D02*
X10116356Y-8067144D01*
X10045644Y-8067144D01*
X10045644Y-8137856D01*
X10116356Y-8137856D01*
X10116356Y-8391856D02*
X10116356Y-8321144D01*
X10045644Y-8321144D01*
X10045644Y-8391856D01*
X10116356Y-8391856D01*
X10116356Y-8645856D02*
X10116356Y-8575144D01*
X10045644Y-8575144D01*
X10045644Y-8645856D01*
X10116356Y-8645856D01*
X10116356Y-8899856D02*
X10116356Y-8829144D01*
X10045644Y-8829144D01*
X10045644Y-8899856D01*
X10116356Y-8899856D01*
X10116356Y-9153856D02*
X10116356Y-9083144D01*
X10045644Y-9083144D01*
X10045644Y-9153856D01*
X10116356Y-9153856D01*
X10116356Y-9407856D02*
X10116356Y-9337144D01*
X10045644Y-9337144D01*
X10045644Y-9407856D01*
X10116356Y-9407856D01*
X10116356Y-9661856D02*
X10116356Y-9591144D01*
X10045644Y-9591144D01*
X10045644Y-9661856D01*
X10116356Y-9661856D01*
X10116356Y-9915856D02*
X10116356Y-9845144D01*
X10045644Y-9845144D01*
X10045644Y-9915856D01*
X10116356Y-9915856D01*
X10116356Y-10169856D02*
X10116356Y-10099144D01*
X10045644Y-10099144D01*
X10045644Y-10169856D01*
X10116356Y-10169856D01*
X10116356Y-10423856D02*
X10116356Y-10353144D01*
X10045644Y-10353144D01*
X10045644Y-10423856D01*
X10116356Y-10423856D01*
X10116356Y-10677856D02*
X10116356Y-10607144D01*
X10045644Y-10607144D01*
X10045644Y-10677856D01*
X10116356Y-10677856D01*
X10116356Y-10931856D02*
X10116356Y-10861144D01*
X10045644Y-10861144D01*
X10045644Y-10931856D01*
X10116356Y-10931856D01*
X10116356Y-11185856D02*
X10116356Y-11115144D01*
X10045644Y-11115144D01*
X10045644Y-11185856D01*
X10116356Y-11185856D01*
X10116356Y-11439856D02*
X10116356Y-11369144D01*
X10045644Y-11369144D01*
X10045644Y-11439856D01*
X10116356Y-11439856D01*
X10116356Y-11693856D02*
X10116356Y-11623144D01*
X10045644Y-11623144D01*
X10045644Y-11693856D01*
X10116356Y-11693856D01*
X10116356Y-11947856D02*
X10116356Y-11877144D01*
X10045644Y-11877144D01*
X10045644Y-11947856D01*
X10116356Y-11947856D01*
X10116356Y-12201856D02*
X10116356Y-12131144D01*
X10045644Y-12131144D01*
X10045644Y-12201856D01*
X10116356Y-12201856D01*
X10116356Y-12455856D02*
X10116356Y-12385144D01*
X10045644Y-12385144D01*
X10045644Y-12455856D01*
X10116356Y-12455856D01*
X10116356Y-12709856D02*
X10116356Y-12639144D01*
X10045644Y-12639144D01*
X10045644Y-12709856D01*
X10116356Y-12709856D01*
X10116356Y-12963856D02*
X10116356Y-12893144D01*
X10045644Y-12893144D01*
X10045644Y-12963856D01*
X10116356Y-12963856D01*
X10116356Y-13217856D02*
X10116356Y-13147144D01*
X10045644Y-13147144D01*
X10045644Y-13217856D01*
X10116356Y-13217856D01*
X10116356Y-13471856D02*
X10116356Y-13401144D01*
X10045644Y-13401144D01*
X10045644Y-13471856D01*
X10116356Y-13471856D01*
X10370356Y-5597856D02*
X10370356Y-5527144D01*
X10299644Y-5527144D01*
X10299644Y-5597856D01*
X10370356Y-5597856D01*
X10370356Y-5851856D02*
X10370356Y-5781144D01*
X10299644Y-5781144D01*
X10299644Y-5851856D01*
X10370356Y-5851856D01*
X10370356Y-6105856D02*
X10370356Y-6035144D01*
X10299644Y-6035144D01*
X10299644Y-6105856D01*
X10370356Y-6105856D01*
X10370356Y-6359856D02*
X10370356Y-6289144D01*
X10299644Y-6289144D01*
X10299644Y-6359856D01*
X10370356Y-6359856D01*
X10370356Y-6613856D02*
X10370356Y-6543144D01*
X10299644Y-6543144D01*
X10299644Y-6613856D01*
X10370356Y-6613856D01*
X10370356Y-6867856D02*
X10370356Y-6797144D01*
X10299644Y-6797144D01*
X10299644Y-6867856D01*
X10370356Y-6867856D01*
X10370356Y-7121856D02*
X10370356Y-7051144D01*
X10299644Y-7051144D01*
X10299644Y-7121856D01*
X10370356Y-7121856D01*
X10370356Y-7375856D02*
X10370356Y-7305144D01*
X10299644Y-7305144D01*
X10299644Y-7375856D01*
X10370356Y-7375856D01*
X10370356Y-7629856D02*
X10370356Y-7559144D01*
X10299644Y-7559144D01*
X10299644Y-7629856D01*
X10370356Y-7629856D01*
X10370356Y-7883856D02*
X10370356Y-7813144D01*
X10299644Y-7813144D01*
X10299644Y-7883856D01*
X10370356Y-7883856D01*
X10370356Y-8137856D02*
X10370356Y-8067144D01*
X10299644Y-8067144D01*
X10299644Y-8137856D01*
X10370356Y-8137856D01*
X10370356Y-8391856D02*
X10370356Y-8321144D01*
X10299644Y-8321144D01*
X10299644Y-8391856D01*
X10370356Y-8391856D01*
X10370356Y-8645856D02*
X10370356Y-8575144D01*
X10299644Y-8575144D01*
X10299644Y-8645856D01*
X10370356Y-8645856D01*
X10370356Y-8899856D02*
X10370356Y-8829144D01*
X10299644Y-8829144D01*
X10299644Y-8899856D01*
X10370356Y-8899856D01*
X10370356Y-9153856D02*
X10370356Y-9083144D01*
X10299644Y-9083144D01*
X10299644Y-9153856D01*
X10370356Y-9153856D01*
X10370356Y-9407856D02*
X10370356Y-9337144D01*
X10299644Y-9337144D01*
X10299644Y-9407856D01*
X10370356Y-9407856D01*
X10370356Y-9661856D02*
X10370356Y-9591144D01*
X10299644Y-9591144D01*
X10299644Y-9661856D01*
X10370356Y-9661856D01*
X10370356Y-9915856D02*
X10370356Y-9845144D01*
X10299644Y-9845144D01*
X10299644Y-9915856D01*
X10370356Y-9915856D01*
X10370356Y-10169856D02*
X10370356Y-10099144D01*
X10299644Y-10099144D01*
X10299644Y-10169856D01*
X10370356Y-10169856D01*
X10370356Y-10423856D02*
X10370356Y-10353144D01*
X10299644Y-10353144D01*
X10299644Y-10423856D01*
X10370356Y-10423856D01*
X10370356Y-10677856D02*
X10370356Y-10607144D01*
X10299644Y-10607144D01*
X10299644Y-10677856D01*
X10370356Y-10677856D01*
X10370356Y-10931856D02*
X10370356Y-10861144D01*
X10299644Y-10861144D01*
X10299644Y-10931856D01*
X10370356Y-10931856D01*
X10370356Y-11185856D02*
X10370356Y-11115144D01*
X10299644Y-11115144D01*
X10299644Y-11185856D01*
X10370356Y-11185856D01*
X10370356Y-11439856D02*
X10370356Y-11369144D01*
X10299644Y-11369144D01*
X10299644Y-11439856D01*
X10370356Y-11439856D01*
X10370356Y-11693856D02*
X10370356Y-11623144D01*
X10299644Y-11623144D01*
X10299644Y-11693856D01*
X10370356Y-11693856D01*
X10370356Y-11947856D02*
X10370356Y-11877144D01*
X10299644Y-11877144D01*
X10299644Y-11947856D01*
X10370356Y-11947856D01*
X10370356Y-12201856D02*
X10370356Y-12131144D01*
X10299644Y-12131144D01*
X10299644Y-12201856D01*
X10370356Y-12201856D01*
X10370356Y-12455856D02*
X10370356Y-12385144D01*
X10299644Y-12385144D01*
X10299644Y-12455856D01*
X10370356Y-12455856D01*
X10370356Y-12709856D02*
X10370356Y-12639144D01*
X10299644Y-12639144D01*
X10299644Y-12709856D01*
X10370356Y-12709856D01*
X10370356Y-12963856D02*
X10370356Y-12893144D01*
X10299644Y-12893144D01*
X10299644Y-12963856D01*
X10370356Y-12963856D01*
X10370356Y-13217856D02*
X10370356Y-13147144D01*
X10299644Y-13147144D01*
X10299644Y-13217856D01*
X10370356Y-13217856D01*
X10370356Y-13471856D02*
X10370356Y-13401144D01*
X10299644Y-13401144D01*
X10299644Y-13471856D01*
X10370356Y-13471856D01*
X11197356Y-5555356D02*
X11197356Y-5484644D01*
X11126644Y-5484644D01*
X11126644Y-5555356D01*
X11197356Y-5555356D01*
X11451356Y-5555356D02*
X11451356Y-5484644D01*
X11380644Y-5484644D01*
X11380644Y-5555356D01*
X11451356Y-5555356D01*
X11705356Y-5555356D02*
X11705356Y-5484644D01*
X11634644Y-5484644D01*
X11634644Y-5555356D01*
X11705356Y-5555356D01*
X13856356Y-4957356D02*
X13856356Y-4886644D01*
X13785644Y-4886644D01*
X13785644Y-4957356D01*
X13856356Y-4957356D01*
X13856356Y-5211356D02*
X13856356Y-5140644D01*
X13785644Y-5140644D01*
X13785644Y-5211356D01*
X13856356Y-5211356D01*
X14110356Y-4957356D02*
X14110356Y-4886644D01*
X14039644Y-4886644D01*
X14039644Y-4957356D01*
X14110356Y-4957356D01*
X14110356Y-5211356D02*
X14110356Y-5140644D01*
X14039644Y-5140644D01*
X14039644Y-5211356D01*
X14110356Y-5211356D01*
X14364356Y-4957356D02*
X14364356Y-4886644D01*
X14293644Y-4886644D01*
X14293644Y-4957356D01*
X14364356Y-4957356D01*
X14364356Y-5211356D02*
X14364356Y-5140644D01*
X14293644Y-5140644D01*
X14293644Y-5211356D01*
X14364356Y-5211356D01*
X14618356Y-4957356D02*
X14618356Y-4886644D01*
X14547644Y-4886644D01*
X14547644Y-4957356D01*
X14618356Y-4957356D01*
X14618356Y-5211356D02*
X14618356Y-5140644D01*
X14547644Y-5140644D01*
X14547644Y-5211356D01*
X14618356Y-5211356D01*
X14872356Y-4957356D02*
X14872356Y-4886644D01*
X14801644Y-4886644D01*
X14801644Y-4957356D01*
X14872356Y-4957356D01*
X14872356Y-5211356D02*
X14872356Y-5140644D01*
X14801644Y-5140644D01*
X14801644Y-5211356D01*
X14872356Y-5211356D01*
X15126356Y-4957356D02*
X15126356Y-4886644D01*
X15055644Y-4886644D01*
X15055644Y-4957356D01*
X15126356Y-4957356D01*
X15126356Y-5211356D02*
X15126356Y-5140644D01*
X15055644Y-5140644D01*
X15055644Y-5211356D01*
X15126356Y-5211356D01*
X15380356Y-4957356D02*
X15380356Y-4886644D01*
X15309644Y-4886644D01*
X15309644Y-4957356D01*
X15380356Y-4957356D01*
X15380356Y-5211356D02*
X15380356Y-5140644D01*
X15309644Y-5140644D01*
X15309644Y-5211356D01*
X15380356Y-5211356D01*
X15634356Y-4957356D02*
X15634356Y-4886644D01*
X15563644Y-4886644D01*
X15563644Y-4957356D01*
X15634356Y-4957356D01*
X15634356Y-5211356D02*
X15634356Y-5140644D01*
X15563644Y-5140644D01*
X15563644Y-5211356D01*
X15634356Y-5211356D01*
X16711356Y-4951356D02*
X16711356Y-4880644D01*
X16640644Y-4880644D01*
X16640644Y-4951356D01*
X16711356Y-4951356D01*
X16711356Y-5205356D02*
X16711356Y-5134644D01*
X16640644Y-5134644D01*
X16640644Y-5205356D01*
X16711356Y-5205356D01*
X16965356Y-4951356D02*
X16965356Y-4880644D01*
X16894644Y-4880644D01*
X16894644Y-4951356D01*
X16965356Y-4951356D01*
X16965356Y-5205356D02*
X16965356Y-5134644D01*
X16894644Y-5134644D01*
X16894644Y-5205356D01*
X16965356Y-5205356D01*
X17219356Y-4951356D02*
X17219356Y-4880644D01*
X17148644Y-4880644D01*
X17148644Y-4951356D01*
X17219356Y-4951356D01*
X17219356Y-5205356D02*
X17219356Y-5134644D01*
X17148644Y-5134644D01*
X17148644Y-5205356D01*
X17219356Y-5205356D01*
X17473356Y-4951356D02*
X17473356Y-4880644D01*
X17402644Y-4880644D01*
X17402644Y-4951356D01*
X17473356Y-4951356D01*
X17473356Y-5205356D02*
X17473356Y-5134644D01*
X17402644Y-5134644D01*
X17402644Y-5205356D01*
X17473356Y-5205356D01*
X17727356Y-4951356D02*
X17727356Y-4880644D01*
X17656644Y-4880644D01*
X17656644Y-4951356D01*
X17727356Y-4951356D01*
X17727356Y-5205356D02*
X17727356Y-5134644D01*
X17656644Y-5134644D01*
X17656644Y-5205356D01*
X17727356Y-5205356D01*
X17981356Y-4951356D02*
X17981356Y-4880644D01*
X17910644Y-4880644D01*
X17910644Y-4951356D01*
X17981356Y-4951356D01*
X17981356Y-5205356D02*
X17981356Y-5134644D01*
X17910644Y-5134644D01*
X17910644Y-5205356D01*
X17981356Y-5205356D01*
X18235356Y-4951356D02*
X18235356Y-4880644D01*
X18164644Y-4880644D01*
X18164644Y-4951356D01*
X18235356Y-4951356D01*
X18235356Y-5205356D02*
X18235356Y-5134644D01*
X18164644Y-5134644D01*
X18164644Y-5205356D01*
X18235356Y-5205356D01*
X18489356Y-4951356D02*
X18489356Y-4880644D01*
X18418644Y-4880644D01*
X18418644Y-4951356D01*
X18489356Y-4951356D01*
X18489356Y-5205356D02*
X18489356Y-5134644D01*
X18418644Y-5134644D01*
X18418644Y-5205356D01*
X18489356Y-5205356D01*
D13*
X10206000Y-5160000D02*
X10366000Y-5000000D01*
X10206000Y-4840000D01*
X10046000Y-5000000D01*
X10206000Y-5160000D01*
X10206000Y-14160000D02*
X10366000Y-14000000D01*
X10206000Y-13840000D01*
X10046000Y-14000000D01*
X10206000Y-14160000D01*
X19206000Y-5160000D02*
X19366000Y-5000000D01*
X19206000Y-4840000D01*
X19046000Y-5000000D01*
X19206000Y-5160000D01*
X19206000Y-14160000D02*
X19366000Y-14000000D01*
X19206000Y-13840000D01*
X19046000Y-14000000D01*
X19206000Y-14160000D01*
D11*
X9964277Y-14813984D02*
X9964277Y-14613984D01*
X9964277Y-14613984D02*
X10011896Y-14613984D01*
X10011896Y-14613984D02*
X10040467Y-14623508D01*
X10040467Y-14623508D02*
X10059515Y-14642555D01*
X10059515Y-14642555D02*
X10069039Y-14661603D01*
X10069039Y-14661603D02*
X10078563Y-14699698D01*
X10078563Y-14699698D02*
X10078563Y-14728269D01*
X10078563Y-14728269D02*
X10069039Y-14766365D01*
X10069039Y-14766365D02*
X10059515Y-14785412D01*
X10059515Y-14785412D02*
X10040467Y-14804460D01*
X10040467Y-14804460D02*
X10011896Y-14813984D01*
X10011896Y-14813984D02*
X9964277Y-14813984D01*
X10164277Y-14813984D02*
X10164277Y-14680650D01*
X10164277Y-14718746D02*
X10173801Y-14699698D01*
X10173801Y-14699698D02*
X10183324Y-14690174D01*
X10183324Y-14690174D02*
X10202372Y-14680650D01*
X10202372Y-14680650D02*
X10221420Y-14680650D01*
X10288086Y-14813984D02*
X10288086Y-14680650D01*
X10288086Y-14613984D02*
X10278563Y-14623508D01*
X10278563Y-14623508D02*
X10288086Y-14633031D01*
X10288086Y-14633031D02*
X10297610Y-14623508D01*
X10297610Y-14623508D02*
X10288086Y-14613984D01*
X10288086Y-14613984D02*
X10288086Y-14633031D01*
X10411896Y-14813984D02*
X10392848Y-14804460D01*
X10392848Y-14804460D02*
X10383324Y-14785412D01*
X10383324Y-14785412D02*
X10383324Y-14613984D01*
X10516658Y-14813984D02*
X10497610Y-14804460D01*
X10497610Y-14804460D02*
X10488086Y-14785412D01*
X10488086Y-14785412D02*
X10488086Y-14613984D01*
X10745229Y-14813984D02*
X10745229Y-14613984D01*
X10745229Y-14613984D02*
X10811896Y-14756841D01*
X10811896Y-14756841D02*
X10878563Y-14613984D01*
X10878563Y-14613984D02*
X10878563Y-14813984D01*
X11059515Y-14813984D02*
X11059515Y-14709222D01*
X11059515Y-14709222D02*
X11049991Y-14690174D01*
X11049991Y-14690174D02*
X11030944Y-14680650D01*
X11030944Y-14680650D02*
X10992848Y-14680650D01*
X10992848Y-14680650D02*
X10973801Y-14690174D01*
X11059515Y-14804460D02*
X11040467Y-14813984D01*
X11040467Y-14813984D02*
X10992848Y-14813984D01*
X10992848Y-14813984D02*
X10973801Y-14804460D01*
X10973801Y-14804460D02*
X10964277Y-14785412D01*
X10964277Y-14785412D02*
X10964277Y-14766365D01*
X10964277Y-14766365D02*
X10973801Y-14747317D01*
X10973801Y-14747317D02*
X10992848Y-14737793D01*
X10992848Y-14737793D02*
X11040467Y-14737793D01*
X11040467Y-14737793D02*
X11059515Y-14728269D01*
X11154753Y-14680650D02*
X11154753Y-14880650D01*
X11154753Y-14690174D02*
X11173801Y-14680650D01*
X11173801Y-14680650D02*
X11211896Y-14680650D01*
X11211896Y-14680650D02*
X11230943Y-14690174D01*
X11230943Y-14690174D02*
X11240467Y-14699698D01*
X11240467Y-14699698D02*
X11249991Y-14718746D01*
X11249991Y-14718746D02*
X11249991Y-14775888D01*
X11249991Y-14775888D02*
X11240467Y-14794936D01*
X11240467Y-14794936D02*
X11230943Y-14804460D01*
X11230943Y-14804460D02*
X11211896Y-14813984D01*
X11211896Y-14813984D02*
X11173801Y-14813984D01*
X11173801Y-14813984D02*
X11154753Y-14804460D01*
X11335705Y-14794936D02*
X11345229Y-14804460D01*
X11345229Y-14804460D02*
X11335705Y-14813984D01*
X11335705Y-14813984D02*
X11326182Y-14804460D01*
X11326182Y-14804460D02*
X11335705Y-14794936D01*
X11335705Y-14794936D02*
X11335705Y-14813984D01*
X11335705Y-14690174D02*
X11345229Y-14699698D01*
X11345229Y-14699698D02*
X11335705Y-14709222D01*
X11335705Y-14709222D02*
X11326182Y-14699698D01*
X11326182Y-14699698D02*
X11335705Y-14690174D01*
X11335705Y-14690174D02*
X11335705Y-14709222D01*
D12*
X9673500Y-15127500D02*
X9703500Y-15157500D01*
X9703500Y-15127500D02*
X9673500Y-15157500D01*
D11*
X10002372Y-15033984D02*
X10021420Y-15033984D01*
X10021420Y-15033984D02*
X10040467Y-15043508D01*
X10040467Y-15043508D02*
X10049991Y-15053031D01*
X10049991Y-15053031D02*
X10059515Y-15072079D01*
X10059515Y-15072079D02*
X10069039Y-15110174D01*
X10069039Y-15110174D02*
X10069039Y-15157793D01*
X10069039Y-15157793D02*
X10059515Y-15195888D01*
X10059515Y-15195888D02*
X10049991Y-15214936D01*
X10049991Y-15214936D02*
X10040467Y-15224460D01*
X10040467Y-15224460D02*
X10021420Y-15233984D01*
X10021420Y-15233984D02*
X10002372Y-15233984D01*
X10002372Y-15233984D02*
X9983324Y-15224460D01*
X9983324Y-15224460D02*
X9973801Y-15214936D01*
X9973801Y-15214936D02*
X9964277Y-15195888D01*
X9964277Y-15195888D02*
X9954753Y-15157793D01*
X9954753Y-15157793D02*
X9954753Y-15110174D01*
X9954753Y-15110174D02*
X9964277Y-15072079D01*
X9964277Y-15072079D02*
X9973801Y-15053031D01*
X9973801Y-15053031D02*
X9983324Y-15043508D01*
X9983324Y-15043508D02*
X10002372Y-15033984D01*
X10154753Y-15214936D02*
X10164277Y-15224460D01*
X10164277Y-15224460D02*
X10154753Y-15233984D01*
X10154753Y-15233984D02*
X10145229Y-15224460D01*
X10145229Y-15224460D02*
X10154753Y-15214936D01*
X10154753Y-15214936D02*
X10154753Y-15233984D01*
X10230944Y-15033984D02*
X10354753Y-15033984D01*
X10354753Y-15033984D02*
X10288086Y-15110174D01*
X10288086Y-15110174D02*
X10316658Y-15110174D01*
X10316658Y-15110174D02*
X10335705Y-15119698D01*
X10335705Y-15119698D02*
X10345229Y-15129222D01*
X10345229Y-15129222D02*
X10354753Y-15148269D01*
X10354753Y-15148269D02*
X10354753Y-15195888D01*
X10354753Y-15195888D02*
X10345229Y-15214936D01*
X10345229Y-15214936D02*
X10335705Y-15224460D01*
X10335705Y-15224460D02*
X10316658Y-15233984D01*
X10316658Y-15233984D02*
X10259515Y-15233984D01*
X10259515Y-15233984D02*
X10240467Y-15224460D01*
X10240467Y-15224460D02*
X10230944Y-15214936D01*
X10478563Y-15033984D02*
X10497610Y-15033984D01*
X10497610Y-15033984D02*
X10516658Y-15043508D01*
X10516658Y-15043508D02*
X10526182Y-15053031D01*
X10526182Y-15053031D02*
X10535705Y-15072079D01*
X10535705Y-15072079D02*
X10545229Y-15110174D01*
X10545229Y-15110174D02*
X10545229Y-15157793D01*
X10545229Y-15157793D02*
X10535705Y-15195888D01*
X10535705Y-15195888D02*
X10526182Y-15214936D01*
X10526182Y-15214936D02*
X10516658Y-15224460D01*
X10516658Y-15224460D02*
X10497610Y-15233984D01*
X10497610Y-15233984D02*
X10478563Y-15233984D01*
X10478563Y-15233984D02*
X10459515Y-15224460D01*
X10459515Y-15224460D02*
X10449991Y-15214936D01*
X10449991Y-15214936D02*
X10440467Y-15195888D01*
X10440467Y-15195888D02*
X10430944Y-15157793D01*
X10430944Y-15157793D02*
X10430944Y-15110174D01*
X10430944Y-15110174D02*
X10440467Y-15072079D01*
X10440467Y-15072079D02*
X10449991Y-15053031D01*
X10449991Y-15053031D02*
X10459515Y-15043508D01*
X10459515Y-15043508D02*
X10478563Y-15033984D01*
X10669039Y-15033984D02*
X10688086Y-15033984D01*
X10688086Y-15033984D02*
X10707134Y-15043508D01*
X10707134Y-15043508D02*
X10716658Y-15053031D01*
X10716658Y-15053031D02*
X10726182Y-15072079D01*
X10726182Y-15072079D02*
X10735705Y-15110174D01*
X10735705Y-15110174D02*
X10735705Y-15157793D01*
X10735705Y-15157793D02*
X10726182Y-15195888D01*
X10726182Y-15195888D02*
X10716658Y-15214936D01*
X10716658Y-15214936D02*
X10707134Y-15224460D01*
X10707134Y-15224460D02*
X10688086Y-15233984D01*
X10688086Y-15233984D02*
X10669039Y-15233984D01*
X10669039Y-15233984D02*
X10649991Y-15224460D01*
X10649991Y-15224460D02*
X10640467Y-15214936D01*
X10640467Y-15214936D02*
X10630944Y-15195888D01*
X10630944Y-15195888D02*
X10621420Y-15157793D01*
X10621420Y-15157793D02*
X10621420Y-15110174D01*
X10621420Y-15110174D02*
X10630944Y-15072079D01*
X10630944Y-15072079D02*
X10640467Y-15053031D01*
X10640467Y-15053031D02*
X10649991Y-15043508D01*
X10649991Y-15043508D02*
X10669039Y-15033984D01*
X10821420Y-15233984D02*
X10821420Y-15100650D01*
X10821420Y-15119698D02*
X10830944Y-15110174D01*
X10830944Y-15110174D02*
X10849991Y-15100650D01*
X10849991Y-15100650D02*
X10878563Y-15100650D01*
X10878563Y-15100650D02*
X10897610Y-15110174D01*
X10897610Y-15110174D02*
X10907134Y-15129222D01*
X10907134Y-15129222D02*
X10907134Y-15233984D01*
X10907134Y-15129222D02*
X10916658Y-15110174D01*
X10916658Y-15110174D02*
X10935705Y-15100650D01*
X10935705Y-15100650D02*
X10964277Y-15100650D01*
X10964277Y-15100650D02*
X10983325Y-15110174D01*
X10983325Y-15110174D02*
X10992848Y-15129222D01*
X10992848Y-15129222D02*
X10992848Y-15233984D01*
X11088086Y-15233984D02*
X11088086Y-15100650D01*
X11088086Y-15119698D02*
X11097610Y-15110174D01*
X11097610Y-15110174D02*
X11116658Y-15100650D01*
X11116658Y-15100650D02*
X11145229Y-15100650D01*
X11145229Y-15100650D02*
X11164277Y-15110174D01*
X11164277Y-15110174D02*
X11173801Y-15129222D01*
X11173801Y-15129222D02*
X11173801Y-15233984D01*
X11173801Y-15129222D02*
X11183325Y-15110174D01*
X11183325Y-15110174D02*
X11202372Y-15100650D01*
X11202372Y-15100650D02*
X11230943Y-15100650D01*
X11230943Y-15100650D02*
X11249991Y-15110174D01*
X11249991Y-15110174D02*
X11259515Y-15129222D01*
X11259515Y-15129222D02*
X11259515Y-15233984D01*
X11649991Y-15024460D02*
X11478563Y-15281603D01*
X11907134Y-15033984D02*
X11926182Y-15033984D01*
X11926182Y-15033984D02*
X11945229Y-15043508D01*
X11945229Y-15043508D02*
X11954753Y-15053031D01*
X11954753Y-15053031D02*
X11964277Y-15072079D01*
X11964277Y-15072079D02*
X11973801Y-15110174D01*
X11973801Y-15110174D02*
X11973801Y-15157793D01*
X11973801Y-15157793D02*
X11964277Y-15195888D01*
X11964277Y-15195888D02*
X11954753Y-15214936D01*
X11954753Y-15214936D02*
X11945229Y-15224460D01*
X11945229Y-15224460D02*
X11926182Y-15233984D01*
X11926182Y-15233984D02*
X11907134Y-15233984D01*
X11907134Y-15233984D02*
X11888086Y-15224460D01*
X11888086Y-15224460D02*
X11878563Y-15214936D01*
X11878563Y-15214936D02*
X11869039Y-15195888D01*
X11869039Y-15195888D02*
X11859515Y-15157793D01*
X11859515Y-15157793D02*
X11859515Y-15110174D01*
X11859515Y-15110174D02*
X11869039Y-15072079D01*
X11869039Y-15072079D02*
X11878563Y-15053031D01*
X11878563Y-15053031D02*
X11888086Y-15043508D01*
X11888086Y-15043508D02*
X11907134Y-15033984D01*
X12059515Y-15214936D02*
X12069039Y-15224460D01*
X12069039Y-15224460D02*
X12059515Y-15233984D01*
X12059515Y-15233984D02*
X12049991Y-15224460D01*
X12049991Y-15224460D02*
X12059515Y-15214936D01*
X12059515Y-15214936D02*
X12059515Y-15233984D01*
X12192848Y-15033984D02*
X12211896Y-15033984D01*
X12211896Y-15033984D02*
X12230944Y-15043508D01*
X12230944Y-15043508D02*
X12240467Y-15053031D01*
X12240467Y-15053031D02*
X12249991Y-15072079D01*
X12249991Y-15072079D02*
X12259515Y-15110174D01*
X12259515Y-15110174D02*
X12259515Y-15157793D01*
X12259515Y-15157793D02*
X12249991Y-15195888D01*
X12249991Y-15195888D02*
X12240467Y-15214936D01*
X12240467Y-15214936D02*
X12230944Y-15224460D01*
X12230944Y-15224460D02*
X12211896Y-15233984D01*
X12211896Y-15233984D02*
X12192848Y-15233984D01*
X12192848Y-15233984D02*
X12173801Y-15224460D01*
X12173801Y-15224460D02*
X12164277Y-15214936D01*
X12164277Y-15214936D02*
X12154753Y-15195888D01*
X12154753Y-15195888D02*
X12145229Y-15157793D01*
X12145229Y-15157793D02*
X12145229Y-15110174D01*
X12145229Y-15110174D02*
X12154753Y-15072079D01*
X12154753Y-15072079D02*
X12164277Y-15053031D01*
X12164277Y-15053031D02*
X12173801Y-15043508D01*
X12173801Y-15043508D02*
X12192848Y-15033984D01*
X12449991Y-15233984D02*
X12335706Y-15233984D01*
X12392848Y-15233984D02*
X12392848Y-15033984D01*
X12392848Y-15033984D02*
X12373801Y-15062555D01*
X12373801Y-15062555D02*
X12354753Y-15081603D01*
X12354753Y-15081603D02*
X12335706Y-15091127D01*
X12640467Y-15233984D02*
X12526182Y-15233984D01*
X12583325Y-15233984D02*
X12583325Y-15033984D01*
X12583325Y-15033984D02*
X12564277Y-15062555D01*
X12564277Y-15062555D02*
X12545229Y-15081603D01*
X12545229Y-15081603D02*
X12526182Y-15091127D01*
X12754753Y-15119698D02*
X12735706Y-15110174D01*
X12735706Y-15110174D02*
X12726182Y-15100650D01*
X12726182Y-15100650D02*
X12716658Y-15081603D01*
X12716658Y-15081603D02*
X12716658Y-15072079D01*
X12716658Y-15072079D02*
X12726182Y-15053031D01*
X12726182Y-15053031D02*
X12735706Y-15043508D01*
X12735706Y-15043508D02*
X12754753Y-15033984D01*
X12754753Y-15033984D02*
X12792848Y-15033984D01*
X12792848Y-15033984D02*
X12811896Y-15043508D01*
X12811896Y-15043508D02*
X12821420Y-15053031D01*
X12821420Y-15053031D02*
X12830944Y-15072079D01*
X12830944Y-15072079D02*
X12830944Y-15081603D01*
X12830944Y-15081603D02*
X12821420Y-15100650D01*
X12821420Y-15100650D02*
X12811896Y-15110174D01*
X12811896Y-15110174D02*
X12792848Y-15119698D01*
X12792848Y-15119698D02*
X12754753Y-15119698D01*
X12754753Y-15119698D02*
X12735706Y-15129222D01*
X12735706Y-15129222D02*
X12726182Y-15138746D01*
X12726182Y-15138746D02*
X12716658Y-15157793D01*
X12716658Y-15157793D02*
X12716658Y-15195888D01*
X12716658Y-15195888D02*
X12726182Y-15214936D01*
X12726182Y-15214936D02*
X12735706Y-15224460D01*
X12735706Y-15224460D02*
X12754753Y-15233984D01*
X12754753Y-15233984D02*
X12792848Y-15233984D01*
X12792848Y-15233984D02*
X12811896Y-15224460D01*
X12811896Y-15224460D02*
X12821420Y-15214936D01*
X12821420Y-15214936D02*
X12830944Y-15195888D01*
X12830944Y-15195888D02*
X12830944Y-15157793D01*
X12830944Y-15157793D02*
X12821420Y-15138746D01*
X12821420Y-15138746D02*
X12811896Y-15129222D01*
X12811896Y-15129222D02*
X12792848Y-15119698D01*
X12907134Y-15033984D02*
X12907134Y-15072079D01*
X12983325Y-15033984D02*
X12983325Y-15072079D01*
X13278563Y-15310174D02*
X13269039Y-15300650D01*
X13269039Y-15300650D02*
X13249991Y-15272079D01*
X13249991Y-15272079D02*
X13240468Y-15253031D01*
X13240468Y-15253031D02*
X13230944Y-15224460D01*
X13230944Y-15224460D02*
X13221420Y-15176841D01*
X13221420Y-15176841D02*
X13221420Y-15138746D01*
X13221420Y-15138746D02*
X13230944Y-15091127D01*
X13230944Y-15091127D02*
X13240468Y-15062555D01*
X13240468Y-15062555D02*
X13249991Y-15043508D01*
X13249991Y-15043508D02*
X13269039Y-15014936D01*
X13269039Y-15014936D02*
X13278563Y-15005412D01*
X13459515Y-15233984D02*
X13345229Y-15233984D01*
X13402372Y-15233984D02*
X13402372Y-15033984D01*
X13402372Y-15033984D02*
X13383325Y-15062555D01*
X13383325Y-15062555D02*
X13364277Y-15081603D01*
X13364277Y-15081603D02*
X13345229Y-15091127D01*
X13583325Y-15033984D02*
X13602372Y-15033984D01*
X13602372Y-15033984D02*
X13621420Y-15043508D01*
X13621420Y-15043508D02*
X13630944Y-15053031D01*
X13630944Y-15053031D02*
X13640468Y-15072079D01*
X13640468Y-15072079D02*
X13649991Y-15110174D01*
X13649991Y-15110174D02*
X13649991Y-15157793D01*
X13649991Y-15157793D02*
X13640468Y-15195888D01*
X13640468Y-15195888D02*
X13630944Y-15214936D01*
X13630944Y-15214936D02*
X13621420Y-15224460D01*
X13621420Y-15224460D02*
X13602372Y-15233984D01*
X13602372Y-15233984D02*
X13583325Y-15233984D01*
X13583325Y-15233984D02*
X13564277Y-15224460D01*
X13564277Y-15224460D02*
X13554753Y-15214936D01*
X13554753Y-15214936D02*
X13545229Y-15195888D01*
X13545229Y-15195888D02*
X13535706Y-15157793D01*
X13535706Y-15157793D02*
X13535706Y-15110174D01*
X13535706Y-15110174D02*
X13545229Y-15072079D01*
X13545229Y-15072079D02*
X13554753Y-15053031D01*
X13554753Y-15053031D02*
X13564277Y-15043508D01*
X13564277Y-15043508D02*
X13583325Y-15033984D01*
X13830944Y-15033984D02*
X13735706Y-15033984D01*
X13735706Y-15033984D02*
X13726182Y-15129222D01*
X13726182Y-15129222D02*
X13735706Y-15119698D01*
X13735706Y-15119698D02*
X13754753Y-15110174D01*
X13754753Y-15110174D02*
X13802372Y-15110174D01*
X13802372Y-15110174D02*
X13821420Y-15119698D01*
X13821420Y-15119698D02*
X13830944Y-15129222D01*
X13830944Y-15129222D02*
X13840468Y-15148269D01*
X13840468Y-15148269D02*
X13840468Y-15195888D01*
X13840468Y-15195888D02*
X13830944Y-15214936D01*
X13830944Y-15214936D02*
X13821420Y-15224460D01*
X13821420Y-15224460D02*
X13802372Y-15233984D01*
X13802372Y-15233984D02*
X13754753Y-15233984D01*
X13754753Y-15233984D02*
X13735706Y-15224460D01*
X13735706Y-15224460D02*
X13726182Y-15214936D01*
X14078563Y-15233984D02*
X14078563Y-15033984D01*
X14164277Y-15233984D02*
X14164277Y-15129222D01*
X14164277Y-15129222D02*
X14154753Y-15110174D01*
X14154753Y-15110174D02*
X14135706Y-15100650D01*
X14135706Y-15100650D02*
X14107134Y-15100650D01*
X14107134Y-15100650D02*
X14088087Y-15110174D01*
X14088087Y-15110174D02*
X14078563Y-15119698D01*
X14288087Y-15233984D02*
X14269039Y-15224460D01*
X14269039Y-15224460D02*
X14259515Y-15214936D01*
X14259515Y-15214936D02*
X14249991Y-15195888D01*
X14249991Y-15195888D02*
X14249991Y-15138746D01*
X14249991Y-15138746D02*
X14259515Y-15119698D01*
X14259515Y-15119698D02*
X14269039Y-15110174D01*
X14269039Y-15110174D02*
X14288087Y-15100650D01*
X14288087Y-15100650D02*
X14316658Y-15100650D01*
X14316658Y-15100650D02*
X14335706Y-15110174D01*
X14335706Y-15110174D02*
X14345230Y-15119698D01*
X14345230Y-15119698D02*
X14354753Y-15138746D01*
X14354753Y-15138746D02*
X14354753Y-15195888D01*
X14354753Y-15195888D02*
X14345230Y-15214936D01*
X14345230Y-15214936D02*
X14335706Y-15224460D01*
X14335706Y-15224460D02*
X14316658Y-15233984D01*
X14316658Y-15233984D02*
X14288087Y-15233984D01*
X14469039Y-15233984D02*
X14449991Y-15224460D01*
X14449991Y-15224460D02*
X14440468Y-15205412D01*
X14440468Y-15205412D02*
X14440468Y-15033984D01*
X14621420Y-15224460D02*
X14602372Y-15233984D01*
X14602372Y-15233984D02*
X14564277Y-15233984D01*
X14564277Y-15233984D02*
X14545230Y-15224460D01*
X14545230Y-15224460D02*
X14535706Y-15205412D01*
X14535706Y-15205412D02*
X14535706Y-15129222D01*
X14535706Y-15129222D02*
X14545230Y-15110174D01*
X14545230Y-15110174D02*
X14564277Y-15100650D01*
X14564277Y-15100650D02*
X14602372Y-15100650D01*
X14602372Y-15100650D02*
X14621420Y-15110174D01*
X14621420Y-15110174D02*
X14630944Y-15129222D01*
X14630944Y-15129222D02*
X14630944Y-15148269D01*
X14630944Y-15148269D02*
X14535706Y-15167317D01*
X14707134Y-15224460D02*
X14726182Y-15233984D01*
X14726182Y-15233984D02*
X14764277Y-15233984D01*
X14764277Y-15233984D02*
X14783325Y-15224460D01*
X14783325Y-15224460D02*
X14792849Y-15205412D01*
X14792849Y-15205412D02*
X14792849Y-15195888D01*
X14792849Y-15195888D02*
X14783325Y-15176841D01*
X14783325Y-15176841D02*
X14764277Y-15167317D01*
X14764277Y-15167317D02*
X14735706Y-15167317D01*
X14735706Y-15167317D02*
X14716658Y-15157793D01*
X14716658Y-15157793D02*
X14707134Y-15138746D01*
X14707134Y-15138746D02*
X14707134Y-15129222D01*
X14707134Y-15129222D02*
X14716658Y-15110174D01*
X14716658Y-15110174D02*
X14735706Y-15100650D01*
X14735706Y-15100650D02*
X14764277Y-15100650D01*
X14764277Y-15100650D02*
X14783325Y-15110174D01*
X14859515Y-15310174D02*
X14869039Y-15300650D01*
X14869039Y-15300650D02*
X14888087Y-15272079D01*
X14888087Y-15272079D02*
X14897611Y-15253031D01*
X14897611Y-15253031D02*
X14907134Y-15224460D01*
X14907134Y-15224460D02*
X14916658Y-15176841D01*
X14916658Y-15176841D02*
X14916658Y-15138746D01*
X14916658Y-15138746D02*
X14907134Y-15091127D01*
X14907134Y-15091127D02*
X14897611Y-15062555D01*
X14897611Y-15062555D02*
X14888087Y-15043508D01*
X14888087Y-15043508D02*
X14869039Y-15014936D01*
X14869039Y-15014936D02*
X14859515Y-15005412D01*
D12*
X9703500Y-15406500D02*
G75*
G02*
X9623500Y-15406500I-40000J0D01*
G01*
X9623500Y-15406500D02*
G75*
G02*
X9703500Y-15406500I40000J0D01*
G01*
D11*
X10002372Y-15297984D02*
X10021420Y-15297984D01*
X10021420Y-15297984D02*
X10040467Y-15307508D01*
X10040467Y-15307508D02*
X10049991Y-15317031D01*
X10049991Y-15317031D02*
X10059515Y-15336079D01*
X10059515Y-15336079D02*
X10069039Y-15374174D01*
X10069039Y-15374174D02*
X10069039Y-15421793D01*
X10069039Y-15421793D02*
X10059515Y-15459888D01*
X10059515Y-15459888D02*
X10049991Y-15478936D01*
X10049991Y-15478936D02*
X10040467Y-15488460D01*
X10040467Y-15488460D02*
X10021420Y-15497984D01*
X10021420Y-15497984D02*
X10002372Y-15497984D01*
X10002372Y-15497984D02*
X9983324Y-15488460D01*
X9983324Y-15488460D02*
X9973801Y-15478936D01*
X9973801Y-15478936D02*
X9964277Y-15459888D01*
X9964277Y-15459888D02*
X9954753Y-15421793D01*
X9954753Y-15421793D02*
X9954753Y-15374174D01*
X9954753Y-15374174D02*
X9964277Y-15336079D01*
X9964277Y-15336079D02*
X9973801Y-15317031D01*
X9973801Y-15317031D02*
X9983324Y-15307508D01*
X9983324Y-15307508D02*
X10002372Y-15297984D01*
X10154753Y-15478936D02*
X10164277Y-15488460D01*
X10164277Y-15488460D02*
X10154753Y-15497984D01*
X10154753Y-15497984D02*
X10145229Y-15488460D01*
X10145229Y-15488460D02*
X10154753Y-15478936D01*
X10154753Y-15478936D02*
X10154753Y-15497984D01*
X10278563Y-15383698D02*
X10259515Y-15374174D01*
X10259515Y-15374174D02*
X10249991Y-15364650D01*
X10249991Y-15364650D02*
X10240467Y-15345603D01*
X10240467Y-15345603D02*
X10240467Y-15336079D01*
X10240467Y-15336079D02*
X10249991Y-15317031D01*
X10249991Y-15317031D02*
X10259515Y-15307508D01*
X10259515Y-15307508D02*
X10278563Y-15297984D01*
X10278563Y-15297984D02*
X10316658Y-15297984D01*
X10316658Y-15297984D02*
X10335705Y-15307508D01*
X10335705Y-15307508D02*
X10345229Y-15317031D01*
X10345229Y-15317031D02*
X10354753Y-15336079D01*
X10354753Y-15336079D02*
X10354753Y-15345603D01*
X10354753Y-15345603D02*
X10345229Y-15364650D01*
X10345229Y-15364650D02*
X10335705Y-15374174D01*
X10335705Y-15374174D02*
X10316658Y-15383698D01*
X10316658Y-15383698D02*
X10278563Y-15383698D01*
X10278563Y-15383698D02*
X10259515Y-15393222D01*
X10259515Y-15393222D02*
X10249991Y-15402746D01*
X10249991Y-15402746D02*
X10240467Y-15421793D01*
X10240467Y-15421793D02*
X10240467Y-15459888D01*
X10240467Y-15459888D02*
X10249991Y-15478936D01*
X10249991Y-15478936D02*
X10259515Y-15488460D01*
X10259515Y-15488460D02*
X10278563Y-15497984D01*
X10278563Y-15497984D02*
X10316658Y-15497984D01*
X10316658Y-15497984D02*
X10335705Y-15488460D01*
X10335705Y-15488460D02*
X10345229Y-15478936D01*
X10345229Y-15478936D02*
X10354753Y-15459888D01*
X10354753Y-15459888D02*
X10354753Y-15421793D01*
X10354753Y-15421793D02*
X10345229Y-15402746D01*
X10345229Y-15402746D02*
X10335705Y-15393222D01*
X10335705Y-15393222D02*
X10316658Y-15383698D01*
X10478563Y-15297984D02*
X10497610Y-15297984D01*
X10497610Y-15297984D02*
X10516658Y-15307508D01*
X10516658Y-15307508D02*
X10526182Y-15317031D01*
X10526182Y-15317031D02*
X10535705Y-15336079D01*
X10535705Y-15336079D02*
X10545229Y-15374174D01*
X10545229Y-15374174D02*
X10545229Y-15421793D01*
X10545229Y-15421793D02*
X10535705Y-15459888D01*
X10535705Y-15459888D02*
X10526182Y-15478936D01*
X10526182Y-15478936D02*
X10516658Y-15488460D01*
X10516658Y-15488460D02*
X10497610Y-15497984D01*
X10497610Y-15497984D02*
X10478563Y-15497984D01*
X10478563Y-15497984D02*
X10459515Y-15488460D01*
X10459515Y-15488460D02*
X10449991Y-15478936D01*
X10449991Y-15478936D02*
X10440467Y-15459888D01*
X10440467Y-15459888D02*
X10430944Y-15421793D01*
X10430944Y-15421793D02*
X10430944Y-15374174D01*
X10430944Y-15374174D02*
X10440467Y-15336079D01*
X10440467Y-15336079D02*
X10449991Y-15317031D01*
X10449991Y-15317031D02*
X10459515Y-15307508D01*
X10459515Y-15307508D02*
X10478563Y-15297984D01*
X10669039Y-15297984D02*
X10688086Y-15297984D01*
X10688086Y-15297984D02*
X10707134Y-15307508D01*
X10707134Y-15307508D02*
X10716658Y-15317031D01*
X10716658Y-15317031D02*
X10726182Y-15336079D01*
X10726182Y-15336079D02*
X10735705Y-15374174D01*
X10735705Y-15374174D02*
X10735705Y-15421793D01*
X10735705Y-15421793D02*
X10726182Y-15459888D01*
X10726182Y-15459888D02*
X10716658Y-15478936D01*
X10716658Y-15478936D02*
X10707134Y-15488460D01*
X10707134Y-15488460D02*
X10688086Y-15497984D01*
X10688086Y-15497984D02*
X10669039Y-15497984D01*
X10669039Y-15497984D02*
X10649991Y-15488460D01*
X10649991Y-15488460D02*
X10640467Y-15478936D01*
X10640467Y-15478936D02*
X10630944Y-15459888D01*
X10630944Y-15459888D02*
X10621420Y-15421793D01*
X10621420Y-15421793D02*
X10621420Y-15374174D01*
X10621420Y-15374174D02*
X10630944Y-15336079D01*
X10630944Y-15336079D02*
X10640467Y-15317031D01*
X10640467Y-15317031D02*
X10649991Y-15307508D01*
X10649991Y-15307508D02*
X10669039Y-15297984D01*
X10821420Y-15497984D02*
X10821420Y-15364650D01*
X10821420Y-15383698D02*
X10830944Y-15374174D01*
X10830944Y-15374174D02*
X10849991Y-15364650D01*
X10849991Y-15364650D02*
X10878563Y-15364650D01*
X10878563Y-15364650D02*
X10897610Y-15374174D01*
X10897610Y-15374174D02*
X10907134Y-15393222D01*
X10907134Y-15393222D02*
X10907134Y-15497984D01*
X10907134Y-15393222D02*
X10916658Y-15374174D01*
X10916658Y-15374174D02*
X10935705Y-15364650D01*
X10935705Y-15364650D02*
X10964277Y-15364650D01*
X10964277Y-15364650D02*
X10983325Y-15374174D01*
X10983325Y-15374174D02*
X10992848Y-15393222D01*
X10992848Y-15393222D02*
X10992848Y-15497984D01*
X11088086Y-15497984D02*
X11088086Y-15364650D01*
X11088086Y-15383698D02*
X11097610Y-15374174D01*
X11097610Y-15374174D02*
X11116658Y-15364650D01*
X11116658Y-15364650D02*
X11145229Y-15364650D01*
X11145229Y-15364650D02*
X11164277Y-15374174D01*
X11164277Y-15374174D02*
X11173801Y-15393222D01*
X11173801Y-15393222D02*
X11173801Y-15497984D01*
X11173801Y-15393222D02*
X11183325Y-15374174D01*
X11183325Y-15374174D02*
X11202372Y-15364650D01*
X11202372Y-15364650D02*
X11230943Y-15364650D01*
X11230943Y-15364650D02*
X11249991Y-15374174D01*
X11249991Y-15374174D02*
X11259515Y-15393222D01*
X11259515Y-15393222D02*
X11259515Y-15497984D01*
X11649991Y-15288460D02*
X11478563Y-15545603D01*
X11907134Y-15297984D02*
X11926182Y-15297984D01*
X11926182Y-15297984D02*
X11945229Y-15307508D01*
X11945229Y-15307508D02*
X11954753Y-15317031D01*
X11954753Y-15317031D02*
X11964277Y-15336079D01*
X11964277Y-15336079D02*
X11973801Y-15374174D01*
X11973801Y-15374174D02*
X11973801Y-15421793D01*
X11973801Y-15421793D02*
X11964277Y-15459888D01*
X11964277Y-15459888D02*
X11954753Y-15478936D01*
X11954753Y-15478936D02*
X11945229Y-15488460D01*
X11945229Y-15488460D02*
X11926182Y-15497984D01*
X11926182Y-15497984D02*
X11907134Y-15497984D01*
X11907134Y-15497984D02*
X11888086Y-15488460D01*
X11888086Y-15488460D02*
X11878563Y-15478936D01*
X11878563Y-15478936D02*
X11869039Y-15459888D01*
X11869039Y-15459888D02*
X11859515Y-15421793D01*
X11859515Y-15421793D02*
X11859515Y-15374174D01*
X11859515Y-15374174D02*
X11869039Y-15336079D01*
X11869039Y-15336079D02*
X11878563Y-15317031D01*
X11878563Y-15317031D02*
X11888086Y-15307508D01*
X11888086Y-15307508D02*
X11907134Y-15297984D01*
X12059515Y-15478936D02*
X12069039Y-15488460D01*
X12069039Y-15488460D02*
X12059515Y-15497984D01*
X12059515Y-15497984D02*
X12049991Y-15488460D01*
X12049991Y-15488460D02*
X12059515Y-15478936D01*
X12059515Y-15478936D02*
X12059515Y-15497984D01*
X12192848Y-15297984D02*
X12211896Y-15297984D01*
X12211896Y-15297984D02*
X12230944Y-15307508D01*
X12230944Y-15307508D02*
X12240467Y-15317031D01*
X12240467Y-15317031D02*
X12249991Y-15336079D01*
X12249991Y-15336079D02*
X12259515Y-15374174D01*
X12259515Y-15374174D02*
X12259515Y-15421793D01*
X12259515Y-15421793D02*
X12249991Y-15459888D01*
X12249991Y-15459888D02*
X12240467Y-15478936D01*
X12240467Y-15478936D02*
X12230944Y-15488460D01*
X12230944Y-15488460D02*
X12211896Y-15497984D01*
X12211896Y-15497984D02*
X12192848Y-15497984D01*
X12192848Y-15497984D02*
X12173801Y-15488460D01*
X12173801Y-15488460D02*
X12164277Y-15478936D01*
X12164277Y-15478936D02*
X12154753Y-15459888D01*
X12154753Y-15459888D02*
X12145229Y-15421793D01*
X12145229Y-15421793D02*
X12145229Y-15374174D01*
X12145229Y-15374174D02*
X12154753Y-15336079D01*
X12154753Y-15336079D02*
X12164277Y-15317031D01*
X12164277Y-15317031D02*
X12173801Y-15307508D01*
X12173801Y-15307508D02*
X12192848Y-15297984D01*
X12326182Y-15297984D02*
X12449991Y-15297984D01*
X12449991Y-15297984D02*
X12383325Y-15374174D01*
X12383325Y-15374174D02*
X12411896Y-15374174D01*
X12411896Y-15374174D02*
X12430944Y-15383698D01*
X12430944Y-15383698D02*
X12440467Y-15393222D01*
X12440467Y-15393222D02*
X12449991Y-15412269D01*
X12449991Y-15412269D02*
X12449991Y-15459888D01*
X12449991Y-15459888D02*
X12440467Y-15478936D01*
X12440467Y-15478936D02*
X12430944Y-15488460D01*
X12430944Y-15488460D02*
X12411896Y-15497984D01*
X12411896Y-15497984D02*
X12354753Y-15497984D01*
X12354753Y-15497984D02*
X12335706Y-15488460D01*
X12335706Y-15488460D02*
X12326182Y-15478936D01*
X12640467Y-15497984D02*
X12526182Y-15497984D01*
X12583325Y-15497984D02*
X12583325Y-15297984D01*
X12583325Y-15297984D02*
X12564277Y-15326555D01*
X12564277Y-15326555D02*
X12545229Y-15345603D01*
X12545229Y-15345603D02*
X12526182Y-15355127D01*
X12821420Y-15297984D02*
X12726182Y-15297984D01*
X12726182Y-15297984D02*
X12716658Y-15393222D01*
X12716658Y-15393222D02*
X12726182Y-15383698D01*
X12726182Y-15383698D02*
X12745229Y-15374174D01*
X12745229Y-15374174D02*
X12792848Y-15374174D01*
X12792848Y-15374174D02*
X12811896Y-15383698D01*
X12811896Y-15383698D02*
X12821420Y-15393222D01*
X12821420Y-15393222D02*
X12830944Y-15412269D01*
X12830944Y-15412269D02*
X12830944Y-15459888D01*
X12830944Y-15459888D02*
X12821420Y-15478936D01*
X12821420Y-15478936D02*
X12811896Y-15488460D01*
X12811896Y-15488460D02*
X12792848Y-15497984D01*
X12792848Y-15497984D02*
X12745229Y-15497984D01*
X12745229Y-15497984D02*
X12726182Y-15488460D01*
X12726182Y-15488460D02*
X12716658Y-15478936D01*
X12907134Y-15297984D02*
X12907134Y-15336079D01*
X12983325Y-15297984D02*
X12983325Y-15336079D01*
X13278563Y-15574174D02*
X13269039Y-15564650D01*
X13269039Y-15564650D02*
X13249991Y-15536079D01*
X13249991Y-15536079D02*
X13240468Y-15517031D01*
X13240468Y-15517031D02*
X13230944Y-15488460D01*
X13230944Y-15488460D02*
X13221420Y-15440841D01*
X13221420Y-15440841D02*
X13221420Y-15402746D01*
X13221420Y-15402746D02*
X13230944Y-15355127D01*
X13230944Y-15355127D02*
X13240468Y-15326555D01*
X13240468Y-15326555D02*
X13249991Y-15307508D01*
X13249991Y-15307508D02*
X13269039Y-15278936D01*
X13269039Y-15278936D02*
X13278563Y-15269412D01*
X13335706Y-15297984D02*
X13459515Y-15297984D01*
X13459515Y-15297984D02*
X13392848Y-15374174D01*
X13392848Y-15374174D02*
X13421420Y-15374174D01*
X13421420Y-15374174D02*
X13440468Y-15383698D01*
X13440468Y-15383698D02*
X13449991Y-15393222D01*
X13449991Y-15393222D02*
X13459515Y-15412269D01*
X13459515Y-15412269D02*
X13459515Y-15459888D01*
X13459515Y-15459888D02*
X13449991Y-15478936D01*
X13449991Y-15478936D02*
X13440468Y-15488460D01*
X13440468Y-15488460D02*
X13421420Y-15497984D01*
X13421420Y-15497984D02*
X13364277Y-15497984D01*
X13364277Y-15497984D02*
X13345229Y-15488460D01*
X13345229Y-15488460D02*
X13335706Y-15478936D01*
X13535706Y-15317031D02*
X13545229Y-15307508D01*
X13545229Y-15307508D02*
X13564277Y-15297984D01*
X13564277Y-15297984D02*
X13611896Y-15297984D01*
X13611896Y-15297984D02*
X13630944Y-15307508D01*
X13630944Y-15307508D02*
X13640468Y-15317031D01*
X13640468Y-15317031D02*
X13649991Y-15336079D01*
X13649991Y-15336079D02*
X13649991Y-15355127D01*
X13649991Y-15355127D02*
X13640468Y-15383698D01*
X13640468Y-15383698D02*
X13526182Y-15497984D01*
X13526182Y-15497984D02*
X13649991Y-15497984D01*
X13888087Y-15497984D02*
X13888087Y-15297984D01*
X13973801Y-15497984D02*
X13973801Y-15393222D01*
X13973801Y-15393222D02*
X13964277Y-15374174D01*
X13964277Y-15374174D02*
X13945230Y-15364650D01*
X13945230Y-15364650D02*
X13916658Y-15364650D01*
X13916658Y-15364650D02*
X13897610Y-15374174D01*
X13897610Y-15374174D02*
X13888087Y-15383698D01*
X14097610Y-15497984D02*
X14078563Y-15488460D01*
X14078563Y-15488460D02*
X14069039Y-15478936D01*
X14069039Y-15478936D02*
X14059515Y-15459888D01*
X14059515Y-15459888D02*
X14059515Y-15402746D01*
X14059515Y-15402746D02*
X14069039Y-15383698D01*
X14069039Y-15383698D02*
X14078563Y-15374174D01*
X14078563Y-15374174D02*
X14097610Y-15364650D01*
X14097610Y-15364650D02*
X14126182Y-15364650D01*
X14126182Y-15364650D02*
X14145230Y-15374174D01*
X14145230Y-15374174D02*
X14154753Y-15383698D01*
X14154753Y-15383698D02*
X14164277Y-15402746D01*
X14164277Y-15402746D02*
X14164277Y-15459888D01*
X14164277Y-15459888D02*
X14154753Y-15478936D01*
X14154753Y-15478936D02*
X14145230Y-15488460D01*
X14145230Y-15488460D02*
X14126182Y-15497984D01*
X14126182Y-15497984D02*
X14097610Y-15497984D01*
X14278563Y-15497984D02*
X14259515Y-15488460D01*
X14259515Y-15488460D02*
X14249991Y-15469412D01*
X14249991Y-15469412D02*
X14249991Y-15297984D01*
X14430944Y-15488460D02*
X14411896Y-15497984D01*
X14411896Y-15497984D02*
X14373801Y-15497984D01*
X14373801Y-15497984D02*
X14354753Y-15488460D01*
X14354753Y-15488460D02*
X14345230Y-15469412D01*
X14345230Y-15469412D02*
X14345230Y-15393222D01*
X14345230Y-15393222D02*
X14354753Y-15374174D01*
X14354753Y-15374174D02*
X14373801Y-15364650D01*
X14373801Y-15364650D02*
X14411896Y-15364650D01*
X14411896Y-15364650D02*
X14430944Y-15374174D01*
X14430944Y-15374174D02*
X14440468Y-15393222D01*
X14440468Y-15393222D02*
X14440468Y-15412269D01*
X14440468Y-15412269D02*
X14345230Y-15431317D01*
X14516658Y-15488460D02*
X14535706Y-15497984D01*
X14535706Y-15497984D02*
X14573801Y-15497984D01*
X14573801Y-15497984D02*
X14592849Y-15488460D01*
X14592849Y-15488460D02*
X14602372Y-15469412D01*
X14602372Y-15469412D02*
X14602372Y-15459888D01*
X14602372Y-15459888D02*
X14592849Y-15440841D01*
X14592849Y-15440841D02*
X14573801Y-15431317D01*
X14573801Y-15431317D02*
X14545230Y-15431317D01*
X14545230Y-15431317D02*
X14526182Y-15421793D01*
X14526182Y-15421793D02*
X14516658Y-15402746D01*
X14516658Y-15402746D02*
X14516658Y-15393222D01*
X14516658Y-15393222D02*
X14526182Y-15374174D01*
X14526182Y-15374174D02*
X14545230Y-15364650D01*
X14545230Y-15364650D02*
X14573801Y-15364650D01*
X14573801Y-15364650D02*
X14592849Y-15374174D01*
X14669039Y-15574174D02*
X14678563Y-15564650D01*
X14678563Y-15564650D02*
X14697611Y-15536079D01*
X14697611Y-15536079D02*
X14707134Y-15517031D01*
X14707134Y-15517031D02*
X14716658Y-15488460D01*
X14716658Y-15488460D02*
X14726182Y-15440841D01*
X14726182Y-15440841D02*
X14726182Y-15402746D01*
X14726182Y-15402746D02*
X14716658Y-15355127D01*
X14716658Y-15355127D02*
X14707134Y-15326555D01*
X14707134Y-15326555D02*
X14697611Y-15307508D01*
X14697611Y-15307508D02*
X14678563Y-15278936D01*
X14678563Y-15278936D02*
X14669039Y-15269412D01*
D12*
X9661000Y-15628000D02*
X9661000Y-15713000D01*
X9618500Y-15670500D02*
X9703500Y-15670500D01*
D11*
X10002372Y-15561984D02*
X10021420Y-15561984D01*
X10021420Y-15561984D02*
X10040467Y-15571508D01*
X10040467Y-15571508D02*
X10049991Y-15581031D01*
X10049991Y-15581031D02*
X10059515Y-15600079D01*
X10059515Y-15600079D02*
X10069039Y-15638174D01*
X10069039Y-15638174D02*
X10069039Y-15685793D01*
X10069039Y-15685793D02*
X10059515Y-15723888D01*
X10059515Y-15723888D02*
X10049991Y-15742936D01*
X10049991Y-15742936D02*
X10040467Y-15752460D01*
X10040467Y-15752460D02*
X10021420Y-15761984D01*
X10021420Y-15761984D02*
X10002372Y-15761984D01*
X10002372Y-15761984D02*
X9983324Y-15752460D01*
X9983324Y-15752460D02*
X9973801Y-15742936D01*
X9973801Y-15742936D02*
X9964277Y-15723888D01*
X9964277Y-15723888D02*
X9954753Y-15685793D01*
X9954753Y-15685793D02*
X9954753Y-15638174D01*
X9954753Y-15638174D02*
X9964277Y-15600079D01*
X9964277Y-15600079D02*
X9973801Y-15581031D01*
X9973801Y-15581031D02*
X9983324Y-15571508D01*
X9983324Y-15571508D02*
X10002372Y-15561984D01*
X10154753Y-15742936D02*
X10164277Y-15752460D01*
X10164277Y-15752460D02*
X10154753Y-15761984D01*
X10154753Y-15761984D02*
X10145229Y-15752460D01*
X10145229Y-15752460D02*
X10154753Y-15742936D01*
X10154753Y-15742936D02*
X10154753Y-15761984D01*
X10278563Y-15647698D02*
X10259515Y-15638174D01*
X10259515Y-15638174D02*
X10249991Y-15628650D01*
X10249991Y-15628650D02*
X10240467Y-15609603D01*
X10240467Y-15609603D02*
X10240467Y-15600079D01*
X10240467Y-15600079D02*
X10249991Y-15581031D01*
X10249991Y-15581031D02*
X10259515Y-15571508D01*
X10259515Y-15571508D02*
X10278563Y-15561984D01*
X10278563Y-15561984D02*
X10316658Y-15561984D01*
X10316658Y-15561984D02*
X10335705Y-15571508D01*
X10335705Y-15571508D02*
X10345229Y-15581031D01*
X10345229Y-15581031D02*
X10354753Y-15600079D01*
X10354753Y-15600079D02*
X10354753Y-15609603D01*
X10354753Y-15609603D02*
X10345229Y-15628650D01*
X10345229Y-15628650D02*
X10335705Y-15638174D01*
X10335705Y-15638174D02*
X10316658Y-15647698D01*
X10316658Y-15647698D02*
X10278563Y-15647698D01*
X10278563Y-15647698D02*
X10259515Y-15657222D01*
X10259515Y-15657222D02*
X10249991Y-15666746D01*
X10249991Y-15666746D02*
X10240467Y-15685793D01*
X10240467Y-15685793D02*
X10240467Y-15723888D01*
X10240467Y-15723888D02*
X10249991Y-15742936D01*
X10249991Y-15742936D02*
X10259515Y-15752460D01*
X10259515Y-15752460D02*
X10278563Y-15761984D01*
X10278563Y-15761984D02*
X10316658Y-15761984D01*
X10316658Y-15761984D02*
X10335705Y-15752460D01*
X10335705Y-15752460D02*
X10345229Y-15742936D01*
X10345229Y-15742936D02*
X10354753Y-15723888D01*
X10354753Y-15723888D02*
X10354753Y-15685793D01*
X10354753Y-15685793D02*
X10345229Y-15666746D01*
X10345229Y-15666746D02*
X10335705Y-15657222D01*
X10335705Y-15657222D02*
X10316658Y-15647698D01*
X10535705Y-15561984D02*
X10440467Y-15561984D01*
X10440467Y-15561984D02*
X10430944Y-15657222D01*
X10430944Y-15657222D02*
X10440467Y-15647698D01*
X10440467Y-15647698D02*
X10459515Y-15638174D01*
X10459515Y-15638174D02*
X10507134Y-15638174D01*
X10507134Y-15638174D02*
X10526182Y-15647698D01*
X10526182Y-15647698D02*
X10535705Y-15657222D01*
X10535705Y-15657222D02*
X10545229Y-15676269D01*
X10545229Y-15676269D02*
X10545229Y-15723888D01*
X10545229Y-15723888D02*
X10535705Y-15742936D01*
X10535705Y-15742936D02*
X10526182Y-15752460D01*
X10526182Y-15752460D02*
X10507134Y-15761984D01*
X10507134Y-15761984D02*
X10459515Y-15761984D01*
X10459515Y-15761984D02*
X10440467Y-15752460D01*
X10440467Y-15752460D02*
X10430944Y-15742936D01*
X10669039Y-15561984D02*
X10688086Y-15561984D01*
X10688086Y-15561984D02*
X10707134Y-15571508D01*
X10707134Y-15571508D02*
X10716658Y-15581031D01*
X10716658Y-15581031D02*
X10726182Y-15600079D01*
X10726182Y-15600079D02*
X10735705Y-15638174D01*
X10735705Y-15638174D02*
X10735705Y-15685793D01*
X10735705Y-15685793D02*
X10726182Y-15723888D01*
X10726182Y-15723888D02*
X10716658Y-15742936D01*
X10716658Y-15742936D02*
X10707134Y-15752460D01*
X10707134Y-15752460D02*
X10688086Y-15761984D01*
X10688086Y-15761984D02*
X10669039Y-15761984D01*
X10669039Y-15761984D02*
X10649991Y-15752460D01*
X10649991Y-15752460D02*
X10640467Y-15742936D01*
X10640467Y-15742936D02*
X10630944Y-15723888D01*
X10630944Y-15723888D02*
X10621420Y-15685793D01*
X10621420Y-15685793D02*
X10621420Y-15638174D01*
X10621420Y-15638174D02*
X10630944Y-15600079D01*
X10630944Y-15600079D02*
X10640467Y-15581031D01*
X10640467Y-15581031D02*
X10649991Y-15571508D01*
X10649991Y-15571508D02*
X10669039Y-15561984D01*
X10821420Y-15761984D02*
X10821420Y-15628650D01*
X10821420Y-15647698D02*
X10830944Y-15638174D01*
X10830944Y-15638174D02*
X10849991Y-15628650D01*
X10849991Y-15628650D02*
X10878563Y-15628650D01*
X10878563Y-15628650D02*
X10897610Y-15638174D01*
X10897610Y-15638174D02*
X10907134Y-15657222D01*
X10907134Y-15657222D02*
X10907134Y-15761984D01*
X10907134Y-15657222D02*
X10916658Y-15638174D01*
X10916658Y-15638174D02*
X10935705Y-15628650D01*
X10935705Y-15628650D02*
X10964277Y-15628650D01*
X10964277Y-15628650D02*
X10983325Y-15638174D01*
X10983325Y-15638174D02*
X10992848Y-15657222D01*
X10992848Y-15657222D02*
X10992848Y-15761984D01*
X11088086Y-15761984D02*
X11088086Y-15628650D01*
X11088086Y-15647698D02*
X11097610Y-15638174D01*
X11097610Y-15638174D02*
X11116658Y-15628650D01*
X11116658Y-15628650D02*
X11145229Y-15628650D01*
X11145229Y-15628650D02*
X11164277Y-15638174D01*
X11164277Y-15638174D02*
X11173801Y-15657222D01*
X11173801Y-15657222D02*
X11173801Y-15761984D01*
X11173801Y-15657222D02*
X11183325Y-15638174D01*
X11183325Y-15638174D02*
X11202372Y-15628650D01*
X11202372Y-15628650D02*
X11230943Y-15628650D01*
X11230943Y-15628650D02*
X11249991Y-15638174D01*
X11249991Y-15638174D02*
X11259515Y-15657222D01*
X11259515Y-15657222D02*
X11259515Y-15761984D01*
X11649991Y-15552460D02*
X11478563Y-15809603D01*
X11907134Y-15561984D02*
X11926182Y-15561984D01*
X11926182Y-15561984D02*
X11945229Y-15571508D01*
X11945229Y-15571508D02*
X11954753Y-15581031D01*
X11954753Y-15581031D02*
X11964277Y-15600079D01*
X11964277Y-15600079D02*
X11973801Y-15638174D01*
X11973801Y-15638174D02*
X11973801Y-15685793D01*
X11973801Y-15685793D02*
X11964277Y-15723888D01*
X11964277Y-15723888D02*
X11954753Y-15742936D01*
X11954753Y-15742936D02*
X11945229Y-15752460D01*
X11945229Y-15752460D02*
X11926182Y-15761984D01*
X11926182Y-15761984D02*
X11907134Y-15761984D01*
X11907134Y-15761984D02*
X11888086Y-15752460D01*
X11888086Y-15752460D02*
X11878563Y-15742936D01*
X11878563Y-15742936D02*
X11869039Y-15723888D01*
X11869039Y-15723888D02*
X11859515Y-15685793D01*
X11859515Y-15685793D02*
X11859515Y-15638174D01*
X11859515Y-15638174D02*
X11869039Y-15600079D01*
X11869039Y-15600079D02*
X11878563Y-15581031D01*
X11878563Y-15581031D02*
X11888086Y-15571508D01*
X11888086Y-15571508D02*
X11907134Y-15561984D01*
X12059515Y-15742936D02*
X12069039Y-15752460D01*
X12069039Y-15752460D02*
X12059515Y-15761984D01*
X12059515Y-15761984D02*
X12049991Y-15752460D01*
X12049991Y-15752460D02*
X12059515Y-15742936D01*
X12059515Y-15742936D02*
X12059515Y-15761984D01*
X12192848Y-15561984D02*
X12211896Y-15561984D01*
X12211896Y-15561984D02*
X12230944Y-15571508D01*
X12230944Y-15571508D02*
X12240467Y-15581031D01*
X12240467Y-15581031D02*
X12249991Y-15600079D01*
X12249991Y-15600079D02*
X12259515Y-15638174D01*
X12259515Y-15638174D02*
X12259515Y-15685793D01*
X12259515Y-15685793D02*
X12249991Y-15723888D01*
X12249991Y-15723888D02*
X12240467Y-15742936D01*
X12240467Y-15742936D02*
X12230944Y-15752460D01*
X12230944Y-15752460D02*
X12211896Y-15761984D01*
X12211896Y-15761984D02*
X12192848Y-15761984D01*
X12192848Y-15761984D02*
X12173801Y-15752460D01*
X12173801Y-15752460D02*
X12164277Y-15742936D01*
X12164277Y-15742936D02*
X12154753Y-15723888D01*
X12154753Y-15723888D02*
X12145229Y-15685793D01*
X12145229Y-15685793D02*
X12145229Y-15638174D01*
X12145229Y-15638174D02*
X12154753Y-15600079D01*
X12154753Y-15600079D02*
X12164277Y-15581031D01*
X12164277Y-15581031D02*
X12173801Y-15571508D01*
X12173801Y-15571508D02*
X12192848Y-15561984D01*
X12326182Y-15561984D02*
X12449991Y-15561984D01*
X12449991Y-15561984D02*
X12383325Y-15638174D01*
X12383325Y-15638174D02*
X12411896Y-15638174D01*
X12411896Y-15638174D02*
X12430944Y-15647698D01*
X12430944Y-15647698D02*
X12440467Y-15657222D01*
X12440467Y-15657222D02*
X12449991Y-15676269D01*
X12449991Y-15676269D02*
X12449991Y-15723888D01*
X12449991Y-15723888D02*
X12440467Y-15742936D01*
X12440467Y-15742936D02*
X12430944Y-15752460D01*
X12430944Y-15752460D02*
X12411896Y-15761984D01*
X12411896Y-15761984D02*
X12354753Y-15761984D01*
X12354753Y-15761984D02*
X12335706Y-15752460D01*
X12335706Y-15752460D02*
X12326182Y-15742936D01*
X12516658Y-15561984D02*
X12640467Y-15561984D01*
X12640467Y-15561984D02*
X12573801Y-15638174D01*
X12573801Y-15638174D02*
X12602372Y-15638174D01*
X12602372Y-15638174D02*
X12621420Y-15647698D01*
X12621420Y-15647698D02*
X12630944Y-15657222D01*
X12630944Y-15657222D02*
X12640467Y-15676269D01*
X12640467Y-15676269D02*
X12640467Y-15723888D01*
X12640467Y-15723888D02*
X12630944Y-15742936D01*
X12630944Y-15742936D02*
X12621420Y-15752460D01*
X12621420Y-15752460D02*
X12602372Y-15761984D01*
X12602372Y-15761984D02*
X12545229Y-15761984D01*
X12545229Y-15761984D02*
X12526182Y-15752460D01*
X12526182Y-15752460D02*
X12516658Y-15742936D01*
X12821420Y-15561984D02*
X12726182Y-15561984D01*
X12726182Y-15561984D02*
X12716658Y-15657222D01*
X12716658Y-15657222D02*
X12726182Y-15647698D01*
X12726182Y-15647698D02*
X12745229Y-15638174D01*
X12745229Y-15638174D02*
X12792848Y-15638174D01*
X12792848Y-15638174D02*
X12811896Y-15647698D01*
X12811896Y-15647698D02*
X12821420Y-15657222D01*
X12821420Y-15657222D02*
X12830944Y-15676269D01*
X12830944Y-15676269D02*
X12830944Y-15723888D01*
X12830944Y-15723888D02*
X12821420Y-15742936D01*
X12821420Y-15742936D02*
X12811896Y-15752460D01*
X12811896Y-15752460D02*
X12792848Y-15761984D01*
X12792848Y-15761984D02*
X12745229Y-15761984D01*
X12745229Y-15761984D02*
X12726182Y-15752460D01*
X12726182Y-15752460D02*
X12716658Y-15742936D01*
X12907134Y-15561984D02*
X12907134Y-15600079D01*
X12983325Y-15561984D02*
X12983325Y-15600079D01*
X13278563Y-15838174D02*
X13269039Y-15828650D01*
X13269039Y-15828650D02*
X13249991Y-15800079D01*
X13249991Y-15800079D02*
X13240468Y-15781031D01*
X13240468Y-15781031D02*
X13230944Y-15752460D01*
X13230944Y-15752460D02*
X13221420Y-15704841D01*
X13221420Y-15704841D02*
X13221420Y-15666746D01*
X13221420Y-15666746D02*
X13230944Y-15619127D01*
X13230944Y-15619127D02*
X13240468Y-15590555D01*
X13240468Y-15590555D02*
X13249991Y-15571508D01*
X13249991Y-15571508D02*
X13269039Y-15542936D01*
X13269039Y-15542936D02*
X13278563Y-15533412D01*
X13459515Y-15761984D02*
X13345229Y-15761984D01*
X13402372Y-15761984D02*
X13402372Y-15561984D01*
X13402372Y-15561984D02*
X13383325Y-15590555D01*
X13383325Y-15590555D02*
X13364277Y-15609603D01*
X13364277Y-15609603D02*
X13345229Y-15619127D01*
X13630944Y-15561984D02*
X13592848Y-15561984D01*
X13592848Y-15561984D02*
X13573801Y-15571508D01*
X13573801Y-15571508D02*
X13564277Y-15581031D01*
X13564277Y-15581031D02*
X13545229Y-15609603D01*
X13545229Y-15609603D02*
X13535706Y-15647698D01*
X13535706Y-15647698D02*
X13535706Y-15723888D01*
X13535706Y-15723888D02*
X13545229Y-15742936D01*
X13545229Y-15742936D02*
X13554753Y-15752460D01*
X13554753Y-15752460D02*
X13573801Y-15761984D01*
X13573801Y-15761984D02*
X13611896Y-15761984D01*
X13611896Y-15761984D02*
X13630944Y-15752460D01*
X13630944Y-15752460D02*
X13640468Y-15742936D01*
X13640468Y-15742936D02*
X13649991Y-15723888D01*
X13649991Y-15723888D02*
X13649991Y-15676269D01*
X13649991Y-15676269D02*
X13640468Y-15657222D01*
X13640468Y-15657222D02*
X13630944Y-15647698D01*
X13630944Y-15647698D02*
X13611896Y-15638174D01*
X13611896Y-15638174D02*
X13573801Y-15638174D01*
X13573801Y-15638174D02*
X13554753Y-15647698D01*
X13554753Y-15647698D02*
X13545229Y-15657222D01*
X13545229Y-15657222D02*
X13535706Y-15676269D01*
X13888087Y-15761984D02*
X13888087Y-15561984D01*
X13973801Y-15761984D02*
X13973801Y-15657222D01*
X13973801Y-15657222D02*
X13964277Y-15638174D01*
X13964277Y-15638174D02*
X13945230Y-15628650D01*
X13945230Y-15628650D02*
X13916658Y-15628650D01*
X13916658Y-15628650D02*
X13897610Y-15638174D01*
X13897610Y-15638174D02*
X13888087Y-15647698D01*
X14097610Y-15761984D02*
X14078563Y-15752460D01*
X14078563Y-15752460D02*
X14069039Y-15742936D01*
X14069039Y-15742936D02*
X14059515Y-15723888D01*
X14059515Y-15723888D02*
X14059515Y-15666746D01*
X14059515Y-15666746D02*
X14069039Y-15647698D01*
X14069039Y-15647698D02*
X14078563Y-15638174D01*
X14078563Y-15638174D02*
X14097610Y-15628650D01*
X14097610Y-15628650D02*
X14126182Y-15628650D01*
X14126182Y-15628650D02*
X14145230Y-15638174D01*
X14145230Y-15638174D02*
X14154753Y-15647698D01*
X14154753Y-15647698D02*
X14164277Y-15666746D01*
X14164277Y-15666746D02*
X14164277Y-15723888D01*
X14164277Y-15723888D02*
X14154753Y-15742936D01*
X14154753Y-15742936D02*
X14145230Y-15752460D01*
X14145230Y-15752460D02*
X14126182Y-15761984D01*
X14126182Y-15761984D02*
X14097610Y-15761984D01*
X14278563Y-15761984D02*
X14259515Y-15752460D01*
X14259515Y-15752460D02*
X14249991Y-15733412D01*
X14249991Y-15733412D02*
X14249991Y-15561984D01*
X14430944Y-15752460D02*
X14411896Y-15761984D01*
X14411896Y-15761984D02*
X14373801Y-15761984D01*
X14373801Y-15761984D02*
X14354753Y-15752460D01*
X14354753Y-15752460D02*
X14345230Y-15733412D01*
X14345230Y-15733412D02*
X14345230Y-15657222D01*
X14345230Y-15657222D02*
X14354753Y-15638174D01*
X14354753Y-15638174D02*
X14373801Y-15628650D01*
X14373801Y-15628650D02*
X14411896Y-15628650D01*
X14411896Y-15628650D02*
X14430944Y-15638174D01*
X14430944Y-15638174D02*
X14440468Y-15657222D01*
X14440468Y-15657222D02*
X14440468Y-15676269D01*
X14440468Y-15676269D02*
X14345230Y-15695317D01*
X14516658Y-15752460D02*
X14535706Y-15761984D01*
X14535706Y-15761984D02*
X14573801Y-15761984D01*
X14573801Y-15761984D02*
X14592849Y-15752460D01*
X14592849Y-15752460D02*
X14602372Y-15733412D01*
X14602372Y-15733412D02*
X14602372Y-15723888D01*
X14602372Y-15723888D02*
X14592849Y-15704841D01*
X14592849Y-15704841D02*
X14573801Y-15695317D01*
X14573801Y-15695317D02*
X14545230Y-15695317D01*
X14545230Y-15695317D02*
X14526182Y-15685793D01*
X14526182Y-15685793D02*
X14516658Y-15666746D01*
X14516658Y-15666746D02*
X14516658Y-15657222D01*
X14516658Y-15657222D02*
X14526182Y-15638174D01*
X14526182Y-15638174D02*
X14545230Y-15628650D01*
X14545230Y-15628650D02*
X14573801Y-15628650D01*
X14573801Y-15628650D02*
X14592849Y-15638174D01*
X14669039Y-15838174D02*
X14678563Y-15828650D01*
X14678563Y-15828650D02*
X14697611Y-15800079D01*
X14697611Y-15800079D02*
X14707134Y-15781031D01*
X14707134Y-15781031D02*
X14716658Y-15752460D01*
X14716658Y-15752460D02*
X14726182Y-15704841D01*
X14726182Y-15704841D02*
X14726182Y-15666746D01*
X14726182Y-15666746D02*
X14716658Y-15619127D01*
X14716658Y-15619127D02*
X14707134Y-15590555D01*
X14707134Y-15590555D02*
X14697611Y-15571508D01*
X14697611Y-15571508D02*
X14678563Y-15542936D01*
X14678563Y-15542936D02*
X14669039Y-15533412D01*
D12*
X9688856Y-15969856D02*
X9688856Y-15899144D01*
X9618144Y-15899144D01*
X9618144Y-15969856D01*
X9688856Y-15969856D01*
D11*
X10069039Y-16025984D02*
X9954753Y-16025984D01*
X10011896Y-16025984D02*
X10011896Y-15825984D01*
X10011896Y-15825984D02*
X9992848Y-15854555D01*
X9992848Y-15854555D02*
X9973801Y-15873603D01*
X9973801Y-15873603D02*
X9954753Y-15883127D01*
X10154753Y-16006936D02*
X10164277Y-16016460D01*
X10164277Y-16016460D02*
X10154753Y-16025984D01*
X10154753Y-16025984D02*
X10145229Y-16016460D01*
X10145229Y-16016460D02*
X10154753Y-16006936D01*
X10154753Y-16006936D02*
X10154753Y-16025984D01*
X10288086Y-15825984D02*
X10307134Y-15825984D01*
X10307134Y-15825984D02*
X10326182Y-15835508D01*
X10326182Y-15835508D02*
X10335705Y-15845031D01*
X10335705Y-15845031D02*
X10345229Y-15864079D01*
X10345229Y-15864079D02*
X10354753Y-15902174D01*
X10354753Y-15902174D02*
X10354753Y-15949793D01*
X10354753Y-15949793D02*
X10345229Y-15987888D01*
X10345229Y-15987888D02*
X10335705Y-16006936D01*
X10335705Y-16006936D02*
X10326182Y-16016460D01*
X10326182Y-16016460D02*
X10307134Y-16025984D01*
X10307134Y-16025984D02*
X10288086Y-16025984D01*
X10288086Y-16025984D02*
X10269039Y-16016460D01*
X10269039Y-16016460D02*
X10259515Y-16006936D01*
X10259515Y-16006936D02*
X10249991Y-15987888D01*
X10249991Y-15987888D02*
X10240467Y-15949793D01*
X10240467Y-15949793D02*
X10240467Y-15902174D01*
X10240467Y-15902174D02*
X10249991Y-15864079D01*
X10249991Y-15864079D02*
X10259515Y-15845031D01*
X10259515Y-15845031D02*
X10269039Y-15835508D01*
X10269039Y-15835508D02*
X10288086Y-15825984D01*
X10478563Y-15825984D02*
X10497610Y-15825984D01*
X10497610Y-15825984D02*
X10516658Y-15835508D01*
X10516658Y-15835508D02*
X10526182Y-15845031D01*
X10526182Y-15845031D02*
X10535705Y-15864079D01*
X10535705Y-15864079D02*
X10545229Y-15902174D01*
X10545229Y-15902174D02*
X10545229Y-15949793D01*
X10545229Y-15949793D02*
X10535705Y-15987888D01*
X10535705Y-15987888D02*
X10526182Y-16006936D01*
X10526182Y-16006936D02*
X10516658Y-16016460D01*
X10516658Y-16016460D02*
X10497610Y-16025984D01*
X10497610Y-16025984D02*
X10478563Y-16025984D01*
X10478563Y-16025984D02*
X10459515Y-16016460D01*
X10459515Y-16016460D02*
X10449991Y-16006936D01*
X10449991Y-16006936D02*
X10440467Y-15987888D01*
X10440467Y-15987888D02*
X10430944Y-15949793D01*
X10430944Y-15949793D02*
X10430944Y-15902174D01*
X10430944Y-15902174D02*
X10440467Y-15864079D01*
X10440467Y-15864079D02*
X10449991Y-15845031D01*
X10449991Y-15845031D02*
X10459515Y-15835508D01*
X10459515Y-15835508D02*
X10478563Y-15825984D01*
X10669039Y-15825984D02*
X10688086Y-15825984D01*
X10688086Y-15825984D02*
X10707134Y-15835508D01*
X10707134Y-15835508D02*
X10716658Y-15845031D01*
X10716658Y-15845031D02*
X10726182Y-15864079D01*
X10726182Y-15864079D02*
X10735705Y-15902174D01*
X10735705Y-15902174D02*
X10735705Y-15949793D01*
X10735705Y-15949793D02*
X10726182Y-15987888D01*
X10726182Y-15987888D02*
X10716658Y-16006936D01*
X10716658Y-16006936D02*
X10707134Y-16016460D01*
X10707134Y-16016460D02*
X10688086Y-16025984D01*
X10688086Y-16025984D02*
X10669039Y-16025984D01*
X10669039Y-16025984D02*
X10649991Y-16016460D01*
X10649991Y-16016460D02*
X10640467Y-16006936D01*
X10640467Y-16006936D02*
X10630944Y-15987888D01*
X10630944Y-15987888D02*
X10621420Y-15949793D01*
X10621420Y-15949793D02*
X10621420Y-15902174D01*
X10621420Y-15902174D02*
X10630944Y-15864079D01*
X10630944Y-15864079D02*
X10640467Y-15845031D01*
X10640467Y-15845031D02*
X10649991Y-15835508D01*
X10649991Y-15835508D02*
X10669039Y-15825984D01*
X10821420Y-16025984D02*
X10821420Y-15892650D01*
X10821420Y-15911698D02*
X10830944Y-15902174D01*
X10830944Y-15902174D02*
X10849991Y-15892650D01*
X10849991Y-15892650D02*
X10878563Y-15892650D01*
X10878563Y-15892650D02*
X10897610Y-15902174D01*
X10897610Y-15902174D02*
X10907134Y-15921222D01*
X10907134Y-15921222D02*
X10907134Y-16025984D01*
X10907134Y-15921222D02*
X10916658Y-15902174D01*
X10916658Y-15902174D02*
X10935705Y-15892650D01*
X10935705Y-15892650D02*
X10964277Y-15892650D01*
X10964277Y-15892650D02*
X10983325Y-15902174D01*
X10983325Y-15902174D02*
X10992848Y-15921222D01*
X10992848Y-15921222D02*
X10992848Y-16025984D01*
X11088086Y-16025984D02*
X11088086Y-15892650D01*
X11088086Y-15911698D02*
X11097610Y-15902174D01*
X11097610Y-15902174D02*
X11116658Y-15892650D01*
X11116658Y-15892650D02*
X11145229Y-15892650D01*
X11145229Y-15892650D02*
X11164277Y-15902174D01*
X11164277Y-15902174D02*
X11173801Y-15921222D01*
X11173801Y-15921222D02*
X11173801Y-16025984D01*
X11173801Y-15921222D02*
X11183325Y-15902174D01*
X11183325Y-15902174D02*
X11202372Y-15892650D01*
X11202372Y-15892650D02*
X11230943Y-15892650D01*
X11230943Y-15892650D02*
X11249991Y-15902174D01*
X11249991Y-15902174D02*
X11259515Y-15921222D01*
X11259515Y-15921222D02*
X11259515Y-16025984D01*
X11649991Y-15816460D02*
X11478563Y-16073603D01*
X11907134Y-15825984D02*
X11926182Y-15825984D01*
X11926182Y-15825984D02*
X11945229Y-15835508D01*
X11945229Y-15835508D02*
X11954753Y-15845031D01*
X11954753Y-15845031D02*
X11964277Y-15864079D01*
X11964277Y-15864079D02*
X11973801Y-15902174D01*
X11973801Y-15902174D02*
X11973801Y-15949793D01*
X11973801Y-15949793D02*
X11964277Y-15987888D01*
X11964277Y-15987888D02*
X11954753Y-16006936D01*
X11954753Y-16006936D02*
X11945229Y-16016460D01*
X11945229Y-16016460D02*
X11926182Y-16025984D01*
X11926182Y-16025984D02*
X11907134Y-16025984D01*
X11907134Y-16025984D02*
X11888086Y-16016460D01*
X11888086Y-16016460D02*
X11878563Y-16006936D01*
X11878563Y-16006936D02*
X11869039Y-15987888D01*
X11869039Y-15987888D02*
X11859515Y-15949793D01*
X11859515Y-15949793D02*
X11859515Y-15902174D01*
X11859515Y-15902174D02*
X11869039Y-15864079D01*
X11869039Y-15864079D02*
X11878563Y-15845031D01*
X11878563Y-15845031D02*
X11888086Y-15835508D01*
X11888086Y-15835508D02*
X11907134Y-15825984D01*
X12059515Y-16006936D02*
X12069039Y-16016460D01*
X12069039Y-16016460D02*
X12059515Y-16025984D01*
X12059515Y-16025984D02*
X12049991Y-16016460D01*
X12049991Y-16016460D02*
X12059515Y-16006936D01*
X12059515Y-16006936D02*
X12059515Y-16025984D01*
X12192848Y-15825984D02*
X12211896Y-15825984D01*
X12211896Y-15825984D02*
X12230944Y-15835508D01*
X12230944Y-15835508D02*
X12240467Y-15845031D01*
X12240467Y-15845031D02*
X12249991Y-15864079D01*
X12249991Y-15864079D02*
X12259515Y-15902174D01*
X12259515Y-15902174D02*
X12259515Y-15949793D01*
X12259515Y-15949793D02*
X12249991Y-15987888D01*
X12249991Y-15987888D02*
X12240467Y-16006936D01*
X12240467Y-16006936D02*
X12230944Y-16016460D01*
X12230944Y-16016460D02*
X12211896Y-16025984D01*
X12211896Y-16025984D02*
X12192848Y-16025984D01*
X12192848Y-16025984D02*
X12173801Y-16016460D01*
X12173801Y-16016460D02*
X12164277Y-16006936D01*
X12164277Y-16006936D02*
X12154753Y-15987888D01*
X12154753Y-15987888D02*
X12145229Y-15949793D01*
X12145229Y-15949793D02*
X12145229Y-15902174D01*
X12145229Y-15902174D02*
X12154753Y-15864079D01*
X12154753Y-15864079D02*
X12164277Y-15845031D01*
X12164277Y-15845031D02*
X12173801Y-15835508D01*
X12173801Y-15835508D02*
X12192848Y-15825984D01*
X12326182Y-15825984D02*
X12449991Y-15825984D01*
X12449991Y-15825984D02*
X12383325Y-15902174D01*
X12383325Y-15902174D02*
X12411896Y-15902174D01*
X12411896Y-15902174D02*
X12430944Y-15911698D01*
X12430944Y-15911698D02*
X12440467Y-15921222D01*
X12440467Y-15921222D02*
X12449991Y-15940269D01*
X12449991Y-15940269D02*
X12449991Y-15987888D01*
X12449991Y-15987888D02*
X12440467Y-16006936D01*
X12440467Y-16006936D02*
X12430944Y-16016460D01*
X12430944Y-16016460D02*
X12411896Y-16025984D01*
X12411896Y-16025984D02*
X12354753Y-16025984D01*
X12354753Y-16025984D02*
X12335706Y-16016460D01*
X12335706Y-16016460D02*
X12326182Y-16006936D01*
X12545229Y-16025984D02*
X12583325Y-16025984D01*
X12583325Y-16025984D02*
X12602372Y-16016460D01*
X12602372Y-16016460D02*
X12611896Y-16006936D01*
X12611896Y-16006936D02*
X12630944Y-15978365D01*
X12630944Y-15978365D02*
X12640467Y-15940269D01*
X12640467Y-15940269D02*
X12640467Y-15864079D01*
X12640467Y-15864079D02*
X12630944Y-15845031D01*
X12630944Y-15845031D02*
X12621420Y-15835508D01*
X12621420Y-15835508D02*
X12602372Y-15825984D01*
X12602372Y-15825984D02*
X12564277Y-15825984D01*
X12564277Y-15825984D02*
X12545229Y-15835508D01*
X12545229Y-15835508D02*
X12535706Y-15845031D01*
X12535706Y-15845031D02*
X12526182Y-15864079D01*
X12526182Y-15864079D02*
X12526182Y-15911698D01*
X12526182Y-15911698D02*
X12535706Y-15930746D01*
X12535706Y-15930746D02*
X12545229Y-15940269D01*
X12545229Y-15940269D02*
X12564277Y-15949793D01*
X12564277Y-15949793D02*
X12602372Y-15949793D01*
X12602372Y-15949793D02*
X12621420Y-15940269D01*
X12621420Y-15940269D02*
X12630944Y-15930746D01*
X12630944Y-15930746D02*
X12640467Y-15911698D01*
X12811896Y-15892650D02*
X12811896Y-16025984D01*
X12764277Y-15816460D02*
X12716658Y-15959317D01*
X12716658Y-15959317D02*
X12840467Y-15959317D01*
X12907134Y-15825984D02*
X12907134Y-15864079D01*
X12983325Y-15825984D02*
X12983325Y-15864079D01*
X13278563Y-16102174D02*
X13269039Y-16092650D01*
X13269039Y-16092650D02*
X13249991Y-16064079D01*
X13249991Y-16064079D02*
X13240468Y-16045031D01*
X13240468Y-16045031D02*
X13230944Y-16016460D01*
X13230944Y-16016460D02*
X13221420Y-15968841D01*
X13221420Y-15968841D02*
X13221420Y-15930746D01*
X13221420Y-15930746D02*
X13230944Y-15883127D01*
X13230944Y-15883127D02*
X13240468Y-15854555D01*
X13240468Y-15854555D02*
X13249991Y-15835508D01*
X13249991Y-15835508D02*
X13269039Y-15806936D01*
X13269039Y-15806936D02*
X13278563Y-15797412D01*
X13364277Y-16025984D02*
X13402372Y-16025984D01*
X13402372Y-16025984D02*
X13421420Y-16016460D01*
X13421420Y-16016460D02*
X13430944Y-16006936D01*
X13430944Y-16006936D02*
X13449991Y-15978365D01*
X13449991Y-15978365D02*
X13459515Y-15940269D01*
X13459515Y-15940269D02*
X13459515Y-15864079D01*
X13459515Y-15864079D02*
X13449991Y-15845031D01*
X13449991Y-15845031D02*
X13440468Y-15835508D01*
X13440468Y-15835508D02*
X13421420Y-15825984D01*
X13421420Y-15825984D02*
X13383325Y-15825984D01*
X13383325Y-15825984D02*
X13364277Y-15835508D01*
X13364277Y-15835508D02*
X13354753Y-15845031D01*
X13354753Y-15845031D02*
X13345229Y-15864079D01*
X13345229Y-15864079D02*
X13345229Y-15911698D01*
X13345229Y-15911698D02*
X13354753Y-15930746D01*
X13354753Y-15930746D02*
X13364277Y-15940269D01*
X13364277Y-15940269D02*
X13383325Y-15949793D01*
X13383325Y-15949793D02*
X13421420Y-15949793D01*
X13421420Y-15949793D02*
X13440468Y-15940269D01*
X13440468Y-15940269D02*
X13449991Y-15930746D01*
X13449991Y-15930746D02*
X13459515Y-15911698D01*
X13554753Y-16025984D02*
X13592848Y-16025984D01*
X13592848Y-16025984D02*
X13611896Y-16016460D01*
X13611896Y-16016460D02*
X13621420Y-16006936D01*
X13621420Y-16006936D02*
X13640468Y-15978365D01*
X13640468Y-15978365D02*
X13649991Y-15940269D01*
X13649991Y-15940269D02*
X13649991Y-15864079D01*
X13649991Y-15864079D02*
X13640468Y-15845031D01*
X13640468Y-15845031D02*
X13630944Y-15835508D01*
X13630944Y-15835508D02*
X13611896Y-15825984D01*
X13611896Y-15825984D02*
X13573801Y-15825984D01*
X13573801Y-15825984D02*
X13554753Y-15835508D01*
X13554753Y-15835508D02*
X13545229Y-15845031D01*
X13545229Y-15845031D02*
X13535706Y-15864079D01*
X13535706Y-15864079D02*
X13535706Y-15911698D01*
X13535706Y-15911698D02*
X13545229Y-15930746D01*
X13545229Y-15930746D02*
X13554753Y-15940269D01*
X13554753Y-15940269D02*
X13573801Y-15949793D01*
X13573801Y-15949793D02*
X13611896Y-15949793D01*
X13611896Y-15949793D02*
X13630944Y-15940269D01*
X13630944Y-15940269D02*
X13640468Y-15930746D01*
X13640468Y-15930746D02*
X13649991Y-15911698D01*
X13888087Y-16025984D02*
X13888087Y-15825984D01*
X13973801Y-16025984D02*
X13973801Y-15921222D01*
X13973801Y-15921222D02*
X13964277Y-15902174D01*
X13964277Y-15902174D02*
X13945230Y-15892650D01*
X13945230Y-15892650D02*
X13916658Y-15892650D01*
X13916658Y-15892650D02*
X13897610Y-15902174D01*
X13897610Y-15902174D02*
X13888087Y-15911698D01*
X14097610Y-16025984D02*
X14078563Y-16016460D01*
X14078563Y-16016460D02*
X14069039Y-16006936D01*
X14069039Y-16006936D02*
X14059515Y-15987888D01*
X14059515Y-15987888D02*
X14059515Y-15930746D01*
X14059515Y-15930746D02*
X14069039Y-15911698D01*
X14069039Y-15911698D02*
X14078563Y-15902174D01*
X14078563Y-15902174D02*
X14097610Y-15892650D01*
X14097610Y-15892650D02*
X14126182Y-15892650D01*
X14126182Y-15892650D02*
X14145230Y-15902174D01*
X14145230Y-15902174D02*
X14154753Y-15911698D01*
X14154753Y-15911698D02*
X14164277Y-15930746D01*
X14164277Y-15930746D02*
X14164277Y-15987888D01*
X14164277Y-15987888D02*
X14154753Y-16006936D01*
X14154753Y-16006936D02*
X14145230Y-16016460D01*
X14145230Y-16016460D02*
X14126182Y-16025984D01*
X14126182Y-16025984D02*
X14097610Y-16025984D01*
X14278563Y-16025984D02*
X14259515Y-16016460D01*
X14259515Y-16016460D02*
X14249991Y-15997412D01*
X14249991Y-15997412D02*
X14249991Y-15825984D01*
X14430944Y-16016460D02*
X14411896Y-16025984D01*
X14411896Y-16025984D02*
X14373801Y-16025984D01*
X14373801Y-16025984D02*
X14354753Y-16016460D01*
X14354753Y-16016460D02*
X14345230Y-15997412D01*
X14345230Y-15997412D02*
X14345230Y-15921222D01*
X14345230Y-15921222D02*
X14354753Y-15902174D01*
X14354753Y-15902174D02*
X14373801Y-15892650D01*
X14373801Y-15892650D02*
X14411896Y-15892650D01*
X14411896Y-15892650D02*
X14430944Y-15902174D01*
X14430944Y-15902174D02*
X14440468Y-15921222D01*
X14440468Y-15921222D02*
X14440468Y-15940269D01*
X14440468Y-15940269D02*
X14345230Y-15959317D01*
X14516658Y-16016460D02*
X14535706Y-16025984D01*
X14535706Y-16025984D02*
X14573801Y-16025984D01*
X14573801Y-16025984D02*
X14592849Y-16016460D01*
X14592849Y-16016460D02*
X14602372Y-15997412D01*
X14602372Y-15997412D02*
X14602372Y-15987888D01*
X14602372Y-15987888D02*
X14592849Y-15968841D01*
X14592849Y-15968841D02*
X14573801Y-15959317D01*
X14573801Y-15959317D02*
X14545230Y-15959317D01*
X14545230Y-15959317D02*
X14526182Y-15949793D01*
X14526182Y-15949793D02*
X14516658Y-15930746D01*
X14516658Y-15930746D02*
X14516658Y-15921222D01*
X14516658Y-15921222D02*
X14526182Y-15902174D01*
X14526182Y-15902174D02*
X14545230Y-15892650D01*
X14545230Y-15892650D02*
X14573801Y-15892650D01*
X14573801Y-15892650D02*
X14592849Y-15902174D01*
X14669039Y-16102174D02*
X14678563Y-16092650D01*
X14678563Y-16092650D02*
X14697611Y-16064079D01*
X14697611Y-16064079D02*
X14707134Y-16045031D01*
X14707134Y-16045031D02*
X14716658Y-16016460D01*
X14716658Y-16016460D02*
X14726182Y-15968841D01*
X14726182Y-15968841D02*
X14726182Y-15930746D01*
X14726182Y-15930746D02*
X14716658Y-15883127D01*
X14716658Y-15883127D02*
X14707134Y-15854555D01*
X14707134Y-15854555D02*
X14697611Y-15835508D01*
X14697611Y-15835508D02*
X14678563Y-15806936D01*
X14678563Y-15806936D02*
X14669039Y-15797412D01*
X9603500Y-16298500D02*
X9703500Y-16198500D01*
X9603500Y-16098500D01*
X9503500Y-16198500D01*
X9603500Y-16298500D01*
X9945229Y-16089984D02*
X10069039Y-16089984D01*
X10069039Y-16089984D02*
X10002372Y-16166174D01*
X10002372Y-16166174D02*
X10030944Y-16166174D01*
X10030944Y-16166174D02*
X10049991Y-16175698D01*
X10049991Y-16175698D02*
X10059515Y-16185222D01*
X10059515Y-16185222D02*
X10069039Y-16204269D01*
X10069039Y-16204269D02*
X10069039Y-16251888D01*
X10069039Y-16251888D02*
X10059515Y-16270936D01*
X10059515Y-16270936D02*
X10049991Y-16280460D01*
X10049991Y-16280460D02*
X10030944Y-16289984D01*
X10030944Y-16289984D02*
X9973801Y-16289984D01*
X9973801Y-16289984D02*
X9954753Y-16280460D01*
X9954753Y-16280460D02*
X9945229Y-16270936D01*
X10154753Y-16270936D02*
X10164277Y-16280460D01*
X10164277Y-16280460D02*
X10154753Y-16289984D01*
X10154753Y-16289984D02*
X10145229Y-16280460D01*
X10145229Y-16280460D02*
X10154753Y-16270936D01*
X10154753Y-16270936D02*
X10154753Y-16289984D01*
X10240467Y-16109031D02*
X10249991Y-16099508D01*
X10249991Y-16099508D02*
X10269039Y-16089984D01*
X10269039Y-16089984D02*
X10316658Y-16089984D01*
X10316658Y-16089984D02*
X10335705Y-16099508D01*
X10335705Y-16099508D02*
X10345229Y-16109031D01*
X10345229Y-16109031D02*
X10354753Y-16128079D01*
X10354753Y-16128079D02*
X10354753Y-16147127D01*
X10354753Y-16147127D02*
X10345229Y-16175698D01*
X10345229Y-16175698D02*
X10230944Y-16289984D01*
X10230944Y-16289984D02*
X10354753Y-16289984D01*
X10478563Y-16089984D02*
X10497610Y-16089984D01*
X10497610Y-16089984D02*
X10516658Y-16099508D01*
X10516658Y-16099508D02*
X10526182Y-16109031D01*
X10526182Y-16109031D02*
X10535705Y-16128079D01*
X10535705Y-16128079D02*
X10545229Y-16166174D01*
X10545229Y-16166174D02*
X10545229Y-16213793D01*
X10545229Y-16213793D02*
X10535705Y-16251888D01*
X10535705Y-16251888D02*
X10526182Y-16270936D01*
X10526182Y-16270936D02*
X10516658Y-16280460D01*
X10516658Y-16280460D02*
X10497610Y-16289984D01*
X10497610Y-16289984D02*
X10478563Y-16289984D01*
X10478563Y-16289984D02*
X10459515Y-16280460D01*
X10459515Y-16280460D02*
X10449991Y-16270936D01*
X10449991Y-16270936D02*
X10440467Y-16251888D01*
X10440467Y-16251888D02*
X10430944Y-16213793D01*
X10430944Y-16213793D02*
X10430944Y-16166174D01*
X10430944Y-16166174D02*
X10440467Y-16128079D01*
X10440467Y-16128079D02*
X10449991Y-16109031D01*
X10449991Y-16109031D02*
X10459515Y-16099508D01*
X10459515Y-16099508D02*
X10478563Y-16089984D01*
X10669039Y-16089984D02*
X10688086Y-16089984D01*
X10688086Y-16089984D02*
X10707134Y-16099508D01*
X10707134Y-16099508D02*
X10716658Y-16109031D01*
X10716658Y-16109031D02*
X10726182Y-16128079D01*
X10726182Y-16128079D02*
X10735705Y-16166174D01*
X10735705Y-16166174D02*
X10735705Y-16213793D01*
X10735705Y-16213793D02*
X10726182Y-16251888D01*
X10726182Y-16251888D02*
X10716658Y-16270936D01*
X10716658Y-16270936D02*
X10707134Y-16280460D01*
X10707134Y-16280460D02*
X10688086Y-16289984D01*
X10688086Y-16289984D02*
X10669039Y-16289984D01*
X10669039Y-16289984D02*
X10649991Y-16280460D01*
X10649991Y-16280460D02*
X10640467Y-16270936D01*
X10640467Y-16270936D02*
X10630944Y-16251888D01*
X10630944Y-16251888D02*
X10621420Y-16213793D01*
X10621420Y-16213793D02*
X10621420Y-16166174D01*
X10621420Y-16166174D02*
X10630944Y-16128079D01*
X10630944Y-16128079D02*
X10640467Y-16109031D01*
X10640467Y-16109031D02*
X10649991Y-16099508D01*
X10649991Y-16099508D02*
X10669039Y-16089984D01*
X10821420Y-16289984D02*
X10821420Y-16156650D01*
X10821420Y-16175698D02*
X10830944Y-16166174D01*
X10830944Y-16166174D02*
X10849991Y-16156650D01*
X10849991Y-16156650D02*
X10878563Y-16156650D01*
X10878563Y-16156650D02*
X10897610Y-16166174D01*
X10897610Y-16166174D02*
X10907134Y-16185222D01*
X10907134Y-16185222D02*
X10907134Y-16289984D01*
X10907134Y-16185222D02*
X10916658Y-16166174D01*
X10916658Y-16166174D02*
X10935705Y-16156650D01*
X10935705Y-16156650D02*
X10964277Y-16156650D01*
X10964277Y-16156650D02*
X10983325Y-16166174D01*
X10983325Y-16166174D02*
X10992848Y-16185222D01*
X10992848Y-16185222D02*
X10992848Y-16289984D01*
X11088086Y-16289984D02*
X11088086Y-16156650D01*
X11088086Y-16175698D02*
X11097610Y-16166174D01*
X11097610Y-16166174D02*
X11116658Y-16156650D01*
X11116658Y-16156650D02*
X11145229Y-16156650D01*
X11145229Y-16156650D02*
X11164277Y-16166174D01*
X11164277Y-16166174D02*
X11173801Y-16185222D01*
X11173801Y-16185222D02*
X11173801Y-16289984D01*
X11173801Y-16185222D02*
X11183325Y-16166174D01*
X11183325Y-16166174D02*
X11202372Y-16156650D01*
X11202372Y-16156650D02*
X11230943Y-16156650D01*
X11230943Y-16156650D02*
X11249991Y-16166174D01*
X11249991Y-16166174D02*
X11259515Y-16185222D01*
X11259515Y-16185222D02*
X11259515Y-16289984D01*
X11649991Y-16080460D02*
X11478563Y-16337603D01*
X11907134Y-16089984D02*
X11926182Y-16089984D01*
X11926182Y-16089984D02*
X11945229Y-16099508D01*
X11945229Y-16099508D02*
X11954753Y-16109031D01*
X11954753Y-16109031D02*
X11964277Y-16128079D01*
X11964277Y-16128079D02*
X11973801Y-16166174D01*
X11973801Y-16166174D02*
X11973801Y-16213793D01*
X11973801Y-16213793D02*
X11964277Y-16251888D01*
X11964277Y-16251888D02*
X11954753Y-16270936D01*
X11954753Y-16270936D02*
X11945229Y-16280460D01*
X11945229Y-16280460D02*
X11926182Y-16289984D01*
X11926182Y-16289984D02*
X11907134Y-16289984D01*
X11907134Y-16289984D02*
X11888086Y-16280460D01*
X11888086Y-16280460D02*
X11878563Y-16270936D01*
X11878563Y-16270936D02*
X11869039Y-16251888D01*
X11869039Y-16251888D02*
X11859515Y-16213793D01*
X11859515Y-16213793D02*
X11859515Y-16166174D01*
X11859515Y-16166174D02*
X11869039Y-16128079D01*
X11869039Y-16128079D02*
X11878563Y-16109031D01*
X11878563Y-16109031D02*
X11888086Y-16099508D01*
X11888086Y-16099508D02*
X11907134Y-16089984D01*
X12059515Y-16270936D02*
X12069039Y-16280460D01*
X12069039Y-16280460D02*
X12059515Y-16289984D01*
X12059515Y-16289984D02*
X12049991Y-16280460D01*
X12049991Y-16280460D02*
X12059515Y-16270936D01*
X12059515Y-16270936D02*
X12059515Y-16289984D01*
X12259515Y-16289984D02*
X12145229Y-16289984D01*
X12202372Y-16289984D02*
X12202372Y-16089984D01*
X12202372Y-16089984D02*
X12183325Y-16118555D01*
X12183325Y-16118555D02*
X12164277Y-16137603D01*
X12164277Y-16137603D02*
X12145229Y-16147127D01*
X12335706Y-16109031D02*
X12345229Y-16099508D01*
X12345229Y-16099508D02*
X12364277Y-16089984D01*
X12364277Y-16089984D02*
X12411896Y-16089984D01*
X12411896Y-16089984D02*
X12430944Y-16099508D01*
X12430944Y-16099508D02*
X12440467Y-16109031D01*
X12440467Y-16109031D02*
X12449991Y-16128079D01*
X12449991Y-16128079D02*
X12449991Y-16147127D01*
X12449991Y-16147127D02*
X12440467Y-16175698D01*
X12440467Y-16175698D02*
X12326182Y-16289984D01*
X12326182Y-16289984D02*
X12449991Y-16289984D01*
X12621420Y-16089984D02*
X12583325Y-16089984D01*
X12583325Y-16089984D02*
X12564277Y-16099508D01*
X12564277Y-16099508D02*
X12554753Y-16109031D01*
X12554753Y-16109031D02*
X12535706Y-16137603D01*
X12535706Y-16137603D02*
X12526182Y-16175698D01*
X12526182Y-16175698D02*
X12526182Y-16251888D01*
X12526182Y-16251888D02*
X12535706Y-16270936D01*
X12535706Y-16270936D02*
X12545229Y-16280460D01*
X12545229Y-16280460D02*
X12564277Y-16289984D01*
X12564277Y-16289984D02*
X12602372Y-16289984D01*
X12602372Y-16289984D02*
X12621420Y-16280460D01*
X12621420Y-16280460D02*
X12630944Y-16270936D01*
X12630944Y-16270936D02*
X12640467Y-16251888D01*
X12640467Y-16251888D02*
X12640467Y-16204269D01*
X12640467Y-16204269D02*
X12630944Y-16185222D01*
X12630944Y-16185222D02*
X12621420Y-16175698D01*
X12621420Y-16175698D02*
X12602372Y-16166174D01*
X12602372Y-16166174D02*
X12564277Y-16166174D01*
X12564277Y-16166174D02*
X12545229Y-16175698D01*
X12545229Y-16175698D02*
X12535706Y-16185222D01*
X12535706Y-16185222D02*
X12526182Y-16204269D01*
X12764277Y-16089984D02*
X12783325Y-16089984D01*
X12783325Y-16089984D02*
X12802372Y-16099508D01*
X12802372Y-16099508D02*
X12811896Y-16109031D01*
X12811896Y-16109031D02*
X12821420Y-16128079D01*
X12821420Y-16128079D02*
X12830944Y-16166174D01*
X12830944Y-16166174D02*
X12830944Y-16213793D01*
X12830944Y-16213793D02*
X12821420Y-16251888D01*
X12821420Y-16251888D02*
X12811896Y-16270936D01*
X12811896Y-16270936D02*
X12802372Y-16280460D01*
X12802372Y-16280460D02*
X12783325Y-16289984D01*
X12783325Y-16289984D02*
X12764277Y-16289984D01*
X12764277Y-16289984D02*
X12745229Y-16280460D01*
X12745229Y-16280460D02*
X12735706Y-16270936D01*
X12735706Y-16270936D02*
X12726182Y-16251888D01*
X12726182Y-16251888D02*
X12716658Y-16213793D01*
X12716658Y-16213793D02*
X12716658Y-16166174D01*
X12716658Y-16166174D02*
X12726182Y-16128079D01*
X12726182Y-16128079D02*
X12735706Y-16109031D01*
X12735706Y-16109031D02*
X12745229Y-16099508D01*
X12745229Y-16099508D02*
X12764277Y-16089984D01*
X12907134Y-16089984D02*
X12907134Y-16128079D01*
X12983325Y-16089984D02*
X12983325Y-16128079D01*
X13278563Y-16366174D02*
X13269039Y-16356650D01*
X13269039Y-16356650D02*
X13249991Y-16328079D01*
X13249991Y-16328079D02*
X13240468Y-16309031D01*
X13240468Y-16309031D02*
X13230944Y-16280460D01*
X13230944Y-16280460D02*
X13221420Y-16232841D01*
X13221420Y-16232841D02*
X13221420Y-16194746D01*
X13221420Y-16194746D02*
X13230944Y-16147127D01*
X13230944Y-16147127D02*
X13240468Y-16118555D01*
X13240468Y-16118555D02*
X13249991Y-16099508D01*
X13249991Y-16099508D02*
X13269039Y-16070936D01*
X13269039Y-16070936D02*
X13278563Y-16061412D01*
X13440468Y-16156650D02*
X13440468Y-16289984D01*
X13392848Y-16080460D02*
X13345229Y-16223317D01*
X13345229Y-16223317D02*
X13469039Y-16223317D01*
X13697610Y-16289984D02*
X13697610Y-16089984D01*
X13783325Y-16289984D02*
X13783325Y-16185222D01*
X13783325Y-16185222D02*
X13773801Y-16166174D01*
X13773801Y-16166174D02*
X13754753Y-16156650D01*
X13754753Y-16156650D02*
X13726182Y-16156650D01*
X13726182Y-16156650D02*
X13707134Y-16166174D01*
X13707134Y-16166174D02*
X13697610Y-16175698D01*
X13907134Y-16289984D02*
X13888087Y-16280460D01*
X13888087Y-16280460D02*
X13878563Y-16270936D01*
X13878563Y-16270936D02*
X13869039Y-16251888D01*
X13869039Y-16251888D02*
X13869039Y-16194746D01*
X13869039Y-16194746D02*
X13878563Y-16175698D01*
X13878563Y-16175698D02*
X13888087Y-16166174D01*
X13888087Y-16166174D02*
X13907134Y-16156650D01*
X13907134Y-16156650D02*
X13935706Y-16156650D01*
X13935706Y-16156650D02*
X13954753Y-16166174D01*
X13954753Y-16166174D02*
X13964277Y-16175698D01*
X13964277Y-16175698D02*
X13973801Y-16194746D01*
X13973801Y-16194746D02*
X13973801Y-16251888D01*
X13973801Y-16251888D02*
X13964277Y-16270936D01*
X13964277Y-16270936D02*
X13954753Y-16280460D01*
X13954753Y-16280460D02*
X13935706Y-16289984D01*
X13935706Y-16289984D02*
X13907134Y-16289984D01*
X14088087Y-16289984D02*
X14069039Y-16280460D01*
X14069039Y-16280460D02*
X14059515Y-16261412D01*
X14059515Y-16261412D02*
X14059515Y-16089984D01*
X14240468Y-16280460D02*
X14221420Y-16289984D01*
X14221420Y-16289984D02*
X14183325Y-16289984D01*
X14183325Y-16289984D02*
X14164277Y-16280460D01*
X14164277Y-16280460D02*
X14154753Y-16261412D01*
X14154753Y-16261412D02*
X14154753Y-16185222D01*
X14154753Y-16185222D02*
X14164277Y-16166174D01*
X14164277Y-16166174D02*
X14183325Y-16156650D01*
X14183325Y-16156650D02*
X14221420Y-16156650D01*
X14221420Y-16156650D02*
X14240468Y-16166174D01*
X14240468Y-16166174D02*
X14249991Y-16185222D01*
X14249991Y-16185222D02*
X14249991Y-16204269D01*
X14249991Y-16204269D02*
X14154753Y-16223317D01*
X14326182Y-16280460D02*
X14345230Y-16289984D01*
X14345230Y-16289984D02*
X14383325Y-16289984D01*
X14383325Y-16289984D02*
X14402372Y-16280460D01*
X14402372Y-16280460D02*
X14411896Y-16261412D01*
X14411896Y-16261412D02*
X14411896Y-16251888D01*
X14411896Y-16251888D02*
X14402372Y-16232841D01*
X14402372Y-16232841D02*
X14383325Y-16223317D01*
X14383325Y-16223317D02*
X14354753Y-16223317D01*
X14354753Y-16223317D02*
X14335706Y-16213793D01*
X14335706Y-16213793D02*
X14326182Y-16194746D01*
X14326182Y-16194746D02*
X14326182Y-16185222D01*
X14326182Y-16185222D02*
X14335706Y-16166174D01*
X14335706Y-16166174D02*
X14354753Y-16156650D01*
X14354753Y-16156650D02*
X14383325Y-16156650D01*
X14383325Y-16156650D02*
X14402372Y-16166174D01*
X14478563Y-16366174D02*
X14488087Y-16356650D01*
X14488087Y-16356650D02*
X14507134Y-16328079D01*
X14507134Y-16328079D02*
X14516658Y-16309031D01*
X14516658Y-16309031D02*
X14526182Y-16280460D01*
X14526182Y-16280460D02*
X14535706Y-16232841D01*
X14535706Y-16232841D02*
X14535706Y-16194746D01*
X14535706Y-16194746D02*
X14526182Y-16147127D01*
X14526182Y-16147127D02*
X14516658Y-16118555D01*
X14516658Y-16118555D02*
X14507134Y-16099508D01*
X14507134Y-16099508D02*
X14488087Y-16070936D01*
X14488087Y-16070936D02*
X14478563Y-16061412D01*
M02*
