G04 #@! TF.GenerationSoftware,KiCad,Pcbnew,9.0.5-9.0.5~ubuntu24.04.1*
G04 #@! TF.CreationDate,2025-12-01T21:58:57+00:00*
G04 #@! TF.ProjectId,PC6502-DUALTRANSPUTER,50433635-3032-42d4-9455-414c5452414e,rev?*
G04 #@! TF.SameCoordinates,Original*
G04 #@! TF.FileFunction,Paste,Top*
G04 #@! TF.FilePolarity,Positive*
%FSLAX46Y46*%
G04 Gerber Fmt 4.6, Leading zero omitted, Abs format (unit mm)*
G04 Created by KiCad (PCBNEW 9.0.5-9.0.5~ubuntu24.04.1) date 2025-12-01 21:58:57*
%MOMM*%
%LPD*%
G01*
G04 APERTURE LIST*
G04 Aperture macros list*
%AMRoundRect*
0 Rectangle with rounded corners*
0 $1 Rounding radius*
0 $2 $3 $4 $5 $6 $7 $8 $9 X,Y pos of 4 corners*
0 Add a 4 corners polygon primitive as box body*
4,1,4,$2,$3,$4,$5,$6,$7,$8,$9,$2,$3,0*
0 Add four circle primitives for the rounded corners*
1,1,$1+$1,$2,$3*
1,1,$1+$1,$4,$5*
1,1,$1+$1,$6,$7*
1,1,$1+$1,$8,$9*
0 Add four rect primitives between the rounded corners*
20,1,$1+$1,$2,$3,$4,$5,0*
20,1,$1+$1,$4,$5,$6,$7,0*
20,1,$1+$1,$6,$7,$8,$9,0*
20,1,$1+$1,$8,$9,$2,$3,0*%
G04 Aperture macros list end*
%ADD10RoundRect,0.237500X-0.237500X0.250000X-0.237500X-0.250000X0.237500X-0.250000X0.237500X0.250000X0*%
%ADD11RoundRect,0.237500X0.237500X-0.250000X0.237500X0.250000X-0.237500X0.250000X-0.237500X-0.250000X0*%
%ADD12RoundRect,0.100000X-0.637500X-0.100000X0.637500X-0.100000X0.637500X0.100000X-0.637500X0.100000X0*%
%ADD13RoundRect,0.250000X-0.650000X0.325000X-0.650000X-0.325000X0.650000X-0.325000X0.650000X0.325000X0*%
%ADD14RoundRect,0.250000X-0.475000X0.250000X-0.475000X-0.250000X0.475000X-0.250000X0.475000X0.250000X0*%
%ADD15RoundRect,0.225000X0.225000X0.250000X-0.225000X0.250000X-0.225000X-0.250000X0.225000X-0.250000X0*%
%ADD16RoundRect,0.225000X-0.225000X-0.250000X0.225000X-0.250000X0.225000X0.250000X-0.225000X0.250000X0*%
%ADD17RoundRect,0.250000X0.325000X0.650000X-0.325000X0.650000X-0.325000X-0.650000X0.325000X-0.650000X0*%
G04 APERTURE END LIST*
D10*
G04 #@! TO.C,R3*
X162100000Y-126937500D03*
X162100000Y-128762500D03*
G04 #@! TD*
G04 #@! TO.C,R1*
X154400000Y-127087500D03*
X154400000Y-128912500D03*
G04 #@! TD*
D11*
G04 #@! TO.C,R2*
X156916245Y-128917256D03*
X156916245Y-127092256D03*
G04 #@! TD*
D12*
G04 #@! TO.C,U3*
X136737500Y-135375000D03*
X136737500Y-136025000D03*
X136737500Y-136675000D03*
X136737500Y-137325000D03*
X136737500Y-137975000D03*
X136737500Y-138625000D03*
X136737500Y-139275000D03*
X136737500Y-139925000D03*
X136737500Y-140575000D03*
X136737500Y-141225000D03*
X142462500Y-141225000D03*
X142462500Y-140575000D03*
X142462500Y-139925000D03*
X142462500Y-139275000D03*
X142462500Y-138625000D03*
X142462500Y-137975000D03*
X142462500Y-137325000D03*
X142462500Y-136675000D03*
X142462500Y-136025000D03*
X142462500Y-135375000D03*
G04 #@! TD*
D13*
G04 #@! TO.C,C6*
X112310000Y-138015000D03*
X112310000Y-140965000D03*
G04 #@! TD*
D14*
G04 #@! TO.C,C8*
X108870000Y-138460000D03*
X108870000Y-140360000D03*
G04 #@! TD*
D10*
G04 #@! TO.C,R5*
X169450000Y-126937500D03*
X169450000Y-128762500D03*
G04 #@! TD*
G04 #@! TO.C,R7*
X176950000Y-126937500D03*
X176950000Y-128762500D03*
G04 #@! TD*
D11*
G04 #@! TO.C,R6*
X171937357Y-128745259D03*
X171937357Y-126920259D03*
G04 #@! TD*
G04 #@! TO.C,R8*
X179447914Y-128740439D03*
X179447914Y-126915439D03*
G04 #@! TD*
D15*
G04 #@! TO.C,C7*
X189425000Y-113500000D03*
X187875000Y-113500000D03*
G04 #@! TD*
G04 #@! TO.C,C4*
X190125000Y-76250000D03*
X188575000Y-76250000D03*
G04 #@! TD*
D16*
G04 #@! TO.C,C9*
X142650000Y-133000000D03*
X144200000Y-133000000D03*
G04 #@! TD*
D17*
G04 #@! TO.C,C5*
X189450000Y-115850000D03*
X186500000Y-115850000D03*
G04 #@! TD*
D11*
G04 #@! TO.C,R4*
X164598799Y-128745259D03*
X164598799Y-126920259D03*
G04 #@! TD*
D17*
G04 #@! TO.C,C3*
X190100000Y-78500000D03*
X187150000Y-78500000D03*
G04 #@! TD*
M02*
