G04 #@! TF.GenerationSoftware,KiCad,Pcbnew,9.0.5-9.0.5~ubuntu24.04.1*
G04 #@! TF.CreationDate,2025-12-01T21:58:57+00:00*
G04 #@! TF.ProjectId,PC6502-DUALTRANSPUTER,50433635-3032-42d4-9455-414c5452414e,rev?*
G04 #@! TF.SameCoordinates,Original*
G04 #@! TF.FileFunction,Legend,Bot*
G04 #@! TF.FilePolarity,Positive*
%FSLAX46Y46*%
G04 Gerber Fmt 4.6, Leading zero omitted, Abs format (unit mm)*
G04 Created by KiCad (PCBNEW 9.0.5-9.0.5~ubuntu24.04.1) date 2025-12-01 21:58:57*
%MOMM*%
%LPD*%
G01*
G04 APERTURE LIST*
G04 Aperture macros list*
%AMRoundRect*
0 Rectangle with rounded corners*
0 $1 Rounding radius*
0 $2 $3 $4 $5 $6 $7 $8 $9 X,Y pos of 4 corners*
0 Add a 4 corners polygon primitive as box body*
4,1,4,$2,$3,$4,$5,$6,$7,$8,$9,$2,$3,0*
0 Add four circle primitives for the rounded corners*
1,1,$1+$1,$2,$3*
1,1,$1+$1,$4,$5*
1,1,$1+$1,$6,$7*
1,1,$1+$1,$8,$9*
0 Add four rect primitives between the rounded corners*
20,1,$1+$1,$2,$3,$4,$5,0*
20,1,$1+$1,$4,$5,$6,$7,0*
20,1,$1+$1,$6,$7,$8,$9,0*
20,1,$1+$1,$8,$9,$2,$3,0*%
G04 Aperture macros list end*
%ADD10C,0.500000*%
%ADD11C,3.600000*%
%ADD12C,6.400000*%
%ADD13R,1.700000X1.700000*%
%ADD14C,1.700000*%
%ADD15C,1.381000*%
%ADD16RoundRect,0.190500X0.762000X0.444500X-0.762000X0.444500X-0.762000X-0.444500X0.762000X-0.444500X0*%
G04 APERTURE END LIST*
D10*
X129880918Y-61602756D02*
X129880918Y-60459899D01*
X129880918Y-61031327D02*
X127880918Y-61031327D01*
X127880918Y-61031327D02*
X128166632Y-60840851D01*
X128166632Y-60840851D02*
X128357108Y-60650375D01*
X128357108Y-60650375D02*
X128452346Y-60459899D01*
X129119013Y-63983709D02*
X129119013Y-65507519D01*
X129880918Y-68936090D02*
X129880918Y-67983709D01*
X129880918Y-67983709D02*
X127880918Y-67983709D01*
X129880918Y-70650376D02*
X129880918Y-69507519D01*
X129880918Y-70078947D02*
X127880918Y-70078947D01*
X127880918Y-70078947D02*
X128166632Y-69888471D01*
X128166632Y-69888471D02*
X128357108Y-69697995D01*
X128357108Y-69697995D02*
X128452346Y-69507519D01*
X127880918Y-71888471D02*
X127880918Y-72269424D01*
X127880918Y-72269424D02*
X127976156Y-72459900D01*
X127976156Y-72459900D02*
X128166632Y-72650376D01*
X128166632Y-72650376D02*
X128547584Y-72745614D01*
X128547584Y-72745614D02*
X129214251Y-72745614D01*
X129214251Y-72745614D02*
X129595203Y-72650376D01*
X129595203Y-72650376D02*
X129785680Y-72459900D01*
X129785680Y-72459900D02*
X129880918Y-72269424D01*
X129880918Y-72269424D02*
X129880918Y-71888471D01*
X129880918Y-71888471D02*
X129785680Y-71697995D01*
X129785680Y-71697995D02*
X129595203Y-71507519D01*
X129595203Y-71507519D02*
X129214251Y-71412281D01*
X129214251Y-71412281D02*
X128547584Y-71412281D01*
X128547584Y-71412281D02*
X128166632Y-71507519D01*
X128166632Y-71507519D02*
X127976156Y-71697995D01*
X127976156Y-71697995D02*
X127880918Y-71888471D01*
X127880918Y-73602757D02*
X129499965Y-73602757D01*
X129499965Y-73602757D02*
X129690441Y-73697995D01*
X129690441Y-73697995D02*
X129785680Y-73793233D01*
X129785680Y-73793233D02*
X129880918Y-73983709D01*
X129880918Y-73983709D02*
X129880918Y-74364662D01*
X129880918Y-74364662D02*
X129785680Y-74555138D01*
X129785680Y-74555138D02*
X129690441Y-74650376D01*
X129690441Y-74650376D02*
X129499965Y-74745614D01*
X129499965Y-74745614D02*
X127880918Y-74745614D01*
X127880918Y-75412281D02*
X127880918Y-76555138D01*
X129880918Y-75983709D02*
X127880918Y-75983709D01*
X131291282Y-60459899D02*
X131196044Y-60555137D01*
X131196044Y-60555137D02*
X131100806Y-60745613D01*
X131100806Y-60745613D02*
X131100806Y-61221804D01*
X131100806Y-61221804D02*
X131196044Y-61412280D01*
X131196044Y-61412280D02*
X131291282Y-61507518D01*
X131291282Y-61507518D02*
X131481758Y-61602756D01*
X131481758Y-61602756D02*
X131672234Y-61602756D01*
X131672234Y-61602756D02*
X131957948Y-61507518D01*
X131957948Y-61507518D02*
X133100806Y-60364661D01*
X133100806Y-60364661D02*
X133100806Y-61602756D01*
X132338901Y-63983709D02*
X132338901Y-65507519D01*
X133100806Y-68936090D02*
X133100806Y-67983709D01*
X133100806Y-67983709D02*
X131100806Y-67983709D01*
X133100806Y-70650376D02*
X133100806Y-69507519D01*
X133100806Y-70078947D02*
X131100806Y-70078947D01*
X131100806Y-70078947D02*
X131386520Y-69888471D01*
X131386520Y-69888471D02*
X131576996Y-69697995D01*
X131576996Y-69697995D02*
X131672234Y-69507519D01*
X133100806Y-71507519D02*
X131100806Y-71507519D01*
X133100806Y-72459900D02*
X131100806Y-72459900D01*
X131100806Y-72459900D02*
X133100806Y-73602757D01*
X133100806Y-73602757D02*
X131100806Y-73602757D01*
X134320694Y-60364661D02*
X134320694Y-61602756D01*
X134320694Y-61602756D02*
X135082598Y-60936089D01*
X135082598Y-60936089D02*
X135082598Y-61221804D01*
X135082598Y-61221804D02*
X135177836Y-61412280D01*
X135177836Y-61412280D02*
X135273075Y-61507518D01*
X135273075Y-61507518D02*
X135463551Y-61602756D01*
X135463551Y-61602756D02*
X135939741Y-61602756D01*
X135939741Y-61602756D02*
X136130217Y-61507518D01*
X136130217Y-61507518D02*
X136225456Y-61412280D01*
X136225456Y-61412280D02*
X136320694Y-61221804D01*
X136320694Y-61221804D02*
X136320694Y-60650375D01*
X136320694Y-60650375D02*
X136225456Y-60459899D01*
X136225456Y-60459899D02*
X136130217Y-60364661D01*
X135558789Y-63983709D02*
X135558789Y-65507519D01*
X134415932Y-69031328D02*
X134320694Y-68840852D01*
X134320694Y-68840852D02*
X134320694Y-68555138D01*
X134320694Y-68555138D02*
X134415932Y-68269423D01*
X134415932Y-68269423D02*
X134606408Y-68078947D01*
X134606408Y-68078947D02*
X134796884Y-67983709D01*
X134796884Y-67983709D02*
X135177836Y-67888471D01*
X135177836Y-67888471D02*
X135463551Y-67888471D01*
X135463551Y-67888471D02*
X135844503Y-67983709D01*
X135844503Y-67983709D02*
X136034979Y-68078947D01*
X136034979Y-68078947D02*
X136225456Y-68269423D01*
X136225456Y-68269423D02*
X136320694Y-68555138D01*
X136320694Y-68555138D02*
X136320694Y-68745614D01*
X136320694Y-68745614D02*
X136225456Y-69031328D01*
X136225456Y-69031328D02*
X136130217Y-69126566D01*
X136130217Y-69126566D02*
X135463551Y-69126566D01*
X135463551Y-69126566D02*
X135463551Y-68745614D01*
X136320694Y-69983709D02*
X134320694Y-69983709D01*
X134320694Y-69983709D02*
X136320694Y-71126566D01*
X136320694Y-71126566D02*
X134320694Y-71126566D01*
X136320694Y-72078947D02*
X134320694Y-72078947D01*
X134320694Y-72078947D02*
X134320694Y-72555137D01*
X134320694Y-72555137D02*
X134415932Y-72840852D01*
X134415932Y-72840852D02*
X134606408Y-73031328D01*
X134606408Y-73031328D02*
X134796884Y-73126566D01*
X134796884Y-73126566D02*
X135177836Y-73221804D01*
X135177836Y-73221804D02*
X135463551Y-73221804D01*
X135463551Y-73221804D02*
X135844503Y-73126566D01*
X135844503Y-73126566D02*
X136034979Y-73031328D01*
X136034979Y-73031328D02*
X136225456Y-72840852D01*
X136225456Y-72840852D02*
X136320694Y-72555137D01*
X136320694Y-72555137D02*
X136320694Y-72078947D01*
X138207248Y-61412280D02*
X139540582Y-61412280D01*
X137445344Y-60936089D02*
X138873915Y-60459899D01*
X138873915Y-60459899D02*
X138873915Y-61697994D01*
X138778677Y-63983709D02*
X138778677Y-65507519D01*
X137635820Y-69031328D02*
X137540582Y-68840852D01*
X137540582Y-68840852D02*
X137540582Y-68555138D01*
X137540582Y-68555138D02*
X137635820Y-68269423D01*
X137635820Y-68269423D02*
X137826296Y-68078947D01*
X137826296Y-68078947D02*
X138016772Y-67983709D01*
X138016772Y-67983709D02*
X138397724Y-67888471D01*
X138397724Y-67888471D02*
X138683439Y-67888471D01*
X138683439Y-67888471D02*
X139064391Y-67983709D01*
X139064391Y-67983709D02*
X139254867Y-68078947D01*
X139254867Y-68078947D02*
X139445344Y-68269423D01*
X139445344Y-68269423D02*
X139540582Y-68555138D01*
X139540582Y-68555138D02*
X139540582Y-68745614D01*
X139540582Y-68745614D02*
X139445344Y-69031328D01*
X139445344Y-69031328D02*
X139350105Y-69126566D01*
X139350105Y-69126566D02*
X138683439Y-69126566D01*
X138683439Y-69126566D02*
X138683439Y-68745614D01*
X139540582Y-69983709D02*
X137540582Y-69983709D01*
X137540582Y-69983709D02*
X139540582Y-71126566D01*
X139540582Y-71126566D02*
X137540582Y-71126566D01*
X139540582Y-72078947D02*
X137540582Y-72078947D01*
X137540582Y-72078947D02*
X137540582Y-72555137D01*
X137540582Y-72555137D02*
X137635820Y-72840852D01*
X137635820Y-72840852D02*
X137826296Y-73031328D01*
X137826296Y-73031328D02*
X138016772Y-73126566D01*
X138016772Y-73126566D02*
X138397724Y-73221804D01*
X138397724Y-73221804D02*
X138683439Y-73221804D01*
X138683439Y-73221804D02*
X139064391Y-73126566D01*
X139064391Y-73126566D02*
X139254867Y-73031328D01*
X139254867Y-73031328D02*
X139445344Y-72840852D01*
X139445344Y-72840852D02*
X139540582Y-72555137D01*
X139540582Y-72555137D02*
X139540582Y-72078947D01*
X140760470Y-61507518D02*
X140760470Y-60555137D01*
X140760470Y-60555137D02*
X141712851Y-60459899D01*
X141712851Y-60459899D02*
X141617612Y-60555137D01*
X141617612Y-60555137D02*
X141522374Y-60745613D01*
X141522374Y-60745613D02*
X141522374Y-61221804D01*
X141522374Y-61221804D02*
X141617612Y-61412280D01*
X141617612Y-61412280D02*
X141712851Y-61507518D01*
X141712851Y-61507518D02*
X141903327Y-61602756D01*
X141903327Y-61602756D02*
X142379517Y-61602756D01*
X142379517Y-61602756D02*
X142569993Y-61507518D01*
X142569993Y-61507518D02*
X142665232Y-61412280D01*
X142665232Y-61412280D02*
X142760470Y-61221804D01*
X142760470Y-61221804D02*
X142760470Y-60745613D01*
X142760470Y-60745613D02*
X142665232Y-60555137D01*
X142665232Y-60555137D02*
X142569993Y-60459899D01*
X141998565Y-63983709D02*
X141998565Y-65507519D01*
X142760470Y-68936090D02*
X142760470Y-67983709D01*
X142760470Y-67983709D02*
X140760470Y-67983709D01*
X140950946Y-69507519D02*
X140855708Y-69602757D01*
X140855708Y-69602757D02*
X140760470Y-69793233D01*
X140760470Y-69793233D02*
X140760470Y-70269424D01*
X140760470Y-70269424D02*
X140855708Y-70459900D01*
X140855708Y-70459900D02*
X140950946Y-70555138D01*
X140950946Y-70555138D02*
X141141422Y-70650376D01*
X141141422Y-70650376D02*
X141331898Y-70650376D01*
X141331898Y-70650376D02*
X141617612Y-70555138D01*
X141617612Y-70555138D02*
X142760470Y-69412281D01*
X142760470Y-69412281D02*
X142760470Y-70650376D01*
X140760470Y-71888471D02*
X140760470Y-72269424D01*
X140760470Y-72269424D02*
X140855708Y-72459900D01*
X140855708Y-72459900D02*
X141046184Y-72650376D01*
X141046184Y-72650376D02*
X141427136Y-72745614D01*
X141427136Y-72745614D02*
X142093803Y-72745614D01*
X142093803Y-72745614D02*
X142474755Y-72650376D01*
X142474755Y-72650376D02*
X142665232Y-72459900D01*
X142665232Y-72459900D02*
X142760470Y-72269424D01*
X142760470Y-72269424D02*
X142760470Y-71888471D01*
X142760470Y-71888471D02*
X142665232Y-71697995D01*
X142665232Y-71697995D02*
X142474755Y-71507519D01*
X142474755Y-71507519D02*
X142093803Y-71412281D01*
X142093803Y-71412281D02*
X141427136Y-71412281D01*
X141427136Y-71412281D02*
X141046184Y-71507519D01*
X141046184Y-71507519D02*
X140855708Y-71697995D01*
X140855708Y-71697995D02*
X140760470Y-71888471D01*
X140760470Y-73602757D02*
X142379517Y-73602757D01*
X142379517Y-73602757D02*
X142569993Y-73697995D01*
X142569993Y-73697995D02*
X142665232Y-73793233D01*
X142665232Y-73793233D02*
X142760470Y-73983709D01*
X142760470Y-73983709D02*
X142760470Y-74364662D01*
X142760470Y-74364662D02*
X142665232Y-74555138D01*
X142665232Y-74555138D02*
X142569993Y-74650376D01*
X142569993Y-74650376D02*
X142379517Y-74745614D01*
X142379517Y-74745614D02*
X140760470Y-74745614D01*
X140760470Y-75412281D02*
X140760470Y-76555138D01*
X142760470Y-75983709D02*
X140760470Y-75983709D01*
X143980358Y-61412280D02*
X143980358Y-61031327D01*
X143980358Y-61031327D02*
X144075596Y-60840851D01*
X144075596Y-60840851D02*
X144170834Y-60745613D01*
X144170834Y-60745613D02*
X144456548Y-60555137D01*
X144456548Y-60555137D02*
X144837500Y-60459899D01*
X144837500Y-60459899D02*
X145599405Y-60459899D01*
X145599405Y-60459899D02*
X145789881Y-60555137D01*
X145789881Y-60555137D02*
X145885120Y-60650375D01*
X145885120Y-60650375D02*
X145980358Y-60840851D01*
X145980358Y-60840851D02*
X145980358Y-61221804D01*
X145980358Y-61221804D02*
X145885120Y-61412280D01*
X145885120Y-61412280D02*
X145789881Y-61507518D01*
X145789881Y-61507518D02*
X145599405Y-61602756D01*
X145599405Y-61602756D02*
X145123215Y-61602756D01*
X145123215Y-61602756D02*
X144932739Y-61507518D01*
X144932739Y-61507518D02*
X144837500Y-61412280D01*
X144837500Y-61412280D02*
X144742262Y-61221804D01*
X144742262Y-61221804D02*
X144742262Y-60840851D01*
X144742262Y-60840851D02*
X144837500Y-60650375D01*
X144837500Y-60650375D02*
X144932739Y-60555137D01*
X144932739Y-60555137D02*
X145123215Y-60459899D01*
X145218453Y-63983709D02*
X145218453Y-65507519D01*
X145980358Y-68936090D02*
X145980358Y-67983709D01*
X145980358Y-67983709D02*
X143980358Y-67983709D01*
X144170834Y-69507519D02*
X144075596Y-69602757D01*
X144075596Y-69602757D02*
X143980358Y-69793233D01*
X143980358Y-69793233D02*
X143980358Y-70269424D01*
X143980358Y-70269424D02*
X144075596Y-70459900D01*
X144075596Y-70459900D02*
X144170834Y-70555138D01*
X144170834Y-70555138D02*
X144361310Y-70650376D01*
X144361310Y-70650376D02*
X144551786Y-70650376D01*
X144551786Y-70650376D02*
X144837500Y-70555138D01*
X144837500Y-70555138D02*
X145980358Y-69412281D01*
X145980358Y-69412281D02*
X145980358Y-70650376D01*
X145980358Y-71507519D02*
X143980358Y-71507519D01*
X145980358Y-72459900D02*
X143980358Y-72459900D01*
X143980358Y-72459900D02*
X145980358Y-73602757D01*
X145980358Y-73602757D02*
X143980358Y-73602757D01*
X147200246Y-60364661D02*
X147200246Y-61697994D01*
X147200246Y-61697994D02*
X149200246Y-60840851D01*
X148438341Y-63983709D02*
X148438341Y-65507519D01*
X147295484Y-69031328D02*
X147200246Y-68840852D01*
X147200246Y-68840852D02*
X147200246Y-68555138D01*
X147200246Y-68555138D02*
X147295484Y-68269423D01*
X147295484Y-68269423D02*
X147485960Y-68078947D01*
X147485960Y-68078947D02*
X147676436Y-67983709D01*
X147676436Y-67983709D02*
X148057388Y-67888471D01*
X148057388Y-67888471D02*
X148343103Y-67888471D01*
X148343103Y-67888471D02*
X148724055Y-67983709D01*
X148724055Y-67983709D02*
X148914531Y-68078947D01*
X148914531Y-68078947D02*
X149105008Y-68269423D01*
X149105008Y-68269423D02*
X149200246Y-68555138D01*
X149200246Y-68555138D02*
X149200246Y-68745614D01*
X149200246Y-68745614D02*
X149105008Y-69031328D01*
X149105008Y-69031328D02*
X149009769Y-69126566D01*
X149009769Y-69126566D02*
X148343103Y-69126566D01*
X148343103Y-69126566D02*
X148343103Y-68745614D01*
X149200246Y-69983709D02*
X147200246Y-69983709D01*
X147200246Y-69983709D02*
X149200246Y-71126566D01*
X149200246Y-71126566D02*
X147200246Y-71126566D01*
X149200246Y-72078947D02*
X147200246Y-72078947D01*
X147200246Y-72078947D02*
X147200246Y-72555137D01*
X147200246Y-72555137D02*
X147295484Y-72840852D01*
X147295484Y-72840852D02*
X147485960Y-73031328D01*
X147485960Y-73031328D02*
X147676436Y-73126566D01*
X147676436Y-73126566D02*
X148057388Y-73221804D01*
X148057388Y-73221804D02*
X148343103Y-73221804D01*
X148343103Y-73221804D02*
X148724055Y-73126566D01*
X148724055Y-73126566D02*
X148914531Y-73031328D01*
X148914531Y-73031328D02*
X149105008Y-72840852D01*
X149105008Y-72840852D02*
X149200246Y-72555137D01*
X149200246Y-72555137D02*
X149200246Y-72078947D01*
X151277276Y-60840851D02*
X151182038Y-60650375D01*
X151182038Y-60650375D02*
X151086800Y-60555137D01*
X151086800Y-60555137D02*
X150896324Y-60459899D01*
X150896324Y-60459899D02*
X150801086Y-60459899D01*
X150801086Y-60459899D02*
X150610610Y-60555137D01*
X150610610Y-60555137D02*
X150515372Y-60650375D01*
X150515372Y-60650375D02*
X150420134Y-60840851D01*
X150420134Y-60840851D02*
X150420134Y-61221804D01*
X150420134Y-61221804D02*
X150515372Y-61412280D01*
X150515372Y-61412280D02*
X150610610Y-61507518D01*
X150610610Y-61507518D02*
X150801086Y-61602756D01*
X150801086Y-61602756D02*
X150896324Y-61602756D01*
X150896324Y-61602756D02*
X151086800Y-61507518D01*
X151086800Y-61507518D02*
X151182038Y-61412280D01*
X151182038Y-61412280D02*
X151277276Y-61221804D01*
X151277276Y-61221804D02*
X151277276Y-60840851D01*
X151277276Y-60840851D02*
X151372515Y-60650375D01*
X151372515Y-60650375D02*
X151467753Y-60555137D01*
X151467753Y-60555137D02*
X151658229Y-60459899D01*
X151658229Y-60459899D02*
X152039181Y-60459899D01*
X152039181Y-60459899D02*
X152229657Y-60555137D01*
X152229657Y-60555137D02*
X152324896Y-60650375D01*
X152324896Y-60650375D02*
X152420134Y-60840851D01*
X152420134Y-60840851D02*
X152420134Y-61221804D01*
X152420134Y-61221804D02*
X152324896Y-61412280D01*
X152324896Y-61412280D02*
X152229657Y-61507518D01*
X152229657Y-61507518D02*
X152039181Y-61602756D01*
X152039181Y-61602756D02*
X151658229Y-61602756D01*
X151658229Y-61602756D02*
X151467753Y-61507518D01*
X151467753Y-61507518D02*
X151372515Y-61412280D01*
X151372515Y-61412280D02*
X151277276Y-61221804D01*
X151658229Y-63983709D02*
X151658229Y-65507519D01*
X150515372Y-69031328D02*
X150420134Y-68840852D01*
X150420134Y-68840852D02*
X150420134Y-68555138D01*
X150420134Y-68555138D02*
X150515372Y-68269423D01*
X150515372Y-68269423D02*
X150705848Y-68078947D01*
X150705848Y-68078947D02*
X150896324Y-67983709D01*
X150896324Y-67983709D02*
X151277276Y-67888471D01*
X151277276Y-67888471D02*
X151562991Y-67888471D01*
X151562991Y-67888471D02*
X151943943Y-67983709D01*
X151943943Y-67983709D02*
X152134419Y-68078947D01*
X152134419Y-68078947D02*
X152324896Y-68269423D01*
X152324896Y-68269423D02*
X152420134Y-68555138D01*
X152420134Y-68555138D02*
X152420134Y-68745614D01*
X152420134Y-68745614D02*
X152324896Y-69031328D01*
X152324896Y-69031328D02*
X152229657Y-69126566D01*
X152229657Y-69126566D02*
X151562991Y-69126566D01*
X151562991Y-69126566D02*
X151562991Y-68745614D01*
X152420134Y-69983709D02*
X150420134Y-69983709D01*
X150420134Y-69983709D02*
X152420134Y-71126566D01*
X152420134Y-71126566D02*
X150420134Y-71126566D01*
X152420134Y-72078947D02*
X150420134Y-72078947D01*
X150420134Y-72078947D02*
X150420134Y-72555137D01*
X150420134Y-72555137D02*
X150515372Y-72840852D01*
X150515372Y-72840852D02*
X150705848Y-73031328D01*
X150705848Y-73031328D02*
X150896324Y-73126566D01*
X150896324Y-73126566D02*
X151277276Y-73221804D01*
X151277276Y-73221804D02*
X151562991Y-73221804D01*
X151562991Y-73221804D02*
X151943943Y-73126566D01*
X151943943Y-73126566D02*
X152134419Y-73031328D01*
X152134419Y-73031328D02*
X152324896Y-72840852D01*
X152324896Y-72840852D02*
X152420134Y-72555137D01*
X152420134Y-72555137D02*
X152420134Y-72078947D01*
X155640022Y-60650375D02*
X155640022Y-61031327D01*
X155640022Y-61031327D02*
X155544784Y-61221804D01*
X155544784Y-61221804D02*
X155449545Y-61317042D01*
X155449545Y-61317042D02*
X155163831Y-61507518D01*
X155163831Y-61507518D02*
X154782879Y-61602756D01*
X154782879Y-61602756D02*
X154020974Y-61602756D01*
X154020974Y-61602756D02*
X153830498Y-61507518D01*
X153830498Y-61507518D02*
X153735260Y-61412280D01*
X153735260Y-61412280D02*
X153640022Y-61221804D01*
X153640022Y-61221804D02*
X153640022Y-60840851D01*
X153640022Y-60840851D02*
X153735260Y-60650375D01*
X153735260Y-60650375D02*
X153830498Y-60555137D01*
X153830498Y-60555137D02*
X154020974Y-60459899D01*
X154020974Y-60459899D02*
X154497164Y-60459899D01*
X154497164Y-60459899D02*
X154687641Y-60555137D01*
X154687641Y-60555137D02*
X154782879Y-60650375D01*
X154782879Y-60650375D02*
X154878117Y-60840851D01*
X154878117Y-60840851D02*
X154878117Y-61221804D01*
X154878117Y-61221804D02*
X154782879Y-61412280D01*
X154782879Y-61412280D02*
X154687641Y-61507518D01*
X154687641Y-61507518D02*
X154497164Y-61602756D01*
X154878117Y-63983709D02*
X154878117Y-65507519D01*
X155640022Y-68936090D02*
X155640022Y-67983709D01*
X155640022Y-67983709D02*
X153640022Y-67983709D01*
X153640022Y-69412281D02*
X153640022Y-70650376D01*
X153640022Y-70650376D02*
X154401926Y-69983709D01*
X154401926Y-69983709D02*
X154401926Y-70269424D01*
X154401926Y-70269424D02*
X154497164Y-70459900D01*
X154497164Y-70459900D02*
X154592403Y-70555138D01*
X154592403Y-70555138D02*
X154782879Y-70650376D01*
X154782879Y-70650376D02*
X155259069Y-70650376D01*
X155259069Y-70650376D02*
X155449545Y-70555138D01*
X155449545Y-70555138D02*
X155544784Y-70459900D01*
X155544784Y-70459900D02*
X155640022Y-70269424D01*
X155640022Y-70269424D02*
X155640022Y-69697995D01*
X155640022Y-69697995D02*
X155544784Y-69507519D01*
X155544784Y-69507519D02*
X155449545Y-69412281D01*
X153640022Y-71888471D02*
X153640022Y-72269424D01*
X153640022Y-72269424D02*
X153735260Y-72459900D01*
X153735260Y-72459900D02*
X153925736Y-72650376D01*
X153925736Y-72650376D02*
X154306688Y-72745614D01*
X154306688Y-72745614D02*
X154973355Y-72745614D01*
X154973355Y-72745614D02*
X155354307Y-72650376D01*
X155354307Y-72650376D02*
X155544784Y-72459900D01*
X155544784Y-72459900D02*
X155640022Y-72269424D01*
X155640022Y-72269424D02*
X155640022Y-71888471D01*
X155640022Y-71888471D02*
X155544784Y-71697995D01*
X155544784Y-71697995D02*
X155354307Y-71507519D01*
X155354307Y-71507519D02*
X154973355Y-71412281D01*
X154973355Y-71412281D02*
X154306688Y-71412281D01*
X154306688Y-71412281D02*
X153925736Y-71507519D01*
X153925736Y-71507519D02*
X153735260Y-71697995D01*
X153735260Y-71697995D02*
X153640022Y-71888471D01*
X153640022Y-73602757D02*
X155259069Y-73602757D01*
X155259069Y-73602757D02*
X155449545Y-73697995D01*
X155449545Y-73697995D02*
X155544784Y-73793233D01*
X155544784Y-73793233D02*
X155640022Y-73983709D01*
X155640022Y-73983709D02*
X155640022Y-74364662D01*
X155640022Y-74364662D02*
X155544784Y-74555138D01*
X155544784Y-74555138D02*
X155449545Y-74650376D01*
X155449545Y-74650376D02*
X155259069Y-74745614D01*
X155259069Y-74745614D02*
X153640022Y-74745614D01*
X153640022Y-75412281D02*
X153640022Y-76555138D01*
X155640022Y-75983709D02*
X153640022Y-75983709D01*
X158859910Y-61602756D02*
X158859910Y-60459899D01*
X158859910Y-61031327D02*
X156859910Y-61031327D01*
X156859910Y-61031327D02*
X157145624Y-60840851D01*
X157145624Y-60840851D02*
X157336100Y-60650375D01*
X157336100Y-60650375D02*
X157431338Y-60459899D01*
X156859910Y-62840851D02*
X156859910Y-63031328D01*
X156859910Y-63031328D02*
X156955148Y-63221804D01*
X156955148Y-63221804D02*
X157050386Y-63317042D01*
X157050386Y-63317042D02*
X157240862Y-63412280D01*
X157240862Y-63412280D02*
X157621814Y-63507518D01*
X157621814Y-63507518D02*
X158098005Y-63507518D01*
X158098005Y-63507518D02*
X158478957Y-63412280D01*
X158478957Y-63412280D02*
X158669433Y-63317042D01*
X158669433Y-63317042D02*
X158764672Y-63221804D01*
X158764672Y-63221804D02*
X158859910Y-63031328D01*
X158859910Y-63031328D02*
X158859910Y-62840851D01*
X158859910Y-62840851D02*
X158764672Y-62650375D01*
X158764672Y-62650375D02*
X158669433Y-62555137D01*
X158669433Y-62555137D02*
X158478957Y-62459899D01*
X158478957Y-62459899D02*
X158098005Y-62364661D01*
X158098005Y-62364661D02*
X157621814Y-62364661D01*
X157621814Y-62364661D02*
X157240862Y-62459899D01*
X157240862Y-62459899D02*
X157050386Y-62555137D01*
X157050386Y-62555137D02*
X156955148Y-62650375D01*
X156955148Y-62650375D02*
X156859910Y-62840851D01*
X158098005Y-64364661D02*
X158098005Y-65888471D01*
X158859910Y-69317042D02*
X158859910Y-68364661D01*
X158859910Y-68364661D02*
X156859910Y-68364661D01*
X156859910Y-69793233D02*
X156859910Y-71031328D01*
X156859910Y-71031328D02*
X157621814Y-70364661D01*
X157621814Y-70364661D02*
X157621814Y-70650376D01*
X157621814Y-70650376D02*
X157717052Y-70840852D01*
X157717052Y-70840852D02*
X157812291Y-70936090D01*
X157812291Y-70936090D02*
X158002767Y-71031328D01*
X158002767Y-71031328D02*
X158478957Y-71031328D01*
X158478957Y-71031328D02*
X158669433Y-70936090D01*
X158669433Y-70936090D02*
X158764672Y-70840852D01*
X158764672Y-70840852D02*
X158859910Y-70650376D01*
X158859910Y-70650376D02*
X158859910Y-70078947D01*
X158859910Y-70078947D02*
X158764672Y-69888471D01*
X158764672Y-69888471D02*
X158669433Y-69793233D01*
X158859910Y-71888471D02*
X156859910Y-71888471D01*
X158859910Y-72840852D02*
X156859910Y-72840852D01*
X156859910Y-72840852D02*
X158859910Y-73983709D01*
X158859910Y-73983709D02*
X156859910Y-73983709D01*
X162079798Y-61602756D02*
X162079798Y-60459899D01*
X162079798Y-61031327D02*
X160079798Y-61031327D01*
X160079798Y-61031327D02*
X160365512Y-60840851D01*
X160365512Y-60840851D02*
X160555988Y-60650375D01*
X160555988Y-60650375D02*
X160651226Y-60459899D01*
X162079798Y-63507518D02*
X162079798Y-62364661D01*
X162079798Y-62936089D02*
X160079798Y-62936089D01*
X160079798Y-62936089D02*
X160365512Y-62745613D01*
X160365512Y-62745613D02*
X160555988Y-62555137D01*
X160555988Y-62555137D02*
X160651226Y-62364661D01*
X161317893Y-64364661D02*
X161317893Y-65888471D01*
X160175036Y-69412280D02*
X160079798Y-69221804D01*
X160079798Y-69221804D02*
X160079798Y-68936090D01*
X160079798Y-68936090D02*
X160175036Y-68650375D01*
X160175036Y-68650375D02*
X160365512Y-68459899D01*
X160365512Y-68459899D02*
X160555988Y-68364661D01*
X160555988Y-68364661D02*
X160936940Y-68269423D01*
X160936940Y-68269423D02*
X161222655Y-68269423D01*
X161222655Y-68269423D02*
X161603607Y-68364661D01*
X161603607Y-68364661D02*
X161794083Y-68459899D01*
X161794083Y-68459899D02*
X161984560Y-68650375D01*
X161984560Y-68650375D02*
X162079798Y-68936090D01*
X162079798Y-68936090D02*
X162079798Y-69126566D01*
X162079798Y-69126566D02*
X161984560Y-69412280D01*
X161984560Y-69412280D02*
X161889321Y-69507518D01*
X161889321Y-69507518D02*
X161222655Y-69507518D01*
X161222655Y-69507518D02*
X161222655Y-69126566D01*
X162079798Y-70364661D02*
X160079798Y-70364661D01*
X160079798Y-70364661D02*
X162079798Y-71507518D01*
X162079798Y-71507518D02*
X160079798Y-71507518D01*
X162079798Y-72459899D02*
X160079798Y-72459899D01*
X160079798Y-72459899D02*
X160079798Y-72936089D01*
X160079798Y-72936089D02*
X160175036Y-73221804D01*
X160175036Y-73221804D02*
X160365512Y-73412280D01*
X160365512Y-73412280D02*
X160555988Y-73507518D01*
X160555988Y-73507518D02*
X160936940Y-73602756D01*
X160936940Y-73602756D02*
X161222655Y-73602756D01*
X161222655Y-73602756D02*
X161603607Y-73507518D01*
X161603607Y-73507518D02*
X161794083Y-73412280D01*
X161794083Y-73412280D02*
X161984560Y-73221804D01*
X161984560Y-73221804D02*
X162079798Y-72936089D01*
X162079798Y-72936089D02*
X162079798Y-72459899D01*
X165299686Y-61602756D02*
X165299686Y-60459899D01*
X165299686Y-61031327D02*
X163299686Y-61031327D01*
X163299686Y-61031327D02*
X163585400Y-60840851D01*
X163585400Y-60840851D02*
X163775876Y-60650375D01*
X163775876Y-60650375D02*
X163871114Y-60459899D01*
X163490162Y-62364661D02*
X163394924Y-62459899D01*
X163394924Y-62459899D02*
X163299686Y-62650375D01*
X163299686Y-62650375D02*
X163299686Y-63126566D01*
X163299686Y-63126566D02*
X163394924Y-63317042D01*
X163394924Y-63317042D02*
X163490162Y-63412280D01*
X163490162Y-63412280D02*
X163680638Y-63507518D01*
X163680638Y-63507518D02*
X163871114Y-63507518D01*
X163871114Y-63507518D02*
X164156828Y-63412280D01*
X164156828Y-63412280D02*
X165299686Y-62269423D01*
X165299686Y-62269423D02*
X165299686Y-63507518D01*
X164537781Y-64364661D02*
X164537781Y-65888471D01*
X163394924Y-69412280D02*
X163299686Y-69221804D01*
X163299686Y-69221804D02*
X163299686Y-68936090D01*
X163299686Y-68936090D02*
X163394924Y-68650375D01*
X163394924Y-68650375D02*
X163585400Y-68459899D01*
X163585400Y-68459899D02*
X163775876Y-68364661D01*
X163775876Y-68364661D02*
X164156828Y-68269423D01*
X164156828Y-68269423D02*
X164442543Y-68269423D01*
X164442543Y-68269423D02*
X164823495Y-68364661D01*
X164823495Y-68364661D02*
X165013971Y-68459899D01*
X165013971Y-68459899D02*
X165204448Y-68650375D01*
X165204448Y-68650375D02*
X165299686Y-68936090D01*
X165299686Y-68936090D02*
X165299686Y-69126566D01*
X165299686Y-69126566D02*
X165204448Y-69412280D01*
X165204448Y-69412280D02*
X165109209Y-69507518D01*
X165109209Y-69507518D02*
X164442543Y-69507518D01*
X164442543Y-69507518D02*
X164442543Y-69126566D01*
X165299686Y-70364661D02*
X163299686Y-70364661D01*
X163299686Y-70364661D02*
X165299686Y-71507518D01*
X165299686Y-71507518D02*
X163299686Y-71507518D01*
X165299686Y-72459899D02*
X163299686Y-72459899D01*
X163299686Y-72459899D02*
X163299686Y-72936089D01*
X163299686Y-72936089D02*
X163394924Y-73221804D01*
X163394924Y-73221804D02*
X163585400Y-73412280D01*
X163585400Y-73412280D02*
X163775876Y-73507518D01*
X163775876Y-73507518D02*
X164156828Y-73602756D01*
X164156828Y-73602756D02*
X164442543Y-73602756D01*
X164442543Y-73602756D02*
X164823495Y-73507518D01*
X164823495Y-73507518D02*
X165013971Y-73412280D01*
X165013971Y-73412280D02*
X165204448Y-73221804D01*
X165204448Y-73221804D02*
X165299686Y-72936089D01*
X165299686Y-72936089D02*
X165299686Y-72459899D01*
X168519574Y-61602756D02*
X168519574Y-60459899D01*
X168519574Y-61031327D02*
X166519574Y-61031327D01*
X166519574Y-61031327D02*
X166805288Y-60840851D01*
X166805288Y-60840851D02*
X166995764Y-60650375D01*
X166995764Y-60650375D02*
X167091002Y-60459899D01*
X166519574Y-62269423D02*
X166519574Y-63507518D01*
X166519574Y-63507518D02*
X167281478Y-62840851D01*
X167281478Y-62840851D02*
X167281478Y-63126566D01*
X167281478Y-63126566D02*
X167376716Y-63317042D01*
X167376716Y-63317042D02*
X167471955Y-63412280D01*
X167471955Y-63412280D02*
X167662431Y-63507518D01*
X167662431Y-63507518D02*
X168138621Y-63507518D01*
X168138621Y-63507518D02*
X168329097Y-63412280D01*
X168329097Y-63412280D02*
X168424336Y-63317042D01*
X168424336Y-63317042D02*
X168519574Y-63126566D01*
X168519574Y-63126566D02*
X168519574Y-62555137D01*
X168519574Y-62555137D02*
X168424336Y-62364661D01*
X168424336Y-62364661D02*
X168329097Y-62269423D01*
X167757669Y-64364661D02*
X167757669Y-65888471D01*
X167948145Y-68269423D02*
X167948145Y-69221804D01*
X168519574Y-68078947D02*
X166519574Y-68745613D01*
X166519574Y-68745613D02*
X168519574Y-69412280D01*
X168519574Y-70078947D02*
X166519574Y-70078947D01*
X166519574Y-70078947D02*
X168519574Y-71221804D01*
X168519574Y-71221804D02*
X166519574Y-71221804D01*
X167948145Y-72078947D02*
X167948145Y-73031328D01*
X168519574Y-71888471D02*
X166519574Y-72555137D01*
X166519574Y-72555137D02*
X168519574Y-73221804D01*
X168519574Y-74840852D02*
X168519574Y-73888471D01*
X168519574Y-73888471D02*
X166519574Y-73888471D01*
X167567193Y-75888471D02*
X168519574Y-75888471D01*
X166519574Y-75221805D02*
X167567193Y-75888471D01*
X167567193Y-75888471D02*
X166519574Y-76555138D01*
X168424336Y-77126567D02*
X168519574Y-77412281D01*
X168519574Y-77412281D02*
X168519574Y-77888472D01*
X168519574Y-77888472D02*
X168424336Y-78078948D01*
X168424336Y-78078948D02*
X168329097Y-78174186D01*
X168329097Y-78174186D02*
X168138621Y-78269424D01*
X168138621Y-78269424D02*
X167948145Y-78269424D01*
X167948145Y-78269424D02*
X167757669Y-78174186D01*
X167757669Y-78174186D02*
X167662431Y-78078948D01*
X167662431Y-78078948D02*
X167567193Y-77888472D01*
X167567193Y-77888472D02*
X167471955Y-77507519D01*
X167471955Y-77507519D02*
X167376716Y-77317043D01*
X167376716Y-77317043D02*
X167281478Y-77221805D01*
X167281478Y-77221805D02*
X167091002Y-77126567D01*
X167091002Y-77126567D02*
X166900526Y-77126567D01*
X166900526Y-77126567D02*
X166710050Y-77221805D01*
X166710050Y-77221805D02*
X166614812Y-77317043D01*
X166614812Y-77317043D02*
X166519574Y-77507519D01*
X166519574Y-77507519D02*
X166519574Y-77983710D01*
X166519574Y-77983710D02*
X166614812Y-78269424D01*
X167471955Y-79126567D02*
X167471955Y-79793234D01*
X168519574Y-80078948D02*
X168519574Y-79126567D01*
X168519574Y-79126567D02*
X166519574Y-79126567D01*
X166519574Y-79126567D02*
X166519574Y-80078948D01*
X171739462Y-61602756D02*
X171739462Y-60459899D01*
X171739462Y-61031327D02*
X169739462Y-61031327D01*
X169739462Y-61031327D02*
X170025176Y-60840851D01*
X170025176Y-60840851D02*
X170215652Y-60650375D01*
X170215652Y-60650375D02*
X170310890Y-60459899D01*
X170406128Y-63317042D02*
X171739462Y-63317042D01*
X169644224Y-62840851D02*
X171072795Y-62364661D01*
X171072795Y-62364661D02*
X171072795Y-63602756D01*
X170977557Y-64364661D02*
X170977557Y-65888471D01*
X170406128Y-68364661D02*
X171739462Y-68364661D01*
X170596604Y-68364661D02*
X170501366Y-68459899D01*
X170501366Y-68459899D02*
X170406128Y-68650375D01*
X170406128Y-68650375D02*
X170406128Y-68936090D01*
X170406128Y-68936090D02*
X170501366Y-69126566D01*
X170501366Y-69126566D02*
X170691843Y-69221804D01*
X170691843Y-69221804D02*
X171739462Y-69221804D01*
X170691843Y-70174185D02*
X170691843Y-70840852D01*
X171739462Y-71126566D02*
X171739462Y-70174185D01*
X171739462Y-70174185D02*
X169739462Y-70174185D01*
X169739462Y-70174185D02*
X169739462Y-71126566D01*
X171739462Y-73126566D02*
X170787081Y-72459899D01*
X171739462Y-71983709D02*
X169739462Y-71983709D01*
X169739462Y-71983709D02*
X169739462Y-72745614D01*
X169739462Y-72745614D02*
X169834700Y-72936090D01*
X169834700Y-72936090D02*
X169929938Y-73031328D01*
X169929938Y-73031328D02*
X170120414Y-73126566D01*
X170120414Y-73126566D02*
X170406128Y-73126566D01*
X170406128Y-73126566D02*
X170596604Y-73031328D01*
X170596604Y-73031328D02*
X170691843Y-72936090D01*
X170691843Y-72936090D02*
X170787081Y-72745614D01*
X170787081Y-72745614D02*
X170787081Y-71983709D01*
X171739462Y-75126566D02*
X170787081Y-74459899D01*
X171739462Y-73983709D02*
X169739462Y-73983709D01*
X169739462Y-73983709D02*
X169739462Y-74745614D01*
X169739462Y-74745614D02*
X169834700Y-74936090D01*
X169834700Y-74936090D02*
X169929938Y-75031328D01*
X169929938Y-75031328D02*
X170120414Y-75126566D01*
X170120414Y-75126566D02*
X170406128Y-75126566D01*
X170406128Y-75126566D02*
X170596604Y-75031328D01*
X170596604Y-75031328D02*
X170691843Y-74936090D01*
X170691843Y-74936090D02*
X170787081Y-74745614D01*
X170787081Y-74745614D02*
X170787081Y-73983709D01*
X169739462Y-76364661D02*
X169739462Y-76745614D01*
X169739462Y-76745614D02*
X169834700Y-76936090D01*
X169834700Y-76936090D02*
X170025176Y-77126566D01*
X170025176Y-77126566D02*
X170406128Y-77221804D01*
X170406128Y-77221804D02*
X171072795Y-77221804D01*
X171072795Y-77221804D02*
X171453747Y-77126566D01*
X171453747Y-77126566D02*
X171644224Y-76936090D01*
X171644224Y-76936090D02*
X171739462Y-76745614D01*
X171739462Y-76745614D02*
X171739462Y-76364661D01*
X171739462Y-76364661D02*
X171644224Y-76174185D01*
X171644224Y-76174185D02*
X171453747Y-75983709D01*
X171453747Y-75983709D02*
X171072795Y-75888471D01*
X171072795Y-75888471D02*
X170406128Y-75888471D01*
X170406128Y-75888471D02*
X170025176Y-75983709D01*
X170025176Y-75983709D02*
X169834700Y-76174185D01*
X169834700Y-76174185D02*
X169739462Y-76364661D01*
X171739462Y-79221804D02*
X170787081Y-78555137D01*
X171739462Y-78078947D02*
X169739462Y-78078947D01*
X169739462Y-78078947D02*
X169739462Y-78840852D01*
X169739462Y-78840852D02*
X169834700Y-79031328D01*
X169834700Y-79031328D02*
X169929938Y-79126566D01*
X169929938Y-79126566D02*
X170120414Y-79221804D01*
X170120414Y-79221804D02*
X170406128Y-79221804D01*
X170406128Y-79221804D02*
X170596604Y-79126566D01*
X170596604Y-79126566D02*
X170691843Y-79031328D01*
X170691843Y-79031328D02*
X170787081Y-78840852D01*
X170787081Y-78840852D02*
X170787081Y-78078947D01*
X174959350Y-61602756D02*
X174959350Y-60459899D01*
X174959350Y-61031327D02*
X172959350Y-61031327D01*
X172959350Y-61031327D02*
X173245064Y-60840851D01*
X173245064Y-60840851D02*
X173435540Y-60650375D01*
X173435540Y-60650375D02*
X173530778Y-60459899D01*
X172959350Y-63412280D02*
X172959350Y-62459899D01*
X172959350Y-62459899D02*
X173911731Y-62364661D01*
X173911731Y-62364661D02*
X173816492Y-62459899D01*
X173816492Y-62459899D02*
X173721254Y-62650375D01*
X173721254Y-62650375D02*
X173721254Y-63126566D01*
X173721254Y-63126566D02*
X173816492Y-63317042D01*
X173816492Y-63317042D02*
X173911731Y-63412280D01*
X173911731Y-63412280D02*
X174102207Y-63507518D01*
X174102207Y-63507518D02*
X174578397Y-63507518D01*
X174578397Y-63507518D02*
X174768873Y-63412280D01*
X174768873Y-63412280D02*
X174864112Y-63317042D01*
X174864112Y-63317042D02*
X174959350Y-63126566D01*
X174959350Y-63126566D02*
X174959350Y-62650375D01*
X174959350Y-62650375D02*
X174864112Y-62459899D01*
X174864112Y-62459899D02*
X174768873Y-62364661D01*
X174197445Y-64364661D02*
X174197445Y-65888471D01*
X172959350Y-69317042D02*
X172959350Y-68364661D01*
X172959350Y-68364661D02*
X173911731Y-68269423D01*
X173911731Y-68269423D02*
X173816492Y-68364661D01*
X173816492Y-68364661D02*
X173721254Y-68555137D01*
X173721254Y-68555137D02*
X173721254Y-69031328D01*
X173721254Y-69031328D02*
X173816492Y-69221804D01*
X173816492Y-69221804D02*
X173911731Y-69317042D01*
X173911731Y-69317042D02*
X174102207Y-69412280D01*
X174102207Y-69412280D02*
X174578397Y-69412280D01*
X174578397Y-69412280D02*
X174768873Y-69317042D01*
X174768873Y-69317042D02*
X174864112Y-69221804D01*
X174864112Y-69221804D02*
X174959350Y-69031328D01*
X174959350Y-69031328D02*
X174959350Y-68555137D01*
X174959350Y-68555137D02*
X174864112Y-68364661D01*
X174864112Y-68364661D02*
X174768873Y-68269423D01*
X174959350Y-70269423D02*
X172959350Y-70269423D01*
X172959350Y-70269423D02*
X174387921Y-70936090D01*
X174387921Y-70936090D02*
X172959350Y-71602756D01*
X172959350Y-71602756D02*
X174959350Y-71602756D01*
X174959350Y-72555137D02*
X172959350Y-72555137D01*
X173911731Y-72555137D02*
X173911731Y-73697994D01*
X174959350Y-73697994D02*
X172959350Y-73697994D01*
X172959350Y-74459899D02*
X172959350Y-75793232D01*
X172959350Y-75793232D02*
X174959350Y-74459899D01*
X174959350Y-74459899D02*
X174959350Y-75793232D01*
X172959350Y-78459899D02*
X172959350Y-78840852D01*
X172959350Y-78840852D02*
X173054588Y-79031328D01*
X173054588Y-79031328D02*
X173245064Y-79221804D01*
X173245064Y-79221804D02*
X173626016Y-79317042D01*
X173626016Y-79317042D02*
X174292683Y-79317042D01*
X174292683Y-79317042D02*
X174673635Y-79221804D01*
X174673635Y-79221804D02*
X174864112Y-79031328D01*
X174864112Y-79031328D02*
X174959350Y-78840852D01*
X174959350Y-78840852D02*
X174959350Y-78459899D01*
X174959350Y-78459899D02*
X174864112Y-78269423D01*
X174864112Y-78269423D02*
X174673635Y-78078947D01*
X174673635Y-78078947D02*
X174292683Y-77983709D01*
X174292683Y-77983709D02*
X173626016Y-77983709D01*
X173626016Y-77983709D02*
X173245064Y-78078947D01*
X173245064Y-78078947D02*
X173054588Y-78269423D01*
X173054588Y-78269423D02*
X172959350Y-78459899D01*
X172959350Y-80174185D02*
X174578397Y-80174185D01*
X174578397Y-80174185D02*
X174768873Y-80269423D01*
X174768873Y-80269423D02*
X174864112Y-80364661D01*
X174864112Y-80364661D02*
X174959350Y-80555137D01*
X174959350Y-80555137D02*
X174959350Y-80936090D01*
X174959350Y-80936090D02*
X174864112Y-81126566D01*
X174864112Y-81126566D02*
X174768873Y-81221804D01*
X174768873Y-81221804D02*
X174578397Y-81317042D01*
X174578397Y-81317042D02*
X172959350Y-81317042D01*
X172959350Y-81983709D02*
X172959350Y-83126566D01*
X174959350Y-82555137D02*
X172959350Y-82555137D01*
X178179238Y-61602756D02*
X178179238Y-60459899D01*
X178179238Y-61031327D02*
X176179238Y-61031327D01*
X176179238Y-61031327D02*
X176464952Y-60840851D01*
X176464952Y-60840851D02*
X176655428Y-60650375D01*
X176655428Y-60650375D02*
X176750666Y-60459899D01*
X176179238Y-63317042D02*
X176179238Y-62936089D01*
X176179238Y-62936089D02*
X176274476Y-62745613D01*
X176274476Y-62745613D02*
X176369714Y-62650375D01*
X176369714Y-62650375D02*
X176655428Y-62459899D01*
X176655428Y-62459899D02*
X177036380Y-62364661D01*
X177036380Y-62364661D02*
X177798285Y-62364661D01*
X177798285Y-62364661D02*
X177988761Y-62459899D01*
X177988761Y-62459899D02*
X178084000Y-62555137D01*
X178084000Y-62555137D02*
X178179238Y-62745613D01*
X178179238Y-62745613D02*
X178179238Y-63126566D01*
X178179238Y-63126566D02*
X178084000Y-63317042D01*
X178084000Y-63317042D02*
X177988761Y-63412280D01*
X177988761Y-63412280D02*
X177798285Y-63507518D01*
X177798285Y-63507518D02*
X177322095Y-63507518D01*
X177322095Y-63507518D02*
X177131619Y-63412280D01*
X177131619Y-63412280D02*
X177036380Y-63317042D01*
X177036380Y-63317042D02*
X176941142Y-63126566D01*
X176941142Y-63126566D02*
X176941142Y-62745613D01*
X176941142Y-62745613D02*
X177036380Y-62555137D01*
X177036380Y-62555137D02*
X177131619Y-62459899D01*
X177131619Y-62459899D02*
X177322095Y-62364661D01*
X177417333Y-64364661D02*
X177417333Y-65888471D01*
X178179238Y-69507518D02*
X177226857Y-68840851D01*
X178179238Y-68364661D02*
X176179238Y-68364661D01*
X176179238Y-68364661D02*
X176179238Y-69126566D01*
X176179238Y-69126566D02*
X176274476Y-69317042D01*
X176274476Y-69317042D02*
X176369714Y-69412280D01*
X176369714Y-69412280D02*
X176560190Y-69507518D01*
X176560190Y-69507518D02*
X176845904Y-69507518D01*
X176845904Y-69507518D02*
X177036380Y-69412280D01*
X177036380Y-69412280D02*
X177131619Y-69317042D01*
X177131619Y-69317042D02*
X177226857Y-69126566D01*
X177226857Y-69126566D02*
X177226857Y-68364661D01*
X177131619Y-70364661D02*
X177131619Y-71031328D01*
X178179238Y-71317042D02*
X178179238Y-70364661D01*
X178179238Y-70364661D02*
X176179238Y-70364661D01*
X176179238Y-70364661D02*
X176179238Y-71317042D01*
X178084000Y-72078947D02*
X178179238Y-72364661D01*
X178179238Y-72364661D02*
X178179238Y-72840852D01*
X178179238Y-72840852D02*
X178084000Y-73031328D01*
X178084000Y-73031328D02*
X177988761Y-73126566D01*
X177988761Y-73126566D02*
X177798285Y-73221804D01*
X177798285Y-73221804D02*
X177607809Y-73221804D01*
X177607809Y-73221804D02*
X177417333Y-73126566D01*
X177417333Y-73126566D02*
X177322095Y-73031328D01*
X177322095Y-73031328D02*
X177226857Y-72840852D01*
X177226857Y-72840852D02*
X177131619Y-72459899D01*
X177131619Y-72459899D02*
X177036380Y-72269423D01*
X177036380Y-72269423D02*
X176941142Y-72174185D01*
X176941142Y-72174185D02*
X176750666Y-72078947D01*
X176750666Y-72078947D02*
X176560190Y-72078947D01*
X176560190Y-72078947D02*
X176369714Y-72174185D01*
X176369714Y-72174185D02*
X176274476Y-72269423D01*
X176274476Y-72269423D02*
X176179238Y-72459899D01*
X176179238Y-72459899D02*
X176179238Y-72936090D01*
X176179238Y-72936090D02*
X176274476Y-73221804D01*
X177131619Y-74078947D02*
X177131619Y-74745614D01*
X178179238Y-75031328D02*
X178179238Y-74078947D01*
X178179238Y-74078947D02*
X176179238Y-74078947D01*
X176179238Y-74078947D02*
X176179238Y-75031328D01*
X176179238Y-75602757D02*
X176179238Y-76745614D01*
X178179238Y-76174185D02*
X176179238Y-76174185D01*
X139805137Y-55270761D02*
X139805137Y-57270761D01*
X139805137Y-57270761D02*
X140281327Y-57270761D01*
X140281327Y-57270761D02*
X140567042Y-57175523D01*
X140567042Y-57175523D02*
X140757518Y-56985047D01*
X140757518Y-56985047D02*
X140852756Y-56794571D01*
X140852756Y-56794571D02*
X140947994Y-56413619D01*
X140947994Y-56413619D02*
X140947994Y-56127904D01*
X140947994Y-56127904D02*
X140852756Y-55746952D01*
X140852756Y-55746952D02*
X140757518Y-55556476D01*
X140757518Y-55556476D02*
X140567042Y-55366000D01*
X140567042Y-55366000D02*
X140281327Y-55270761D01*
X140281327Y-55270761D02*
X139805137Y-55270761D01*
X142186089Y-57270761D02*
X142567042Y-57270761D01*
X142567042Y-57270761D02*
X142757518Y-57175523D01*
X142757518Y-57175523D02*
X142947994Y-56985047D01*
X142947994Y-56985047D02*
X143043232Y-56604095D01*
X143043232Y-56604095D02*
X143043232Y-55937428D01*
X143043232Y-55937428D02*
X142947994Y-55556476D01*
X142947994Y-55556476D02*
X142757518Y-55366000D01*
X142757518Y-55366000D02*
X142567042Y-55270761D01*
X142567042Y-55270761D02*
X142186089Y-55270761D01*
X142186089Y-55270761D02*
X141995613Y-55366000D01*
X141995613Y-55366000D02*
X141805137Y-55556476D01*
X141805137Y-55556476D02*
X141709899Y-55937428D01*
X141709899Y-55937428D02*
X141709899Y-56604095D01*
X141709899Y-56604095D02*
X141805137Y-56985047D01*
X141805137Y-56985047D02*
X141995613Y-57175523D01*
X141995613Y-57175523D02*
X142186089Y-57270761D01*
X143709899Y-57270761D02*
X144186089Y-55270761D01*
X144186089Y-55270761D02*
X144567042Y-56699333D01*
X144567042Y-56699333D02*
X144947994Y-55270761D01*
X144947994Y-55270761D02*
X145424185Y-57270761D01*
X146186089Y-55270761D02*
X146186089Y-57270761D01*
X146186089Y-57270761D02*
X147328946Y-55270761D01*
X147328946Y-55270761D02*
X147328946Y-57270761D01*
X149233708Y-55270761D02*
X148281327Y-55270761D01*
X148281327Y-55270761D02*
X148281327Y-57270761D01*
X149900375Y-55270761D02*
X149900375Y-57270761D01*
X150852756Y-55270761D02*
X150852756Y-57270761D01*
X150852756Y-57270761D02*
X151995613Y-55270761D01*
X151995613Y-55270761D02*
X151995613Y-57270761D01*
X152947994Y-55270761D02*
X152947994Y-57270761D01*
X154090851Y-55270761D02*
X153233708Y-56413619D01*
X154090851Y-57270761D02*
X152947994Y-56127904D01*
X156471804Y-56032666D02*
X157995614Y-56032666D01*
X158947994Y-56604095D02*
X160471804Y-56032666D01*
X160471804Y-56032666D02*
X158947994Y-55461238D01*
X162947994Y-57270761D02*
X162947994Y-55651714D01*
X162947994Y-55651714D02*
X163043232Y-55461238D01*
X163043232Y-55461238D02*
X163138470Y-55366000D01*
X163138470Y-55366000D02*
X163328946Y-55270761D01*
X163328946Y-55270761D02*
X163709899Y-55270761D01*
X163709899Y-55270761D02*
X163900375Y-55366000D01*
X163900375Y-55366000D02*
X163995613Y-55461238D01*
X163995613Y-55461238D02*
X164090851Y-55651714D01*
X164090851Y-55651714D02*
X164090851Y-57270761D01*
X165043232Y-55270761D02*
X165043232Y-57270761D01*
X165043232Y-57270761D02*
X165805137Y-57270761D01*
X165805137Y-57270761D02*
X165995613Y-57175523D01*
X165995613Y-57175523D02*
X166090851Y-57080285D01*
X166090851Y-57080285D02*
X166186089Y-56889809D01*
X166186089Y-56889809D02*
X166186089Y-56604095D01*
X166186089Y-56604095D02*
X166090851Y-56413619D01*
X166090851Y-56413619D02*
X165995613Y-56318380D01*
X165995613Y-56318380D02*
X165805137Y-56223142D01*
X165805137Y-56223142D02*
X165043232Y-56223142D01*
X167995613Y-55270761D02*
X167043232Y-55270761D01*
X167043232Y-55270761D02*
X167043232Y-57270761D01*
X168662280Y-55270761D02*
X168662280Y-57270761D01*
X169614661Y-55270761D02*
X169614661Y-57270761D01*
X169614661Y-57270761D02*
X170757518Y-55270761D01*
X170757518Y-55270761D02*
X170757518Y-57270761D01*
X171709899Y-55270761D02*
X171709899Y-57270761D01*
X172852756Y-55270761D02*
X171995613Y-56413619D01*
X172852756Y-57270761D02*
X171709899Y-56127904D01*
%LPC*%
D11*
G04 #@! TO.C,H5*
X192060000Y-50000000D03*
D12*
X192060000Y-50000000D03*
G04 #@! TD*
D13*
G04 #@! TO.C,J3*
X111620000Y-55200000D03*
D14*
X114160000Y-55200000D03*
X116700000Y-55200000D03*
G04 #@! TD*
D13*
G04 #@! TO.C,J2*
X166760000Y-51700000D03*
D14*
X166760000Y-49160000D03*
X169300000Y-51700000D03*
X169300000Y-49160000D03*
X171840000Y-51700000D03*
X171840000Y-49160000D03*
X174380000Y-51700000D03*
X174380000Y-49160000D03*
X176920000Y-51700000D03*
X176920000Y-49160000D03*
X179460000Y-51700000D03*
X179460000Y-49160000D03*
X182000000Y-51700000D03*
X182000000Y-49160000D03*
X184540000Y-51700000D03*
X184540000Y-49160000D03*
G04 #@! TD*
D15*
G04 #@! TO.C,LED2*
X167000000Y-137369414D03*
X164460000Y-137369414D03*
X167000000Y-139909414D03*
X164460000Y-139909414D03*
G04 #@! TD*
D16*
G04 #@! TO.C,U2*
X193680000Y-82120000D03*
X193680000Y-79580000D03*
X193680000Y-77040000D03*
X193680000Y-74500000D03*
X193680000Y-71960000D03*
X193680000Y-69420000D03*
X193680000Y-66880000D03*
X193680000Y-64340000D03*
X109860000Y-64340000D03*
X109860000Y-66880000D03*
X109860000Y-69420000D03*
X109860000Y-71960000D03*
X109860000Y-74500000D03*
X109860000Y-77040000D03*
X109860000Y-79580000D03*
X109860000Y-82120000D03*
G04 #@! TD*
D15*
G04 #@! TO.C,LED4*
X181969840Y-137369414D03*
X179429840Y-137369414D03*
X181969840Y-139909414D03*
X179429840Y-139909414D03*
G04 #@! TD*
D11*
G04 #@! TO.C,H6*
X192060000Y-140000000D03*
D12*
X192060000Y-140000000D03*
G04 #@! TD*
D11*
G04 #@! TO.C,H4*
X102060000Y-50000000D03*
D12*
X102060000Y-50000000D03*
G04 #@! TD*
D15*
G04 #@! TO.C,LED1*
X159500000Y-137369414D03*
X156960000Y-137369414D03*
X159500000Y-139909414D03*
X156960000Y-139909414D03*
G04 #@! TD*
D13*
G04 #@! TO.C,J4*
X138210000Y-51760000D03*
D14*
X138210000Y-49220000D03*
X140750000Y-51760000D03*
X140750000Y-49220000D03*
X143290000Y-51760000D03*
X143290000Y-49220000D03*
X145830000Y-51760000D03*
X145830000Y-49220000D03*
X148370000Y-51760000D03*
X148370000Y-49220000D03*
X150910000Y-51760000D03*
X150910000Y-49220000D03*
X153450000Y-51760000D03*
X153450000Y-49220000D03*
X155990000Y-51760000D03*
X155990000Y-49220000D03*
G04 #@! TD*
D16*
G04 #@! TO.C,U1*
X193680000Y-120120000D03*
X193680000Y-117580000D03*
X193680000Y-115040000D03*
X193680000Y-112500000D03*
X193680000Y-109960000D03*
X193680000Y-107420000D03*
X193680000Y-104880000D03*
X193680000Y-102340000D03*
X109860000Y-102340000D03*
X109860000Y-104880000D03*
X109860000Y-107420000D03*
X109860000Y-109960000D03*
X109860000Y-112500000D03*
X109860000Y-115040000D03*
X109860000Y-117580000D03*
X109860000Y-120120000D03*
G04 #@! TD*
D11*
G04 #@! TO.C,H3*
X102060000Y-140000000D03*
D12*
X102060000Y-140000000D03*
G04 #@! TD*
D13*
G04 #@! TO.C,J1*
X103350000Y-55625000D03*
D14*
X100810000Y-55625000D03*
X103350000Y-58165000D03*
X100810000Y-58165000D03*
X103350000Y-60705000D03*
X100810000Y-60705000D03*
X103350000Y-63245000D03*
X100810000Y-63245000D03*
X103350000Y-65785000D03*
X100810000Y-65785000D03*
X103350000Y-68325000D03*
X100810000Y-68325000D03*
X103350000Y-70865000D03*
X100810000Y-70865000D03*
X103350000Y-73405000D03*
X100810000Y-73405000D03*
X103350000Y-75945000D03*
X100810000Y-75945000D03*
X103350000Y-78485000D03*
X100810000Y-78485000D03*
X103350000Y-81025000D03*
X100810000Y-81025000D03*
X103350000Y-83565000D03*
X100810000Y-83565000D03*
X103350000Y-86105000D03*
X100810000Y-86105000D03*
X103350000Y-88645000D03*
X100810000Y-88645000D03*
X103350000Y-91185000D03*
X100810000Y-91185000D03*
X103350000Y-93725000D03*
X100810000Y-93725000D03*
X103350000Y-96265000D03*
X100810000Y-96265000D03*
X103350000Y-98805000D03*
X100810000Y-98805000D03*
X103350000Y-101345000D03*
X100810000Y-101345000D03*
X103350000Y-103885000D03*
X100810000Y-103885000D03*
X103350000Y-106425000D03*
X100810000Y-106425000D03*
X103350000Y-108965000D03*
X100810000Y-108965000D03*
X103350000Y-111505000D03*
X100810000Y-111505000D03*
X103350000Y-114045000D03*
X100810000Y-114045000D03*
X103350000Y-116585000D03*
X100810000Y-116585000D03*
X103350000Y-119125000D03*
X100810000Y-119125000D03*
X103350000Y-121665000D03*
X100810000Y-121665000D03*
X103350000Y-124205000D03*
X100810000Y-124205000D03*
X103350000Y-126745000D03*
X100810000Y-126745000D03*
X103350000Y-129285000D03*
X100810000Y-129285000D03*
X103350000Y-131825000D03*
X100810000Y-131825000D03*
X103350000Y-134365000D03*
X100810000Y-134365000D03*
G04 #@! TD*
D15*
G04 #@! TO.C,LED3*
X174500000Y-137369414D03*
X171960000Y-137369414D03*
X174500000Y-139909414D03*
X171960000Y-139909414D03*
G04 #@! TD*
%LPD*%
M02*
