G04 #@! TF.GenerationSoftware,KiCad,Pcbnew,9.0.5-9.0.5~ubuntu24.04.1*
G04 #@! TF.CreationDate,2025-12-01T21:58:57+00:00*
G04 #@! TF.ProjectId,PC6502-DUALTRANSPUTER,50433635-3032-42d4-9455-414c5452414e,rev?*
G04 #@! TF.SameCoordinates,Original*
G04 #@! TF.FileFunction,Soldermask,Top*
G04 #@! TF.FilePolarity,Negative*
%FSLAX46Y46*%
G04 Gerber Fmt 4.6, Leading zero omitted, Abs format (unit mm)*
G04 Created by KiCad (PCBNEW 9.0.5-9.0.5~ubuntu24.04.1) date 2025-12-01 21:58:57*
%MOMM*%
%LPD*%
G01*
G04 APERTURE LIST*
G04 Aperture macros list*
%AMRoundRect*
0 Rectangle with rounded corners*
0 $1 Rounding radius*
0 $2 $3 $4 $5 $6 $7 $8 $9 X,Y pos of 4 corners*
0 Add a 4 corners polygon primitive as box body*
4,1,4,$2,$3,$4,$5,$6,$7,$8,$9,$2,$3,0*
0 Add four circle primitives for the rounded corners*
1,1,$1+$1,$2,$3*
1,1,$1+$1,$4,$5*
1,1,$1+$1,$6,$7*
1,1,$1+$1,$8,$9*
0 Add four rect primitives between the rounded corners*
20,1,$1+$1,$2,$3,$4,$5,0*
20,1,$1+$1,$4,$5,$6,$7,0*
20,1,$1+$1,$6,$7,$8,$9,0*
20,1,$1+$1,$8,$9,$2,$3,0*%
G04 Aperture macros list end*
%ADD10RoundRect,0.237500X-0.237500X0.250000X-0.237500X-0.250000X0.237500X-0.250000X0.237500X0.250000X0*%
%ADD11C,3.600000*%
%ADD12C,6.400000*%
%ADD13R,1.700000X1.700000*%
%ADD14C,1.700000*%
%ADD15RoundRect,0.237500X0.237500X-0.250000X0.237500X0.250000X-0.237500X0.250000X-0.237500X-0.250000X0*%
%ADD16C,1.381000*%
%ADD17RoundRect,0.100000X-0.637500X-0.100000X0.637500X-0.100000X0.637500X0.100000X-0.637500X0.100000X0*%
%ADD18RoundRect,0.190500X0.762000X0.444500X-0.762000X0.444500X-0.762000X-0.444500X0.762000X-0.444500X0*%
%ADD19RoundRect,0.250000X-0.650000X0.325000X-0.650000X-0.325000X0.650000X-0.325000X0.650000X0.325000X0*%
%ADD20RoundRect,0.250000X-0.475000X0.250000X-0.475000X-0.250000X0.475000X-0.250000X0.475000X0.250000X0*%
%ADD21RoundRect,0.225000X0.225000X0.250000X-0.225000X0.250000X-0.225000X-0.250000X0.225000X-0.250000X0*%
%ADD22RoundRect,0.225000X-0.225000X-0.250000X0.225000X-0.250000X0.225000X0.250000X-0.225000X0.250000X0*%
%ADD23RoundRect,0.250000X0.325000X0.650000X-0.325000X0.650000X-0.325000X-0.650000X0.325000X-0.650000X0*%
G04 APERTURE END LIST*
D10*
G04 #@! TO.C,R3*
X162100000Y-126937500D03*
X162100000Y-128762500D03*
G04 #@! TD*
G04 #@! TO.C,R1*
X154400000Y-127087500D03*
X154400000Y-128912500D03*
G04 #@! TD*
D11*
G04 #@! TO.C,H5*
X192060000Y-50000000D03*
D12*
X192060000Y-50000000D03*
G04 #@! TD*
D13*
G04 #@! TO.C,J3*
X111620000Y-55200000D03*
D14*
X114160000Y-55200000D03*
X116700000Y-55200000D03*
G04 #@! TD*
D13*
G04 #@! TO.C,J2*
X166760000Y-51700000D03*
D14*
X166760000Y-49160000D03*
X169300000Y-51700000D03*
X169300000Y-49160000D03*
X171840000Y-51700000D03*
X171840000Y-49160000D03*
X174380000Y-51700000D03*
X174380000Y-49160000D03*
X176920000Y-51700000D03*
X176920000Y-49160000D03*
X179460000Y-51700000D03*
X179460000Y-49160000D03*
X182000000Y-51700000D03*
X182000000Y-49160000D03*
X184540000Y-51700000D03*
X184540000Y-49160000D03*
G04 #@! TD*
D15*
G04 #@! TO.C,R2*
X156916245Y-128917256D03*
X156916245Y-127092256D03*
G04 #@! TD*
D16*
G04 #@! TO.C,LED2*
X167000000Y-137369414D03*
X164460000Y-137369414D03*
X167000000Y-139909414D03*
X164460000Y-139909414D03*
G04 #@! TD*
D17*
G04 #@! TO.C,U3*
X136737500Y-135375000D03*
X136737500Y-136025000D03*
X136737500Y-136675000D03*
X136737500Y-137325000D03*
X136737500Y-137975000D03*
X136737500Y-138625000D03*
X136737500Y-139275000D03*
X136737500Y-139925000D03*
X136737500Y-140575000D03*
X136737500Y-141225000D03*
X142462500Y-141225000D03*
X142462500Y-140575000D03*
X142462500Y-139925000D03*
X142462500Y-139275000D03*
X142462500Y-138625000D03*
X142462500Y-137975000D03*
X142462500Y-137325000D03*
X142462500Y-136675000D03*
X142462500Y-136025000D03*
X142462500Y-135375000D03*
G04 #@! TD*
D18*
G04 #@! TO.C,U2*
X193680000Y-82120000D03*
X193680000Y-79580000D03*
X193680000Y-77040000D03*
X193680000Y-74500000D03*
X193680000Y-71960000D03*
X193680000Y-69420000D03*
X193680000Y-66880000D03*
X193680000Y-64340000D03*
X109860000Y-64340000D03*
X109860000Y-66880000D03*
X109860000Y-69420000D03*
X109860000Y-71960000D03*
X109860000Y-74500000D03*
X109860000Y-77040000D03*
X109860000Y-79580000D03*
X109860000Y-82120000D03*
G04 #@! TD*
D16*
G04 #@! TO.C,LED4*
X181969840Y-137369414D03*
X179429840Y-137369414D03*
X181969840Y-139909414D03*
X179429840Y-139909414D03*
G04 #@! TD*
D19*
G04 #@! TO.C,C6*
X112310000Y-138015000D03*
X112310000Y-140965000D03*
G04 #@! TD*
D11*
G04 #@! TO.C,H6*
X192060000Y-140000000D03*
D12*
X192060000Y-140000000D03*
G04 #@! TD*
D20*
G04 #@! TO.C,C8*
X108870000Y-138460000D03*
X108870000Y-140360000D03*
G04 #@! TD*
D10*
G04 #@! TO.C,R5*
X169450000Y-126937500D03*
X169450000Y-128762500D03*
G04 #@! TD*
D11*
G04 #@! TO.C,H4*
X102060000Y-50000000D03*
D12*
X102060000Y-50000000D03*
G04 #@! TD*
D16*
G04 #@! TO.C,LED1*
X159500000Y-137369414D03*
X156960000Y-137369414D03*
X159500000Y-139909414D03*
X156960000Y-139909414D03*
G04 #@! TD*
D13*
G04 #@! TO.C,J4*
X138210000Y-51760000D03*
D14*
X138210000Y-49220000D03*
X140750000Y-51760000D03*
X140750000Y-49220000D03*
X143290000Y-51760000D03*
X143290000Y-49220000D03*
X145830000Y-51760000D03*
X145830000Y-49220000D03*
X148370000Y-51760000D03*
X148370000Y-49220000D03*
X150910000Y-51760000D03*
X150910000Y-49220000D03*
X153450000Y-51760000D03*
X153450000Y-49220000D03*
X155990000Y-51760000D03*
X155990000Y-49220000D03*
G04 #@! TD*
D10*
G04 #@! TO.C,R7*
X176950000Y-126937500D03*
X176950000Y-128762500D03*
G04 #@! TD*
D15*
G04 #@! TO.C,R6*
X171937357Y-128745259D03*
X171937357Y-126920259D03*
G04 #@! TD*
G04 #@! TO.C,R8*
X179447914Y-128740439D03*
X179447914Y-126915439D03*
G04 #@! TD*
D18*
G04 #@! TO.C,U1*
X193680000Y-120120000D03*
X193680000Y-117580000D03*
X193680000Y-115040000D03*
X193680000Y-112500000D03*
X193680000Y-109960000D03*
X193680000Y-107420000D03*
X193680000Y-104880000D03*
X193680000Y-102340000D03*
X109860000Y-102340000D03*
X109860000Y-104880000D03*
X109860000Y-107420000D03*
X109860000Y-109960000D03*
X109860000Y-112500000D03*
X109860000Y-115040000D03*
X109860000Y-117580000D03*
X109860000Y-120120000D03*
G04 #@! TD*
D11*
G04 #@! TO.C,H3*
X102060000Y-140000000D03*
D12*
X102060000Y-140000000D03*
G04 #@! TD*
D21*
G04 #@! TO.C,C7*
X189425000Y-113500000D03*
X187875000Y-113500000D03*
G04 #@! TD*
D13*
G04 #@! TO.C,J1*
X103350000Y-55625000D03*
D14*
X100810000Y-55625000D03*
X103350000Y-58165000D03*
X100810000Y-58165000D03*
X103350000Y-60705000D03*
X100810000Y-60705000D03*
X103350000Y-63245000D03*
X100810000Y-63245000D03*
X103350000Y-65785000D03*
X100810000Y-65785000D03*
X103350000Y-68325000D03*
X100810000Y-68325000D03*
X103350000Y-70865000D03*
X100810000Y-70865000D03*
X103350000Y-73405000D03*
X100810000Y-73405000D03*
X103350000Y-75945000D03*
X100810000Y-75945000D03*
X103350000Y-78485000D03*
X100810000Y-78485000D03*
X103350000Y-81025000D03*
X100810000Y-81025000D03*
X103350000Y-83565000D03*
X100810000Y-83565000D03*
X103350000Y-86105000D03*
X100810000Y-86105000D03*
X103350000Y-88645000D03*
X100810000Y-88645000D03*
X103350000Y-91185000D03*
X100810000Y-91185000D03*
X103350000Y-93725000D03*
X100810000Y-93725000D03*
X103350000Y-96265000D03*
X100810000Y-96265000D03*
X103350000Y-98805000D03*
X100810000Y-98805000D03*
X103350000Y-101345000D03*
X100810000Y-101345000D03*
X103350000Y-103885000D03*
X100810000Y-103885000D03*
X103350000Y-106425000D03*
X100810000Y-106425000D03*
X103350000Y-108965000D03*
X100810000Y-108965000D03*
X103350000Y-111505000D03*
X100810000Y-111505000D03*
X103350000Y-114045000D03*
X100810000Y-114045000D03*
X103350000Y-116585000D03*
X100810000Y-116585000D03*
X103350000Y-119125000D03*
X100810000Y-119125000D03*
X103350000Y-121665000D03*
X100810000Y-121665000D03*
X103350000Y-124205000D03*
X100810000Y-124205000D03*
X103350000Y-126745000D03*
X100810000Y-126745000D03*
X103350000Y-129285000D03*
X100810000Y-129285000D03*
X103350000Y-131825000D03*
X100810000Y-131825000D03*
X103350000Y-134365000D03*
X100810000Y-134365000D03*
G04 #@! TD*
D21*
G04 #@! TO.C,C4*
X190125000Y-76250000D03*
X188575000Y-76250000D03*
G04 #@! TD*
D16*
G04 #@! TO.C,LED3*
X174500000Y-137369414D03*
X171960000Y-137369414D03*
X174500000Y-139909414D03*
X171960000Y-139909414D03*
G04 #@! TD*
D22*
G04 #@! TO.C,C9*
X142650000Y-133000000D03*
X144200000Y-133000000D03*
G04 #@! TD*
D23*
G04 #@! TO.C,C5*
X189450000Y-115850000D03*
X186500000Y-115850000D03*
G04 #@! TD*
D15*
G04 #@! TO.C,R4*
X164598799Y-128745259D03*
X164598799Y-126920259D03*
G04 #@! TD*
D23*
G04 #@! TO.C,C3*
X190100000Y-78500000D03*
X187150000Y-78500000D03*
G04 #@! TD*
M02*
