%TF.GenerationSoftware,KiCad,Pcbnew,9.0.5-9.0.5~ubuntu24.04.1*%
%TF.CreationDate,2025-12-01T21:58:57+00:00*%
%TF.ProjectId,PC6502-DUALTRANSPUTER,50433635-3032-42d4-9455-414c5452414e,rev?*%
%TF.SameCoordinates,Original*%
%TF.FileFunction,Drillmap*%
%TF.FilePolarity,Positive*%
%FSLAX45Y45*%
G04 Gerber Fmt 4.5, Leading zero omitted, Abs format (unit mm)*
G04 Created by KiCad (PCBNEW 9.0.5-9.0.5~ubuntu24.04.1) date 2025-12-01 21:58:57*
%MOMM*%
%LPD*%
G01*
G04 APERTURE LIST*
%ADD10C,0.050000*%
%ADD11C,0.200000*%
G04 APERTURE END LIST*
D10*
X10206000Y-4500000D02*
X19206000Y-4500000D01*
X19706000Y-5000000D02*
X19706000Y-14000000D01*
X10206000Y-14500000D02*
G75*
G02*
X9706000Y-14000000I0J500000D01*
G01*
X19706000Y-14000000D02*
G75*
G02*
X19206000Y-14500000I-500000J0D01*
G01*
X9706000Y-5000000D02*
G75*
G02*
X10206000Y-4500000I500000J0D01*
G01*
X9706000Y-5000000D02*
X9706000Y-14000000D01*
X19206000Y-14500000D02*
X10206000Y-14500000D01*
X19206000Y-4500000D02*
G75*
G02*
X19706000Y-5000000I0J-500000D01*
G01*
D11*
X9964277Y-14813984D02*
X9964277Y-14613984D01*
X9964277Y-14613984D02*
X10011896Y-14613984D01*
X10011896Y-14613984D02*
X10040467Y-14623508D01*
X10040467Y-14623508D02*
X10059515Y-14642555D01*
X10059515Y-14642555D02*
X10069039Y-14661603D01*
X10069039Y-14661603D02*
X10078563Y-14699698D01*
X10078563Y-14699698D02*
X10078563Y-14728269D01*
X10078563Y-14728269D02*
X10069039Y-14766365D01*
X10069039Y-14766365D02*
X10059515Y-14785412D01*
X10059515Y-14785412D02*
X10040467Y-14804460D01*
X10040467Y-14804460D02*
X10011896Y-14813984D01*
X10011896Y-14813984D02*
X9964277Y-14813984D01*
X10164277Y-14813984D02*
X10164277Y-14680650D01*
X10164277Y-14718746D02*
X10173801Y-14699698D01*
X10173801Y-14699698D02*
X10183324Y-14690174D01*
X10183324Y-14690174D02*
X10202372Y-14680650D01*
X10202372Y-14680650D02*
X10221420Y-14680650D01*
X10288086Y-14813984D02*
X10288086Y-14680650D01*
X10288086Y-14613984D02*
X10278563Y-14623508D01*
X10278563Y-14623508D02*
X10288086Y-14633031D01*
X10288086Y-14633031D02*
X10297610Y-14623508D01*
X10297610Y-14623508D02*
X10288086Y-14613984D01*
X10288086Y-14613984D02*
X10288086Y-14633031D01*
X10411896Y-14813984D02*
X10392848Y-14804460D01*
X10392848Y-14804460D02*
X10383324Y-14785412D01*
X10383324Y-14785412D02*
X10383324Y-14613984D01*
X10516658Y-14813984D02*
X10497610Y-14804460D01*
X10497610Y-14804460D02*
X10488086Y-14785412D01*
X10488086Y-14785412D02*
X10488086Y-14613984D01*
X10745229Y-14813984D02*
X10745229Y-14613984D01*
X10745229Y-14613984D02*
X10811896Y-14756841D01*
X10811896Y-14756841D02*
X10878563Y-14613984D01*
X10878563Y-14613984D02*
X10878563Y-14813984D01*
X11059515Y-14813984D02*
X11059515Y-14709222D01*
X11059515Y-14709222D02*
X11049991Y-14690174D01*
X11049991Y-14690174D02*
X11030944Y-14680650D01*
X11030944Y-14680650D02*
X10992848Y-14680650D01*
X10992848Y-14680650D02*
X10973801Y-14690174D01*
X11059515Y-14804460D02*
X11040467Y-14813984D01*
X11040467Y-14813984D02*
X10992848Y-14813984D01*
X10992848Y-14813984D02*
X10973801Y-14804460D01*
X10973801Y-14804460D02*
X10964277Y-14785412D01*
X10964277Y-14785412D02*
X10964277Y-14766365D01*
X10964277Y-14766365D02*
X10973801Y-14747317D01*
X10973801Y-14747317D02*
X10992848Y-14737793D01*
X10992848Y-14737793D02*
X11040467Y-14737793D01*
X11040467Y-14737793D02*
X11059515Y-14728269D01*
X11154753Y-14680650D02*
X11154753Y-14880650D01*
X11154753Y-14690174D02*
X11173801Y-14680650D01*
X11173801Y-14680650D02*
X11211896Y-14680650D01*
X11211896Y-14680650D02*
X11230943Y-14690174D01*
X11230943Y-14690174D02*
X11240467Y-14699698D01*
X11240467Y-14699698D02*
X11249991Y-14718746D01*
X11249991Y-14718746D02*
X11249991Y-14775888D01*
X11249991Y-14775888D02*
X11240467Y-14794936D01*
X11240467Y-14794936D02*
X11230943Y-14804460D01*
X11230943Y-14804460D02*
X11211896Y-14813984D01*
X11211896Y-14813984D02*
X11173801Y-14813984D01*
X11173801Y-14813984D02*
X11154753Y-14804460D01*
X11335705Y-14794936D02*
X11345229Y-14804460D01*
X11345229Y-14804460D02*
X11335705Y-14813984D01*
X11335705Y-14813984D02*
X11326182Y-14804460D01*
X11326182Y-14804460D02*
X11335705Y-14794936D01*
X11335705Y-14794936D02*
X11335705Y-14813984D01*
X11335705Y-14690174D02*
X11345229Y-14699698D01*
X11345229Y-14699698D02*
X11335705Y-14709222D01*
X11335705Y-14709222D02*
X11326182Y-14699698D01*
X11326182Y-14699698D02*
X11335705Y-14690174D01*
X11335705Y-14690174D02*
X11335705Y-14709222D01*
M02*
