M48
; DRILL file {KiCad 9.0.5-9.0.5~ubuntu24.04.1} date 2025-12-01T21:58:57+0000
; FORMAT={-:-/ absolute / metric / decimal}
; #@! TF.CreationDate,2025-12-01T21:58:57+00:00
; #@! TF.GenerationSoftware,Kicad,Pcbnew,9.0.5-9.0.5~ubuntu24.04.1
; #@! TF.FileFunction,Plated,1,4,PTH
FMAT,2
METRIC
; #@! TA.AperFunction,Plated,PTH,ViaDrill
T1C0.300
; #@! TA.AperFunction,Plated,PTH,ComponentDrill
T2C0.800
; #@! TA.AperFunction,Plated,PTH,ComponentDrill
T3C0.850
; #@! TA.AperFunction,Plated,PTH,ComponentDrill
T4C1.000
; #@! TA.AperFunction,Plated,PTH,ComponentDrill
T5C3.200
%
G90
G05
T1
X107.27Y-140.37
X107.43Y-138.42
X108.79Y-141.85
X108.84Y-137.23
X110.26Y-138.45
X110.46Y-140.99
X112.29Y-136.67
X112.31Y-142.53
X113.87Y-137.98
X114.2Y-77.2
X114.22Y-140.99
X122.35Y-82.1
X122.5Y-117.55
X123.5Y-137.2
X124.3Y-79.6
X124.35Y-120.2
X126.8Y-82.1
X126.95Y-117.6
X127.0Y-139.0
X128.17Y-120.12
X128.2Y-79.55
X129.0Y-138.4
X129.8Y-71.95
X130.3Y-137.6
X130.45Y-135.4
X131.15Y-74.55
X132.1Y-135.5
X132.95Y-65.7
X133.0Y-109.95
X134.0Y-135.85
X134.65Y-64.6
X134.65Y-112.5
X136.75Y-142.35
X138.3Y-58.4
X139.55Y-54.35
X142.45Y-142.9
X142.5Y-134.35
X143.15Y-112.35
X144.15Y-134.05
X144.2Y-136.0
X144.6Y-138.7
X144.75Y-142.409
X144.85Y-109.95
X145.35Y-141.9
X145.4Y-139.19
X145.55Y-137.35
X146.05Y-141.409
X146.75Y-138.05
X148.5Y-61.4
X149.65Y-59.65
X153.45Y-63.2
X153.5Y-102.4
X154.85Y-107.35
X154.9Y-69.25
X155.1Y-137.4
X155.15Y-140.2
X155.65Y-127.05
X156.05Y-57.1
X157.6Y-104.8
X157.75Y-55.9
X157.75Y-67.15
X158.45Y-138.2
X161.15Y-139.95
X162.75Y-139.95
X163.4Y-126.95
X166.7Y-64.6
X168.15Y-65.9
X170.75Y-127.0
X171.85Y-74.35
X173.15Y-71.95
X176.35Y-141.55
X176.45Y-61.4
X176.45Y-74.45
X176.9Y-58.45
X178.1Y-54.35
X178.15Y-126.95
X178.65Y-59.75
X178.75Y-71.9
X181.35Y-77.15
X181.35Y-104.8
X181.45Y-66.9
X182.0Y-142.35
X182.05Y-63.2
X183.05Y-69.25
X183.3Y-142.9
X184.54Y-57.25
X184.55Y-64.2
X184.65Y-102.3
X184.8Y-115.85
X185.8Y-78.55
X186.05Y-55.95
X186.6Y-118.4
X186.8Y-113.5
X187.15Y-80.55
X187.45Y-76.25
X187.9Y-111.9
X188.55Y-75.1
X190.05Y-104.88
X190.15Y-107.35
X190.85Y-115.85
X190.9Y-113.6
X191.3Y-76.35
X191.4Y-77.65
X191.45Y-66.88
X191.5Y-69.4
T2
X109.86Y-64.34
X109.86Y-66.88
X109.86Y-69.42
X109.86Y-71.96
X109.86Y-74.5
X109.86Y-77.04
X109.86Y-79.58
X109.86Y-82.12
X109.86Y-102.34
X109.86Y-104.88
X109.86Y-107.42
X109.86Y-109.96
X109.86Y-112.5
X109.86Y-115.04
X109.86Y-117.58
X109.86Y-120.12
X193.68Y-64.34
X193.68Y-66.88
X193.68Y-69.42
X193.68Y-71.96
X193.68Y-74.5
X193.68Y-77.04
X193.68Y-79.58
X193.68Y-82.12
X193.68Y-102.34
X193.68Y-104.88
X193.68Y-107.42
X193.68Y-109.96
X193.68Y-112.5
X193.68Y-115.04
X193.68Y-117.58
X193.68Y-120.12
T3
X156.96Y-137.369
X156.96Y-139.909
X159.5Y-137.369
X159.5Y-139.909
X164.46Y-137.369
X164.46Y-139.909
X167.0Y-137.369
X167.0Y-139.909
X171.96Y-137.369
X171.96Y-139.909
X174.5Y-137.369
X174.5Y-139.909
X179.43Y-137.369
X179.43Y-139.909
X181.97Y-137.369
X181.97Y-139.909
T4
X100.81Y-55.625
X100.81Y-58.165
X100.81Y-60.705
X100.81Y-63.245
X100.81Y-65.785
X100.81Y-68.325
X100.81Y-70.865
X100.81Y-73.405
X100.81Y-75.945
X100.81Y-78.485
X100.81Y-81.025
X100.81Y-83.565
X100.81Y-86.105
X100.81Y-88.645
X100.81Y-91.185
X100.81Y-93.725
X100.81Y-96.265
X100.81Y-98.805
X100.81Y-101.345
X100.81Y-103.885
X100.81Y-106.425
X100.81Y-108.965
X100.81Y-111.505
X100.81Y-114.045
X100.81Y-116.585
X100.81Y-119.125
X100.81Y-121.665
X100.81Y-124.205
X100.81Y-126.745
X100.81Y-129.285
X100.81Y-131.825
X100.81Y-134.365
X103.35Y-55.625
X103.35Y-58.165
X103.35Y-60.705
X103.35Y-63.245
X103.35Y-65.785
X103.35Y-68.325
X103.35Y-70.865
X103.35Y-73.405
X103.35Y-75.945
X103.35Y-78.485
X103.35Y-81.025
X103.35Y-83.565
X103.35Y-86.105
X103.35Y-88.645
X103.35Y-91.185
X103.35Y-93.725
X103.35Y-96.265
X103.35Y-98.805
X103.35Y-101.345
X103.35Y-103.885
X103.35Y-106.425
X103.35Y-108.965
X103.35Y-111.505
X103.35Y-114.045
X103.35Y-116.585
X103.35Y-119.125
X103.35Y-121.665
X103.35Y-124.205
X103.35Y-126.745
X103.35Y-129.285
X103.35Y-131.825
X103.35Y-134.365
X111.62Y-55.2
X114.16Y-55.2
X116.7Y-55.2
X138.21Y-49.22
X138.21Y-51.76
X140.75Y-49.22
X140.75Y-51.76
X143.29Y-49.22
X143.29Y-51.76
X145.83Y-49.22
X145.83Y-51.76
X148.37Y-49.22
X148.37Y-51.76
X150.91Y-49.22
X150.91Y-51.76
X153.45Y-49.22
X153.45Y-51.76
X155.99Y-49.22
X155.99Y-51.76
X166.76Y-49.16
X166.76Y-51.7
X169.3Y-49.16
X169.3Y-51.7
X171.84Y-49.16
X171.84Y-51.7
X174.38Y-49.16
X174.38Y-51.7
X176.92Y-49.16
X176.92Y-51.7
X179.46Y-49.16
X179.46Y-51.7
X182.0Y-49.16
X182.0Y-51.7
X184.54Y-49.16
X184.54Y-51.7
T5
X102.06Y-50.0
X102.06Y-140.0
X192.06Y-50.0
X192.06Y-140.0
M30
